<svg xmlns="http://www.w3.org/2000/svg" viewBox="0 0 159.4 159.42" preserveAspectRatio="none" id="button"><defs></defs><title>button</title><g id="圖層_2" data-name="圖層 2"><g id="圖層_3" data-name="圖層 3"><path class="cls-1" d="M158.2,87l.18.13,0-1c0-.82-.09-1.62-.18-2.46a19.37,19.37,0,0,1-.1-4.79l0-.42-.4-.12h0l.05-.94a9.63,9.63,0,0,1,.49-2.74.69.69,0,0,0,.24-.24l.49-.77h-.09l.31-.49-1.08.49h0a.65.65,0,0,0-.25.06,1.56,1.56,0,0,1,0-.26,3.87,3.87,0,0,1,0-1c.35-.15.53-.44.62-1l0-.16-.07-.14a2.84,2.84,0,0,1-.1-.7,2.09,2.09,0,0,0-.39-1.35.61.61,0,0,1,.15-.24,1.84,1.84,0,0,0,.17-.22l.12-.18-.05-.2a14.89,14.89,0,0,1-.15-1.91c-.08-1.67-.13-2.38-.45-2.65l.26-1.78-.61-.25c0-1.25.07-2.52.16-3.76a42.93,42.93,0,0,0,.14-4.53h.23l-.06-.56c-.08-.82-.12-1.73-.16-2.6a21.43,21.43,0,0,0-.4-4,2.33,2.33,0,0,1,.08-.46l.66.79L157.88,45l.75.22,0-.71c0-.46-.06-.89-.48-1a.5.5,0,0,0-.39.07,8.11,8.11,0,0,1-.05-1.15l.42,0c0-.52.09-1,.13-1.33a9.18,9.18,0,0,0-.08-3.32c.66-.71.38-3.23.38-3.26l-.05-.31.21.18.15-.86a18.22,18.22,0,0,0-.16-6c-.1-.68-.2-1.33-.25-2l.73-.09-.19-2-.54.05a5.43,5.43,0,0,1,.36-1.52l.07-.18-.07-.18a.78.78,0,0,0-.5-.55c.13-.5.26-1,.38-1.36a6.6,6.6,0,0,0,.33-1.37,5.36,5.36,0,0,0-.36-3,5.08,5.08,0,0,1-.36-2.63l0-.59a1.14,1.14,0,0,0,.35-.58l.08-.27-.26-.3c.07-.4.11-.93.16-1.45q0-.19,0-.42l.74,1.28L159,7.83a2.1,2.1,0,0,0-.37-1.14l0-1.37V1.2h-.5c-1.19,0-2.21,0-3.31-.09a2.65,2.65,0,0,0-1,0l-3.44.8.78,0a3.53,3.53,0,0,1-1.1.15l-.2-.06a.57.57,0,0,0-.18-.39c-.21-.2-.49-.24-1.46-.15L148.09.7a12.26,12.26,0,0,1-4.47-.18l-.26,0-.05-.36h0a13,13,0,0,1-2,.1h-.11V.16L141,.22h-1.49l.58.36-1.05.15-.55-.1V.53l-.44,0-.52-.09a.72.72,0,0,0-.65-.12c-1.63-.28-2.09-.09-2.62.27a2,2,0,0,1-.44.24h0a3.78,3.78,0,0,1-1.09.18C132.37.5,131.28.4,130.9.45l0,.67a3,3,0,0,1-.57.18,6.25,6.25,0,0,0-2.42.08,3.32,3.32,0,0,1-.86.11l-.68-.08,0,.34h0l-.15,0-.15.06-.27.08-.24,0a6.75,6.75,0,0,1-2-.2,8.89,8.89,0,0,0-3.17-.19l-.07,0c0-.44-.32-.68-.87-.78l-.09,0-.09,0a5.83,5.83,0,0,1-2.47,0,7.58,7.58,0,0,0-2.85-.08l-1.34.19.82.52-.49.12.12.72-.44.11-.11,0L112.55,1,112.11,1a15.82,15.82,0,0,0-4.72.09,24,24,0,0,1-4.87.22l0,.44-.68,0c-.49,0-1,0-1.45,0a2.38,2.38,0,0,0-1-.55L99,1a1.73,1.73,0,0,0-.5-.29L96.75,0l.89,1.1a4.61,4.61,0,0,0-2.38.53l-1.5-.44-.1,0a8.81,8.81,0,0,0-3.72.52,11.66,11.66,0,0,1-1.47.38l-.07-.92h-.52a4.07,4.07,0,0,0-1.66.16,6.77,6.77,0,0,0-1.45.14c-.4.06-.86.13-1.26.15l0-.1a2.27,2.27,0,0,0-.35-.05,2.42,2.42,0,0,0-.86,0l-1,.14V1.24L80.47,2h0l-.25.07a2.07,2.07,0,0,0-.81.3,10.73,10.73,0,0,0-1.88-.29l.1-.51-.23.5C76.2,2,74.93,2,73.68,2L72.05,2l0-.07A.65.65,0,0,0,72,1.3C71.76,1,71.29.89,70.6,1l-.72.11.5.89a8.45,8.45,0,0,1-1.64-.25V1.57l-3.41-.36,1,.49c-1.79.09-3.43.15-4.73.18l0-.15A3.49,3.49,0,0,0,59,2.15a2.47,2.47,0,0,1-1.06.36v0A.5.5,0,0,0,57.55,2c-.49-.81-1.76-.69-3.1-.56-.52.05-1.08.11-1.61.11l-1.09-.29a9.31,9.31,0,0,0-3.5.1,19.42,19.42,0,0,1-3,.29l-.37-.26-.25.09a29.14,29.14,0,0,1-6.45.94,1.15,1.15,0,0,0-.35-.54l-.16-.16h-.23c-.58,0-.89.25-1,.7l-1.2-.75a4.34,4.34,0,0,0-2.93-.27l-.57.08L32,1.13l-.82,0a14.82,14.82,0,0,0-3.36.45A13.41,13.41,0,0,1,25.15,2l-.42-.27a3.23,3.23,0,0,0-1.16-.37l.29-.06L19,1.25c-1,0-4.5,0-5.37.51l-.82.48a22.21,22.21,0,0,1-3.09.22l-.06-.11c-.26-.39-.81-.6-1.87-.7-.39,0-1.25-.08-2.43-.1L1.89,1.48V2c0,1.17-.09,2.06-.17,2.81-.05.42-.1.8-.17,1.15,0,.18-.07.34-.11.49s-.05.21-.05.19l-.13.16,0,.22a45.9,45.9,0,0,1,0,8.21c-.1,2-.22,4-.18,6.22l0,1.68.63-1a1.34,1.34,0,0,0,.36.83.9.9,0,0,0-.24,0c-.57.1-.68.87-.75,1.29l.43.09a3.06,3.06,0,0,1,.13.43,2.12,2.12,0,0,0,.43.93L1.9,26.77l0,0-.26-.12-.53.22v.32c0,1.35-.17,1.47-.25,1.55a2,2,0,0,0-.58,1.33L0,31.42l.71-.6a7.36,7.36,0,0,1,0,1.77l.67.13a6.07,6.07,0,0,1-.27,1.15,6.28,6.28,0,0,0-.36,2.52l-.24,0c.06.57.09,1.44.12,2.44.07,2.29.15,5.08.76,6.63l-.47,0a56.69,56.69,0,0,0,.31,6.57,45.62,45.62,0,0,1,.26,6.4l-.59-.7.16,1.61a4.71,4.71,0,0,0,.19.91,3.78,3.78,0,0,1,.17,1h0A.68.68,0,0,0,1,62l0,.15c.05.24.1.46.14.68L1,64.52a24.42,24.42,0,0,0,.49,7A33.81,33.81,0,0,1,2,75.16c-.68.51-1,2.18-1.23,5L.61,80v.79A62.94,62.94,0,0,0,1.18,90c.18,1.55.36,3.15.49,4.88-.56,1.88-.6,5.08-.64,8.47,0,2.4-.07,4.88-.29,6.92l.5.06h0l.49,0a.3.3,0,0,1-.23.15.33.33,0,0,1-.28-.06,2.12,2.12,0,0,1,.29.85A6.37,6.37,0,0,0,1.6,113c0,.12,0,.26,0,.4l-.19.21c-.78.86-.76,2.65-.74,4.38,0,.37,0,.73,0,1.08v.38l.94.27q-.12.48-.21,1l-.67.11L1,122.54h.3a48.21,48.21,0,0,0,.09,5.77c.14,2.63.28,5.11-.31,6.26l-.09.16,0,.18a16.49,16.49,0,0,1,.26,1.85c0,.42.08.85.14,1.27L1,138l0,.54c-.11,2.57-.18,4.13-.14,6.67l-.31-.63,0,2.07a5.06,5.06,0,0,0,.92,2.89,4.13,4.13,0,0,1,.74,1.85l-.83.62-.16,6.85,4,.13,3,0h0a24.07,24.07,0,0,0,3.2-.2v.26c.36,0,.87,0,1.44.05,3.21.16,4.79.15,5.39-.37a17.55,17.55,0,0,0,5-.37l-.54.9,1.37-.54.79-.32a8,8,0,0,1,3.1-.73l0,.28.25,0,.45,0h0l2.48,0a5,5,0,0,0,2.63-.36l.48-.21a8.06,8.06,0,0,1,3.68.41l.35.55.45-.47a1.13,1.13,0,0,1,.35-.19l1.34.14A14.2,14.2,0,0,0,43,158a1.36,1.36,0,0,0,.64.46h0l.29.95.91-.2a34.81,34.81,0,0,1,3.91-.75l2,.21a4.66,4.66,0,0,0,1.43-.07h.12a11.85,11.85,0,0,0,1.44.13h0l-.3.2.45-.12a7.92,7.92,0,0,0,2.69.18c.36,0,.69,0,1,0h.6l-.08-.47.09-.05a.85.85,0,0,0,.44-.44l1.15,0-1.17-.38a.91.91,0,0,0-.48-.4v-.06a19.32,19.32,0,0,0,2.6.85,9.41,9.41,0,0,1,1.74.57l.16.2.27,0c.91-.09,1.9-.14,2.92-.2A43.26,43.26,0,0,0,71,158.1l-1,.54,3-.42c.61-.09,1.42-.13,2.27-.17a10.82,10.82,0,0,0,3.78-.54v0a.53.53,0,0,0,.12.25l-.2.1,1.47.27a24,24,0,0,0,8.4-.25c.87-.14,1.76-.28,2.67-.38l.17.18-.11-.19a20.75,20.75,0,0,1,6.14.17l.48.1,0-.2c3.5.24,7.12.14,10.62,0a88.59,88.59,0,0,1,13.55.34,6.31,6.31,0,0,0,3.22-.35l.6-.2.5.61,2.65-.78a11.43,11.43,0,0,1,4.09.33,13.65,13.65,0,0,0,6.16.18l1.07-.24-.21-.15h.44c.61,0,1.45,0,2,0l-.48.85,1.4-.65.16-.09a.76.76,0,0,1,.3-.14l.07.45,4.24-.61c.74.06.89.17.89.2.1.84.76,1.09,3,1.12,0,0,4.36-.49,4.49-1.49a.54.54,0,0,0-.18-.48l0,0h.14v-.14l.88-.86-.88.09v-.11a1.33,1.33,0,0,0,0-.86V151l.27.17-.27-.86V140l.78.89-.78-2.63V138l.26-1a3.4,3.4,0,0,0,.07-1.72,1.56,1.56,0,0,1,0-.69l.35-.05-.08-.51h0l-.12-.77.34.05a11.32,11.32,0,0,0-.06-3.74,2.94,2.94,0,0,1,0-1.75l-.05,0,.17,0c-.13-1.77-.27-2.15-.55-2.37a.69.69,0,0,0-.31-.13V124l.51-.66,0,1.17.3-1.62.41-.56-.28-.18V122l.07,0,0-.15.35-1.91c.27-1.49.32-1.85-.08-2.07a.54.54,0,0,0-.3-.06c0-.2,0-.5,0-.94l-.69,0c0-.78,0-1.81.22-1.94l.53-.25-.32-.49a1.16,1.16,0,0,0-.24-.25,3.86,3.86,0,0,0,0-1.65c0-.16-.05-.33-.07-.49.46,0,.56-.39.77-1.18l.07-.25-.17-.2a1.45,1.45,0,0,1-.24-1l.06,0h.08a.57.57,0,0,0,.51-.38l.52.35-.25-1.19c-.15-.75-.26-1.15-.61-1.2a5.81,5.81,0,0,0,.08-1,1.2,1.2,0,0,0,.21-.13l.17-.14v-.21c0-.63-.53-.92-.83-1.06,0-.52,0-1.18,0-1.73,0-.86,0-1.83-.07-2.72a20.37,20.37,0,0,0,.37-3.73c.09-1.27.17-2.58.27-3.51l-.33,0,.22-.38c-.32-.2-.39-1.88-.43-2.81l.73-.08V89l1,1.12Zm-.8-74.66a4.68,4.68,0,0,1-.23-1.1c0-.16,0-.29,0-.42l0,.05a2.56,2.56,0,0,0,.32,1.2ZM58.14,157.18l-.09,0h0ZM158.32,74.5h0ZM139.87,1.18a1.35,1.35,0,0,0,0,.33,1.8,1.8,0,0,1-.29.11,4.27,4.27,0,0,0-.82-.06l-.71,0h0l.51-.05,0-.42ZM81.49,2,81.3,2V1.89Zm-45.17.54a3.55,3.55,0,0,1-.76.12l-.33-.1ZM1.88,24.36a.48.48,0,0,1-.22-.05l.25.05S1.89,24.37,1.88,24.36Zm-.15,86h0Zm155.5,11.43Z"/></g></g></svg>