<svg xmlns="http://www.w3.org/2000/svg" viewBox="0 0 42.89 62.73"><defs><style>.cls-1{fill:#fff;}</style></defs><title>資產 8</title><g id="圖層_2" data-name="圖層 2"><g id="圖層_3" data-name="圖層 3"><g id="_群組_" data-name="&lt;群組&gt;"><path id="_複合路徑_" data-name="&lt;複合路徑&gt;" class="cls-1" d="M23.5,38.69H42.89v4.12H23.5V62.73H19.38V42.81H0V38.69H19.38v-7C11,30.3,5.49,24.34,5.49,16A15.75,15.75,0,0,1,21.44,0a15.75,15.75,0,0,1,16,16c0,8.39-5.57,14.35-13.89,15.72ZM21.44,4A11.7,11.7,0,0,0,9.54,16a11.58,11.58,0,0,0,11.9,11.9A11.59,11.59,0,0,0,33.35,16,11.7,11.7,0,0,0,21.44,4Z"/></g></g></g></svg>