<svg xmlns="http://www.w3.org/2000/svg" viewBox="0 0 20.25 35.9" id="fb"><title>資產 3</title><g id="圖層_2" data-name="圖層 2"><g id="圖層_3" data-name="圖層 3"><g id="_群組_" data-name="&lt;群組&gt;"><path id="_複合路徑_" data-name="&lt;複合路徑&gt;" d="M13.48,10.33h4.67V17.5H13.48V35.9H3.66V17.5H0V10.33H3.66V9.17A19.21,19.21,0,0,1,4,5.73,6.86,6.86,0,0,1,5.26,2.66,6.55,6.55,0,0,1,7.86.74,12.69,12.69,0,0,1,12.76,0a67,67,0,0,1,7.49.6L19.16,6.53a17.38,17.38,0,0,0-2.84-.29,3.22,3.22,0,0,0-1.9.44,2.51,2.51,0,0,0-.82,1.41A12.89,12.89,0,0,0,13.48,10.33Z"/></g></g></g></svg>