<svg xmlns="http://www.w3.org/2000/svg" viewBox="0 0 975.64 3.24" preserveAspectRatio="none"><defs><style>.cls-1{fill:#202020;}</style></defs><title>line_1</title><g id="圖層_2" data-name="圖層 2"><g id="圖層_3" data-name="圖層 3"><g id="_群組_" data-name="&lt;群組&gt;"><path class="cls-1" d="M975.4,2.28c.51-.08.22-.28-1.19-.24l-1,.33Z"/><path class="cls-1" d="M965.88,1.67c-1.66.16-3.58.44-2.5.75,1.65-.32,2-.19,3.82-.57,1.42,0,2.47.11,2.23.23a26.87,26.87,0,0,0,3-.13,30.59,30.59,0,0,0-6.61-.06C965.26,1.82,965.76,1.73,965.88,1.67Z"/><path class="cls-1" d="M827.58,1.15l.89,0Z"/><path class="cls-1" d="M741.89,1a3.55,3.55,0,0,0,1-.07C742.24.92,741.74.94,741.89,1Z"/><path class="cls-1" d="M727.26.61l.86,0A4.28,4.28,0,0,0,727.26.61Z"/><path class="cls-1" d="M827.58,1.15l-2.29-.1A10,10,0,0,0,827.58,1.15Z"/><path class="cls-1" d="M946.81,2.47c.48,0,.88-.05,1.25-.09l-1.17,0Z"/><path class="cls-1" d="M865.35.89h.7c.21,0,.4-.09.58-.14Z"/><path class="cls-1" d="M894.35.83a1.79,1.79,0,0,0-1.14.4,5.84,5.84,0,0,1,1.43-.2C894.65,1,894.56.92,894.35.83Z"/><path class="cls-1" d="M940.31,1.33l.82,0Z"/><path class="cls-1" d="M844.6.82a.74.74,0,0,0-.26-.1S844.44.79,844.6.82Z"/><path class="cls-1" d="M33.74,2.94s0,0,0,0C33.57,2.92,33.52,2.94,33.74,2.94Z"/><path class="cls-1" d="M.14,1.54H.6a.28.28,0,0,0,.1-.16Z"/><path class="cls-1" d="M700.48.25h.12C701.3.22,700.9.23,700.48.25Z"/><path class="cls-1" d="M454.67.45c2.79.26-4.53.33-.34.61C453.94,1,458.14.62,454.67.45Z"/><path class="cls-1" d="M946.06,2.43h0Z"/><path class="cls-1" d="M454.33,1.06h0l.44,0Z"/><path class="cls-1" d="M638.79.42a3.77,3.77,0,0,0,.62.12S639.25.48,638.79.42Z"/><path class="cls-1" d="M684.75.82l-1.14,0Z"/><path class="cls-1" d="M614.92.81a14.71,14.71,0,0,0-1.67,0l.26,0A8.7,8.7,0,0,1,614.92.81Z"/><path class="cls-1" d="M590.08.81c.13,0,.31,0,.46.06h.79Z"/><path class="cls-1" d="M109.23,2.8a6.27,6.27,0,0,1-1.15-.25C108.46,2.75,104.81,2.82,109.23,2.8Z"/><path class="cls-1" d="M946.8,2.31a1.88,1.88,0,0,1-.74.12h.83C947,2.37,947,2.34,946.8,2.31Z"/><path class="cls-1" d="M613.91,3,610,3C611.07,3,612.5,3,613.91,3Z"/><path class="cls-1" d="M287.42,2.76l-.9,0A7.71,7.71,0,0,0,287.42,2.76Z"/><path class="cls-1" d="M598.25,3A21.86,21.86,0,0,0,596,2.84a4.12,4.12,0,0,0-.46.07Z"/><path class="cls-1" d="M108.07,2.55h0Z"/><path class="cls-1" d="M82.08,3.21c3.76,0,1.76-.36,2.56-.57,4.49-.1,2.08.27,3.61.46,2.8-.1,5-.44,7-.42.15.06.56.08.08.16,3-.3,8.8,0,12.25-.39a1.9,1.9,0,0,1,.45.1c-.56-.19-.64-.38-.53-.51a17.86,17.86,0,0,1,3.76,0,6.1,6.1,0,0,0-1.6.16l1.77-.1c1.59.35-2.41.12-2.41.38,3.44-.12,7.46-.4,10.09-.31.56.34-6.17.12-2.65.42l-4.08-.13c3.12.54-2.48,0,.39.54,5.37.09,6-.18,11.37-.08,1.21-.19-.4-.28.81-.47,7.62-.34,6,.86,11.6.41a17.15,17.15,0,0,1,6-.43l-1.36.38c5.2,0,3-.55,8.42-.29-1,.15-4.09.12-3.31.17,3.54.3,2.5-.22,5.22-.22l.56.34c5.54,0,11.64-.3,17.77-.36-.34.1-1.39.21.05.31,7.74-.17,16.52,0,24,.25l2.85-.3c.66,0,1.23.13.51.19,2.91.11.15-.18,1.55-.3,1.66,0,2.19.17,1.14.26,5.13-.25,14.62-.54,20-.22L219,2.73c4.21.12,4.75-.6,8.65-.33l-.74.06c9.13.12,19.24-.15,26.21.3,1.33-.42,9.05.19,9.63-.4,5.22.29,3.73.39,11.08.59,2,0,2.92-.37,5.35-.43l.06.31,3.3-.32,1.75.36,2.28-.07c-.91,0-1.93-.14-1.79-.23a52.45,52.45,0,0,1,8.75.37l8.41-.26a18.3,18.3,0,0,1-2.71.25c4.49-.32.82.32,4.94,0-.56-.07.29-.18.39-.24,2.05.18,6.72.18,10.17.11L314,3c6.24,0,13.15-.1,20.16-.1-2.52-.1-1.94-.47.11-.5l.83.32c1.32-.2-2.15-.12.57-.37,2.62,0,1.76.37.26.48l3.18-.11c.19.09-.56.15-.75.27,1.3-.2,5.49.33,7.37,0l.18.09c7,0,10.17-.11,15.88-.12.11-.28,2.34-.22,4-.45,4.19.09,8.84.31,13.89.29,3.55-.14,1-.24,2.63-.41.26.26,5.3.23,2.69.42,6.06,0,7.74-.05,15.4-.26-.83-.11-1.76-.15-1.28-.24a9,9,0,0,1,3,.23l-.37,0c8.6-.39,19.85.75,26.71.21l-.39,0,7.11-.28c3.26,0-2,.19.45.35,7.67-.43,12.11.06,18.42-.22,4.89.75,17.34-.06,23.93.43l-.38-.18a15.34,15.34,0,0,1,3.32.14c-.18-.14-1.85-.16-.79-.26,14.43-.21,29.79.26,44.59.43,5.42,0,3.08-.93,9.9-.5l-1.94.33c10.93-.4,22.34,0,33-.32a8.47,8.47,0,0,1-1.7.17,47.46,47.46,0,0,0,8.4-.18c1.66,0,.38.17,1.41.27,2.26.15,5.68-.3,6.89-.06.2,0-.64.07-1,.09,1.47-.11,6.88,0,5.46-.24,4,.13,7.68-.13,10.88,0,2.09-.31,6.87.15,7.54-.29-.29.45,7,.36,9.57.15-.85.14,2.21.14,1.21.33,2.9,0,5.55-.09,5-.32,5.33.54,10.72-.44,13.73.26,8.6-.25,16.56-.41,24.3-.52-.28.45-8.56,0-8.22.52,7.34-.19,11.57-.57,18.85-.46,1.89.06-1.07.19-1.7.27,7.33-.19,14.18,0,20.7-.21a7.94,7.94,0,0,1-1.38.13c1.28,0,3,.06,2.84-.14l-1.25,0c-2-.29,5.11-.62,5.34-.77-2.19.58,6.44.14,3,.89.84,0,1.9-.14,1.71-.28,1.26,0,1.65.12.38.28,4.61-.11,3-.33,7.15-.33a8.91,8.91,0,0,1-1.29.26,58.71,58.71,0,0,1,7.76-.31c-.21.06.2.14-.85.14,6,0,10.32-.51,17-.33-2,.43,2.26.14,2.61.52l3.57-.11-1.43-.18c3.13,0,5.9-.27,8.59-.15l-2.33.16,5.87-.08L741,2.18c3.16-.19-.34-.47,3.82-.37-.84,0,3.14,0,4.77.23h0A42.51,42.51,0,0,1,755,1.89c.6.12-.48.41-.09.49,1.53-.31,7.33-.09,9.27-.42-.65.08-.68.28-.47.32L765,2c1.45.08,1.67.12,1.43.28,4.36.05-1.39-.47,3.79-.27-.41,0-.21.06-1.06.1,5.2.1,10.05-.16,14.83,0,1.41.38-4.18.09-2.56.41,6.88-.07,14.26-.45,20.93-.36l-1.25,0c.93-.53,5,.26,8.34,0-.83,0-1.08.29-.86.23,4.57.09,9.33-.13,16.25-.29l-.86.13c2.69.12,7.09.07,10,.13.86-.13,2.52-.11,1.51-.31,9,.78,17.09-.41,25,.23-.95,0-2.26.12-1.51.12l6.78-.12a9.86,9.86,0,0,0-2.31-.32,34.84,34.84,0,0,1,4.44-.25c-3,.16,0,.38,1.35.5-.23-.07.23-.14.11-.22,3.54.41.6-.46,5.43-.18l-.26.12c1.81-.07,3.47-.23,5.42-.19.81.27-1.92.12-2,.34,2.73,0,5.4-.5,7.88-.24-1.17.08-2.84.08-4,.15a36.27,36.27,0,0,0,5,.29h-.19l4.63.14-1.18-.08c3.43-.7,7-.13,11.59-.59-4.48.44-.74.25-1.08.56,1.18.08,3,.17,2.46.26,2.18-.24,3.64.19,6.72-.16.14.09,2.33,0,1.84.25,2.84-.08-.67-.17-.43-.29,4.37-.34,10.28.4,16.56-.06,5.43-.18,6.43-.51,11.46-.68,1.7.16-1.39.36-1.39.36a69.86,69.86,0,0,0,7.38,0c-.52.09,0,.16.81.27,2.07,0,1.38-.35,4.11-.21a14.37,14.37,0,0,1-2.06.39c2.44-.09,4.85-.27,7.38-.36.67.17-1.53.26-2.42.37A76,76,0,0,0,961.26,2l-1.82-.1c1,0,.53.23-.24.28-2.43.21-3.51-.09-3.64-.19l1.8-.06c-1.85-.57-7.24.09-10.86.06L948,1.54l-3.72.35c-.79-.11-1.33-.35.46-.41-2.59-.2-2.3.15-4.53-.08-.24,0-.13,0,.09-.07l-2.53.12c.49-.08-.43-.29,1.13-.23-4.55-.24-7.34.31-9.06,0l.38,0c-6.32.14-.61.31-5.35.66l-3.19-.75-.62.31c-.66,0-2,0-1.71-.16-2.42.21.42.13-1,.33-3.14-.28-8.66.13-9.36-.36-1.13.24,3,.18-.35.34-1-.52-3.88.09-6.75-.15.89-.27,3.6-.12.73-.36-1.73.45-5.58-.1-8,0-.11.37-5.26.16-9.32.28.26-.13-7.64-.2-11.41-.33L874,.91c-.73.37-4.63.3-7.46.38.11-.22.62-.31,2.16-.41h-2.67a23.52,23.52,0,0,1-3.19.22l.67-.28c-3.55,0-7.14.33-11.71.14-.26.26,3.63.72-1.2.89-.18-.14-.35-.38.91-.44a19.24,19.24,0,0,1-2.31.06l1.93-.23c-2.08-.1-1.09.19-2.75.17,0-.2-1.23-.14-1-.3.42,0,1.45.08,2.08,0A43.06,43.06,0,0,1,844.6.82c.17.12,0,.27-1.37.3-3.55,0-1.21-.24-3.28-.34-.86.13-3.13,0-3.19.29a5.12,5.12,0,0,1-1.63-.22c-1.83.13-8.57,0-6.5.35l.47,0h-.3c-6,.3-12.51-.16-18.48,0v-.1c-3.57.12-7.93.07-10.48.28-1.06,0-2.49-.18-2-.3a64.94,64.94,0,0,1-7,0c2.74-.18-.94-.16,2.81-.13a63.31,63.31,0,0,0-8.14,0c1.29-.26-2.67-.32-4.35-.25l2.48.19c-1.89,0-3.55,0-5.23,0l.91-.33c-7.25-.41-13.07.68-18.58,0-1.92.23,3.93.16,2.22.43-3.34,0-6.81-.52-7.85-.52-4.57-.18-4.26.49-9,.36.61.12,1.19.43-2.38.55-3.34-.05-4.1-.5-2-.6.8,0,1.19,0,1.15.07,1.08,0,2.5-.09,1.18-.22l-.44.12c-1.65-.12-6.24-.11-5.16-.31-2.52.12-1.08.2.79.26-4.28-.17-6.69,0-11.09-.12.7.07,1.34.2.65.2-6.46-.14-2.85.23-7.22.28-2.49-.18.89-.43-3.52-.28-2.69-.12-.57-.31.5-.41-4,.23-7.5-.15-9.79-.19l2.11-.1c-1.26.06-2.3.06-3.35.06l1.21.23a10.28,10.28,0,0,1-2.27-.14c-1.28.16,1,.4-1.56.61-1.66-.12-5,.13-5.61-.19,5.2.11-.58-.31,3.83-.36-.85,0-1.89,0-3.14,0-.18,0,.18-.06.52-.08-5-.28-2.29.35-7.45.35.65-.18-1.2-.34-2-.3,2.08,0,1,.29-.91.43-3.31-.14-3.6.1-5.33.09l2,.06a32.67,32.67,0,0,1-4.63.21c-.2-.14,2.1-.09,1.27-.15-2.56.31-5.78-.33-9.36-.12-1.65-.12-.16-.33-1.61-.41-4,.23-4.34-.25-8.54-.06,1.21.24,1.42.18-1.54.42L669.23.6,664.79,1c2.08,0,4.4-.15,5.65-.11-2.11.19-1.9.13-.9.33-2.85-.36-5.66.21-9,0l.1-.59c-5-.27-8.82.3-15.27.15l2.07.1c-.86.24-4,0-6.06.13.19-.2-1.11-.27-2-.39.11.15-4.71,0-5.3.38L631.23.66c-5.2-.11-5.94.56-10.94.5,1.51-.22-.77-.36,2.58-.51a15.3,15.3,0,0,0-3.2.1c-1-.13-4.63.26-6.16.07a10.8,10.8,0,0,1-2.81.28c-.21,0,0-.1,0-.1s-2.93.14-1.29.36C604.26.74,595,1.4,590.54.87c-3.64.07-8,.13-11.35.15.21-.06,0-.1.64-.08-4.57-.19-2.81.56-8,.36-2.66-.32,2.76-.17,1.1-.29-.72-.65-6.27.08-9.77-.29l.85,0c-2.67-.22-6.52.24-10.89.2,0,0,.22-.06,0-.1-3,.33-8.64.44-12.84.53,1.31-.25,1.91-.13,1.11-.39-1.88,0,.55.41-3.21.49-1.22-.14-3.93-.26-4.29-.54l3.55,0c-1.82-.35-4.59,0-6.46,0l.24-.15c-5.44,0-5.51.44-11.35.41l.6.12c-3.19.39-2.67-.22-5.86.07l-1-.39c-2.11.09-7.38.38-11.15.45,2.14-.29,6.56-.44,9.29-.61-2.09,0-7.09,0-8.18.22a25,25,0,0,1,2.73-.07,85.84,85.84,0,0,1-10.09.45c.74-.76-10.84-.19-13.86-.78C475.07.8,467.83.4,459.25.44c3,.6-2.5,0-2,.63a26.25,26.25,0,0,1-2.94,0l-6-.37c-1.43-.17,1.9-.13,1.72-.27-4.37,0-1.84-.26-4.73-.42.59.22-1.52.31-4,.23l3.51.28C438.67.84,439.5,0,433.34.32l2-.19c-3.16.11-11.66,0-14.76.49-.56-.08-1.3-.24.09-.29-7.55-.07-16.81.53-22.68.22l.58-.15a26.82,26.82,0,0,1-4.22.13c.09-.06.57-.14-.08-.15s-3.75.26-5.61.17L390.2.38c-7.36-.19-11.3.41-17.48.52,0-.44-5.78-.59-8.67-.66l.1-.06c-8.58-.06-14.57.36-22.52.54C336.7.24,324.93.52,317,.25c1.21.08-.2.34-1.61.39-1.86-.09-5.14.3-4.84-.1h.66C309.82.15,306,.25,303,.24l-.49.53c-7.81-.77-20.45.28-24.71-.4-1.88.13-4.22.13-6.09.26l.11-.28C266.61.27,264,.24,257.55.3l1.32-.2c-3.64,0-4.6.82-8,.84l-1-.43c-6.35,0-12.78-.36-19,0,.1-.06.29-.18,1.32-.2-3,0-11.56-.29-10.48.29-.07-.37-6.55,0-10,.13l.53-.27a48.26,48.26,0,0,1-7,.55c-1,0-.84-.23.44-.15-3.2-.15-2.49.26-6.36.11l1.44-.18a24.37,24.37,0,0,0-4.83.28,32.88,32.88,0,0,1-6.71-.32,16.4,16.4,0,0,1-4.18.29c-.26-.1.45-.16.8-.18-5.49-.19-8.16.32-11.94.05-.07-.1-.32-.14-.63-.17,4.36,0,7.87,0,7.54,0,0-.26-3.52-.3-.72-.65-2.83.19-7.66.61-11.1.49a4,4,0,0,1-.45-.09l.35,0c-.79,0-1.5,0-2.17,0-1.09,0-1.79-.07-2.84-.07a45.34,45.34,0,0,0-5.8-.13c.15.28-2.15.24,0,.47a6.29,6.29,0,0,1,1.5,0c.27,0,.58,0,.75,0l-.12,0,4.37,0a25.06,25.06,0,0,1-4.78.11c-.9.18-1.89.36-2.45.45-2.41-.39-7-.6-7.69-.85-5.36.16-12.63.11-16,.64a6.77,6.77,0,0,1-2.33-.24c.88-.05,1.93,0,2.41-.12-3,.14-9,.05-9.76.42-3.85-.16,2.16-.34-3.12-.28l.71-.11c-10.39-.59-16.89.94-28.41.19a6,6,0,0,1,1.36.13c-13.13-.34-27.06.31-40-.22a36.13,36.13,0,0,0-6.33.31l-.8-.3-3.84.34C38.08,1.49,34.09.49,27.19,1l.89.2c-2.48,0-7.85.12-7.44-.12a5,5,0,0,1-1.78.11L18.79,1l-6.09.27C8,1.17,13.44.66,6.55.63,4,.69-.73,1.09.23,1.19a9.61,9.61,0,0,1,2.71.26L.6,1.53C.18,2-1.62,2.47,4.12,2.8l4-.29,1.29.23H6.05a18.4,18.4,0,0,0,4.48-.1,6.61,6.61,0,0,0,1.68.25l3.93-.45c.47.18-1.76.36.87.46,1.84-.2-1.76-.4,1.29-.54a10.64,10.64,0,0,0,3.6.2c.32.12-.16.2-1,.25,2-.14,5.3-.06,6.33-.31,2,.27,6.76-.06,6.56.38.63-.11,3.52-.35,5.36-.37-3.36.53,6.88,0,6,.6,2.48-.47,9-.21,13.38-.47a6.85,6.85,0,0,1-1.12.09c2.48,0,3.2.18,4.79.27.32-.39,4.18-.48,6.26-.73,3,.38-1.85.46-.89.83-.16-.32,5.27-.32,4.24-.58A13.68,13.68,0,0,1,75,3c.41-.49,2.16-.08,4.09-.38,3.36.24.86.46,4.56.31C85.36,3,82.08,3.21,82.08,3.21Zm87.83-.84h0l-1.82,0Zm7.38,0h-3.21c-.25-.1,0-.2.77-.19A15.23,15.23,0,0,0,177.29,2.36ZM161.67.41a5.48,5.48,0,0,1,1.72.08l-2,0-.14,0A1.45,1.45,0,0,1,161.67.41Z"/><path class="cls-1" d="M159.57.78l-.48,0,.7.07.41-.09Z"/><path class="cls-1" d="M828.63,1.2h-.16l.33,0Z"/><polygon class="cls-1" points="279.2 2.9 279.19 2.83 278.55 2.89 279.2 2.9"/><path class="cls-1" d="M869.28,2.16a2.52,2.52,0,0,0,.53.08A2.89,2.89,0,0,0,869.28,2.16Z"/><path class="cls-1" d="M886.83,2.23l2.49.1C888.24,2.27,887.46,2.24,886.83,2.23Z"/><path class="cls-1" d="M900.34,2.37a.78.78,0,0,0,.26-.12h0Z"/><path class="cls-1" d="M685.68,2.7h-.52C683.93,2.76,684.76,2.74,685.68,2.7Z"/><path class="cls-1" d="M749.56,2c-.68,0-1.35.1-2.06.13C748.64,2.19,749.52,2.2,749.56,2Z"/><path class="cls-1" d="M614.34,3s0,0,0,0h0Z"/><path class="cls-1" d="M744.53,2.17c1.14.05,2.09,0,3,0C746.57,2.15,745.47,2.13,744.53,2.17Z"/><path class="cls-1" d="M958.85,2.49l.65,0s0,0,.08,0Z"/><path class="cls-1" d="M959.58,2.46l.72,0A4.14,4.14,0,0,0,959.58,2.46Z"/><path class="cls-1" d="M961.82,2.36l-1.52.07A8.65,8.65,0,0,0,961.82,2.36Z"/><path class="cls-1" d="M941,2.36l-.21.11C940.88,2.45,941,2.41,941,2.36Z"/><path class="cls-1" d="M935.55,2.39c1.29,0,3.25.22,5.05.16l.17-.08C939.92,2.62,936.78,2.22,935.55,2.39Z"/><path class="cls-1" d="M912.88,1.13l4.55.09c-.8-.11-1.84-.26.23-.29C911.92.61,918.84,1.18,912.88,1.13Z"/><path class="cls-1" d="M898.77,1c2.44,0,0-.16.1-.22C897.32.86,896.94.88,898.77,1Z"/><path class="cls-1" d="M796.79,1,797,.72C795.15.76,797,.82,796.79,1Z"/><polygon class="cls-1" points="777.29 2.3 779.13 2.46 780 2.22 777.29 2.3"/><polygon class="cls-1" points="765.77 0.47 766.6 0.44 763.45 0.53 765.77 0.47"/><path class="cls-1" d="M594.5.57l.57.31C596.34.82,596.61.47,594.5.57Z"/><path class="cls-1" d="M520.56.89a17.89,17.89,0,0,0-4.17-.11C518.06.8,519.71.93,520.56.89Z"/><polygon class="cls-1" points="298.81 0.37 300.3 0.27 297.5 0.36 298.81 0.37"/></g></g></g></svg>