<svg xmlns="http://www.w3.org/2000/svg" viewBox="0 0 156.98 49.68"><defs><style>.cls-1{fill:#fff;}</style></defs><title>資產 2</title><g id="圖層_2" data-name="圖層 2"><g id="圖層_3" data-name="圖層 3"><g id="_群組_" data-name="&lt;群組&gt;"><g id="_群組_2" data-name="&lt;群組&gt;"><path class="cls-1" d="M17.46,28.91l.47-2.69,2.16.14,1.25-7.13-2.2.15.19-1.13,2.34.15,1-5.55,1.27,3.76H22.57L20.39,29H38l2.18-12.42H27.92l2.79-4.92-.31,4.24,9.82.22L43.47.66H25.18L23.92,7.71h1.42L22.9,10.8,18.41,11l.23-1.31,4.15.14,1.32-7.45-4.21.15L20.47.05H11.6l-.28,2.43L7.09,2.33,5.78,9.78l4.28-.14-.24,1.3-5-.14L3.49,18.4l7.81-.15L9.45,28.76l-1,0,2.08-9.56-6.2-.47L0,36.14l6.44.8L6.71,36,36.83,37.2l1.6-7.86Zm12-6.63h1.89l-.17.92H29.27ZM33.05,7.71h1.63l-.49,1.35L32.28,9Z"/></g><g id="_群組_3" data-name="&lt;群組&gt;"><g id="_群組_4" data-name="&lt;群組&gt;"><path class="cls-1" d="M78.64,8.14l1-5.63-3.47.11L77.1.76,67.27,0l-.82,2.58H64.89L66,.73,56.47,0l-4.9,10-7.3-2.69L41,14.76l8.89.51,1.68-3.13,2,.7-.92,5.45-2.19-3.06-9.71,4.33,2.35,4.84-3.39-.15-1.34,7.6,14.34-.11L51.7,36.8h9.52L62,31.71l13.06.18,1.29-7.31-13.11.11.13-.73,12.79,0,.92-5.2-4.76,0,.1-.54,3.62.29.88-5-3.7.14.1-.54,3.65.15.86-4.88-3.7.15L74.23,8ZM54,24.69l-6.41-.15,4.7-4L51.67,24h2.47Zm9.38-5.93-1.5,0,.1-.58h1.49Zm.9-5.13H62.8l.09-.5,1.5,0Zm.9-5.12H63.7L63.8,8h1.49Z"/></g><g id="_群組_5" data-name="&lt;群組&gt;"><polygon class="cls-1" points="54.58 3.53 47.23 0.07 43.79 7.02 52.32 8.33 54.58 3.53"/></g></g><g id="_群組_6" data-name="&lt;群組&gt;"><path class="cls-1" d="M82.78,9.42,78,16.29l-1.85,14L78.37,27l-1.61,9.09H89.42l2.5-14.22L92.85,23,90.37,36.91h20.94l1.18-6.69-3.37.14.09-.54,2.38.14.9-5.09L110.1,25l.09-.51,2.33.14.91-5.16-2.42.14.1-.54,3,.14,1.17-6.61-2.17.14.78-1.12h1.85l1.73-9.79h-5.68l.77-1.27L102.91,0l-.58,1.85H95.71l.19-1H81L79.47,9.42Zm24.58-.88h.84L108,9.82l-1.35-.22Zm-1.8,2.59-.5,1.6h-.61Zm-3.76,8h1.49l-.1.54H101.7Zm.57,5.42-.09.51h-1.53l.09-.51Zm-2.17-16h.62l-.79,1Zm-.29,21.28h1.49l-.1.54H99.81ZM91.18,9.42h1l-.39,2.22h5l-4,5.16.47-2.69-4.91,0Zm-5.86,13.2H86l-.93,5.23H84.4Z"/></g><g id="_群組_7" data-name="&lt;群組&gt;"><polygon class="cls-1" points="118.86 24.36 113.81 32.43 122.21 36.51 127.27 28.43 118.86 24.36"/></g><g id="_群組_8" data-name="&lt;群組&gt;"><polygon class="cls-1" points="142.89 4.62 133.56 0.18 120.72 22.73 128.1 26.22 142.89 4.62"/></g><g id="_群組_9" data-name="&lt;群組&gt;"><polygon class="cls-1" points="142.19 26.22 156.98 4.62 147.65 0.18 134.81 22.73 142.19 26.22"/></g><g id="_群組_10" data-name="&lt;群組&gt;"><polygon class="cls-1" points="132.96 24.36 127.9 32.43 136.3 36.51 141.36 28.43 132.96 24.36"/></g><g id="_群組_11" data-name="&lt;群組&gt;"><path class="cls-1" d="M4.53,40.5,3,40.11a18.69,18.69,0,0,1-2.6,4.25c0,.63,0,1.31,0,2,.27-.32.48-.55.64-.71a1,1,0,0,0,.15-.2l-.71,4H2.07l1.19-6.78C3.74,42,4.16,41.23,4.53,40.5Z"/></g><g id="_群組_12" data-name="&lt;群組&gt;"><path class="cls-1" d="M8.94,44.32l-1.53.39c.06.43.13,1.1.24,2,.08.69.15,1.19.2,1.5l1.62-.47c0-.24-.1-.67-.2-1.3Z"/></g><g id="_群組_13" data-name="&lt;群組&gt;"><path class="cls-1" d="M7,40.38l-1.57-.24a12.24,12.24,0,0,1-2.26,3.43l.47.48.53.55c-.51,1-1.07,2-1.67,3l1.32.55c0,.13,0,.33,0,.59s0,.58,0,.71c.21,0,.51,0,.91,0h.51A1.53,1.53,0,0,0,6.8,48l.83-4.73H6.06l-.77,4.33a.46.46,0,0,1-.55.47H3.91c.31-.55.79-1.45,1.46-2.71l.35-.63-1.23-.4a10.49,10.49,0,0,0,1.14-1.54H8.54L7.9,43.93l1.44.31.84-1.61.24-1.34H6.52A6,6,0,0,0,7,40.38Z"/></g><g id="_群組_14" data-name="&lt;群組&gt;"><path class="cls-1" d="M20.2,47.32c-.06.47-.3.69-.71.66s-.87,0-1.26,0c0,.52.06,1,.05,1.53.63,0,1.17,0,1.62,0a1.58,1.58,0,0,0,1.78-1.57L23,40.18H21.45Z"/></g><g id="_群組_15" data-name="&lt;群組&gt;"><path class="cls-1" d="M17.76,46.84,18,45.46H16.31l.13-.75H15l-.13.75H13.16l-.25,1.38h1.7l-.16.91-1.95.08-.14,1.49,5.23-.39.11-.63c.09-.34.14-.6.18-.79l-1.95.12.13-.79Z"/></g><g id="_群組_16" data-name="&lt;群組&gt;"><path class="cls-1" d="M19.61,47.08l1-5.79H19.21l-.5,2.83c-.47-.92-.83-1.64-1.07-2.16l-1.22.63.19.47-1.15.08,1-1.22h2.32l.25-1.42h-5.2l-.25,1.42h1.23a15.07,15.07,0,0,1-1.07,1.34,1.38,1.38,0,0,0-.28,0h-.2l0,1.53q.77-.12,3.42-.39a4.41,4.41,0,0,1,.51,0l.26.59,1.22-.67-.49,2.76Z"/></g><g id="_群組_17" data-name="&lt;群組&gt;"><path class="cls-1" d="M32.14,40.14H30.48l-.13.75H26.61L26,44.56a8.3,8.3,0,0,1-1.41,4l.57.55.54.51a8.61,8.61,0,0,0,1-2L27,48.69l.33-.11.34-.12-.18,1h3.27L31,48.14H28.84l1.82-.51a4.38,4.38,0,0,1,0-1.26l-1.63.51.14-.79H31a6,6,0,0,0,.2,2.21c.26.76.7,1.13,1.31,1.1a1.58,1.58,0,0,0,1.45-1.06q.18-.39.51-1.38a.22.22,0,0,0,.06-.12l-.22-.08-.91-.39q-.12.43-.36,1.14a.57.57,0,0,0-.07.16.23.23,0,0,1-.15.2.18.18,0,0,1-.13-.16,3.59,3.59,0,0,1-.19-1.62h2l.23-1.3H32.62l.11-.82a8.52,8.52,0,0,0,.92-.08c.47,0,.83,0,1.07-.08l-.16-1.3q-2.84.2-6.27.27l-.81,4.57-.75.24a22.41,22.41,0,0,0,.67-2.91l.43-2.45H35.2l.24-1.34H32Zm-2.59,3.94h.79l.88,0-.1.74H29.43Z"/></g><g id="_群組_18" data-name="&lt;群組&gt;"><path class="cls-1" d="M39.69,40.46l-.71,4h7.48l.71-4Zm5.39,2.92H40.75l.07-.4h4.33ZM45.32,42H41l.07-.36h4.33Z"/></g><g id="_群組_19" data-name="&lt;群組&gt;"><path class="cls-1" d="M37.71,46.09h4L41.42,48a1.43,1.43,0,0,1-1.16-.78,1.66,1.66,0,0,1,.09-.28l.22-.59-1.42-.2a3.21,3.21,0,0,1-2,2.41c.27.39.54.76.79,1.1a4.85,4.85,0,0,0,1.52-1.22c.34.58,1.29.86,2.84.86l2.2,0h1.77a10.11,10.11,0,0,1,.57-1.22H42.94l.08-.47h3.12l.2-1.14H43.23l.07-.44h3.86l.22-1.26H37.93Z"/></g><g id="_群組_20" data-name="&lt;群組&gt;"><path class="cls-1" d="M54.46,40.14H52.73a8.75,8.75,0,0,1-2.49,3c.36.34.71.71,1.06,1.1a11.33,11.33,0,0,0,1.56-1.69l-.58,3.31h1.61L54,45.5h4.77l.21-1.22H54.16l.08-.43h4.49L59,42.63H54.46l.07-.4h5l.23-1.3H54A7.18,7.18,0,0,0,54.46,40.14Z"/></g><g id="_群組_21" data-name="&lt;群組&gt;"><path class="cls-1" d="M56.83,46.37a1.53,1.53,0,0,0,.1.31l.23.71c-.42-.13-.87-.28-1.33-.47,0,.13-.06.19,0,.16a4.86,4.86,0,0,1-.22.55.54.54,0,0,1-.63.47H53.77c-.43,0-.59-.17-.49-.59l.26-1.5H52l0,.24-1.36-.35c-.39.89-.79,1.74-1.2,2.56l1.26.47c.42-.76.85-1.65,1.3-2.68l-.3,1.66c-.2,1,.23,1.48,1.28,1.45h2.21a1.51,1.51,0,0,0,1.61-.86,5.81,5.81,0,0,0,.46-1,7.68,7.68,0,0,0,.48,1.26l1.45-.59c-.31-.81-.61-1.6-.92-2.36Z"/></g><g id="_群組_22" data-name="&lt;群組&gt;"><path class="cls-1" d="M54.58,47.71l1.34-.87a6.92,6.92,0,0,1-.53-.79A6.54,6.54,0,0,1,55,45.5l-1.32.79C54,46.76,54.3,47.24,54.58,47.71Z"/></g><g id="_群組_23" data-name="&lt;群組&gt;"><path class="cls-1" d="M64.62,45.9a2.51,2.51,0,0,0,.85-1.66l0-.27h-.71l0,.19a1.52,1.52,0,0,1-.66,1.3A1.42,1.42,0,0,1,64.62,45.9Z"/></g><g id="_群組_24" data-name="&lt;群組&gt;"><path class="cls-1" d="M67.81,43.93l-.65.12q0,.47,0,1.14l.65-.12Q67.84,44.4,67.81,43.93Z"/></g><g id="_群組_25" data-name="&lt;群組&gt;"><path class="cls-1" d="M71.42,44.68l0,.23c0,.08-.09.12-.14.12h0s-.07,0-.06-.12l.17-.94h-.63l-.2,1.14c-.06.31.07.47.39.47h.35a.57.57,0,0,0,.58-.39,3.9,3.9,0,0,0,.16-.67,1.62,1.62,0,0,1-.45-.16S71.47,44.52,71.42,44.68Z"/></g><g id="_群組_26" data-name="&lt;群組&gt;"><path class="cls-1" d="M68.12,45.74a2.33,2.33,0,0,0,.78-1.54l0-.23h-.71l0,.19a1.52,1.52,0,0,1-.6,1.19,1.07,1.07,0,0,1,.21.15Z"/></g><g id="_群組_27" data-name="&lt;群組&gt;"><path class="cls-1" d="M68.87,40.14H67.25l-.12.71H63.5l-.65,3.71a9.49,9.49,0,0,1-1.42,4c.43.39.8.74,1.12,1.06a12.87,12.87,0,0,0,1.7-5l.45-2.57H66l-.09.52h-1.1l-.19,1.06h1.1l-.32,1.85-1,.83,1.36,1.22c-.4.21-.78.39-1.12.55l-.6,0h-.55l.08,1.14,5.72-.27.24.43L71,48.85c-.43-.58-.9-1.18-1.42-1.81l-1.2.59a1.62,1.62,0,0,1,.28.39l-1.75.08c1.65-.81,2.75-1.39,3.3-1.73l-1-.67c-.8.5-1.49.91-2.07,1.22l-.34-.31a9,9,0,0,0,1-.52L68,46l-1-.67-.3.15L67,43.69h1l.18-1.06h-1l.09-.52h2.21l-.09.52h-1l-.19,1.06h1l-.35,2h1.26l.35-2h1.26l.19-1.06H70.68l.09-.52h1.34l.22-1.26H68.74Zm-2.73,5.64-.26.16-.31-.28h.83Z"/></g><g id="_群組_28" data-name="&lt;群組&gt;"><path class="cls-1" d="M83.75,40.38l-1.28-.31a11,11,0,0,1-.83.9H81c-.18-.31-.34-.6-.48-.86l-1.31.27a1.66,1.66,0,0,0,.27.51l0,.08H78.37L78.18,42h2.25l-.06.31h-2l-.16.91h2l0,.31H77.75l-.18,1.07h2.24l-.3.39a2,2,0,0,0,.3.08l.45.12H78.13l-.18,1h1.77L79.41,48a.4.4,0,0,1-.42.4h-.55a3.81,3.81,0,0,0,.8-1l.17-.94H77l-.17,1h1.06a3.29,3.29,0,0,1-1.66,1,3.24,3.24,0,0,1,.34.55,4.16,4.16,0,0,0,.23.47,7.55,7.55,0,0,0,1.55-1,2.41,2.41,0,0,1,0,.31c0,.32,0,.57,0,.75.39,0,.8,0,1.23,0a1.22,1.22,0,0,0,1.24-1.22l.09-.51a4.54,4.54,0,0,0,1.62,1.54l.27-.4.61-.79a4.92,4.92,0,0,1-1.18-.71l.54-.35.9-.63-.71-.91a3.43,3.43,0,0,1-.45.32c-.42.31-.75.55-1,.71a2,2,0,0,1-.28-.63l.05-.32.67.24.49-.79a9,9,0,0,0-1.31-.39h2.72L84,43.57H81.58l0-.31h2l.16-.91h-2l.06-.31h2.24L84.28,41h-1.1C83.37,40.76,83.56,40.56,83.75,40.38Z"/></g><g id="_群組_29" data-name="&lt;群組&gt;"><path class="cls-1" d="M76.91,46.33l1-1.3c-.34-.32-.69-.63-1.05-1l.15-.86h.83l.24-1.38h-.83l.31-1.73H76.16l-.31,1.73h-.94l-.25,1.38h1a13.49,13.49,0,0,1-1.42,2.24c0,.32,0,.83-.07,1.54a5,5,0,0,0,0,.67c.37-.47.7-1,1-1.42l-.59,3.31h1.42l.65-3.7A3.82,3.82,0,0,1,76.91,46.33Z"/></g><g id="_群組_30" data-name="&lt;群組&gt;"><path class="cls-1" d="M94.57,41c.12-.24.21-.42.26-.55l-1.52-.35a24.25,24.25,0,0,1-1.73,3.15l.29-1.66H90.45a9.74,9.74,0,0,0,.4-.94c.05-.13.1-.24.14-.32l-1.7-.2a11.61,11.61,0,0,1-.54,1.46h-1.1l-1.37,7.8h1.53l.11-.59h1.14l-.1.55H90.5l1-5.71c.37.24.74.46,1.1.67a13.93,13.93,0,0,0,.77-1.22h1.37c-.07.45-.22,1.22-.44,2.32-.15.84-.25,1.4-.3,1.66a.86.86,0,0,1-1,.83c-.63,0-1.1,0-1.41,0a10.35,10.35,0,0,1,0,1.06c0,.21,0,.37,0,.47.74,0,1.35,0,1.82,0a2,2,0,0,0,2.08-1.93c.2-1,.58-2.94,1.14-5.83h-2.4A6.14,6.14,0,0,0,94.57,41Zm-5.25,6.34H88.17L88.42,46h1.14Zm.5-2.87H88.68l.24-1.38h1.15Z"/></g><g id="_群組_31" data-name="&lt;群組&gt;"><path class="cls-1" d="M93.78,45.5c-.34-.6-.6-1-.79-1.34l-1.4.79c.28.5.62,1.17,1,2l1.49-.87C94,46,93.92,45.77,93.78,45.5Z"/></g><g id="_群組_32" data-name="&lt;群組&gt;"><path class="cls-1" d="M108.84,42.35l.23-1.34h-6.34a9.45,9.45,0,0,0,.65-.75l-1.61-.08a6.77,6.77,0,0,1-2.19,1.93c.06.14.16.44.32.91a1.68,1.68,0,0,0,.12.43l.5-.39.5-.39-.14.82H99.54l-.23,1.26h1.34l-.21,1.19h-1l-.23,1.3H108l.23-1.3h-.83l.21-1.19h1.06l.22-1.26h-1.06l.2-1.14Zm-6.54,3.59h-.56l.21-1.19h.55Zm.43-2.45h-.55l.2-1.14h.55Zm1.46,2.45h-.59l.21-1.19h.59Zm.43-2.45H104l.2-1.14h.59Zm1.46,2.45h-.59l.21-1.19h.59Zm.43-2.45h-.59l.2-1.14h.59Z"/></g><g id="_群組_33" data-name="&lt;群組&gt;"><path class="cls-1" d="M103.5,47.63c0,.16.06.38.11.67.08.45.14.8.17,1.06l1.6-.15-.41-1.7Z"/></g><g id="_群組_34" data-name="&lt;群組&gt;"><path class="cls-1" d="M107.24,47.39l-1.57.2.58,1.85,1.62-.23c-.09-.27-.21-.61-.37-1S107.31,47.58,107.24,47.39Z"/></g><g id="_群組_35" data-name="&lt;群組&gt;"><path class="cls-1" d="M101.33,47.63a.66.66,0,0,0,0,.2c0,.73,0,1.26,0,1.57l1.6-.11c-.06-.58-.11-1.16-.17-1.74Z"/></g><g id="_群組_36" data-name="&lt;群組&gt;"><path class="cls-1" d="M99,48.54l-.49.78a3.53,3.53,0,0,0,.54.08l.95.16,1.17-1.93-1.46-.2A10.39,10.39,0,0,1,99,48.54Z"/></g><g id="_群組_37" data-name="&lt;群組&gt;"><path class="cls-1" d="M119,45.5c.51-.21.88-.36,1.11-.47a3.36,3.36,0,0,0,.39-.2l-.58-1.18c-1,.47-2,.92-2.91,1.34a5.52,5.52,0,0,0-.42-.75c.14-.08.36-.18.64-.31l.48-.24h1.42l.19-1.1h-5.4l-.19,1.1h1.65a14.8,14.8,0,0,1-3.72.79c0,.05,0,.16.1.31a7,7,0,0,1,.27.91,19.33,19.33,0,0,0,3.12-.91l.12.2a14.19,14.19,0,0,1-4.08,1.26,11.42,11.42,0,0,1,.37,1.26,24.05,24.05,0,0,0,4.14-1.57l0,.23A15.87,15.87,0,0,1,110.75,48a9,9,0,0,1,.37,1.23c.95-.29,1.81-.58,2.6-.87,0,.37.07.73.08,1.1.55,0,1,0,1.46,0,1.1,0,1.75-.58,1.94-1.81a6.61,6.61,0,0,0,.1-1.46l.3-.12a4.32,4.32,0,0,0,1.63,3,2,2,0,0,1,.33-.32,10.39,10.39,0,0,1,.91-.9A3,3,0,0,1,119,45.5Zm-3.24,2.09c0,.47-.35.7-.95.67h-.31a1.19,1.19,0,0,1-.47,0,12.49,12.49,0,0,0,1.76-.87Z"/></g><g id="_群組_38" data-name="&lt;群組&gt;"><polygon class="cls-1" points="117.78 40.1 116.2 40.1 116.07 40.85 112.33 40.85 111.89 43.34 113.43 43.34 113.64 42.15 119.58 42.15 119.38 43.34 120.95 43.34 121.39 40.85 117.65 40.85 117.78 40.1"/></g><g id="_群組_39" data-name="&lt;群組&gt;"><path class="cls-1" d="M132.41,40.54c-.6.52-1.21,1-1.84,1.5l.19-1.11h-2l.15-.82h-1.58l-.14.82h-2.25l-.22,1.26h2.24l-.11.63h-3l-.23,1.3h3.54a23.4,23.4,0,0,1-3.87,1.42c0,.29,0,.78.1,1.46a.74.74,0,0,1,0,.12l.51-.24c.22-.08.39-.14.51-.2l-.51,2.88h1.58l.06-.35h4.22l-.07.35h1.58l.85-4.85h-3.39c.33-.21.67-.4,1-.59h3.38l.23-1.3h-1.69c.63-.44,1.27-.93,1.91-1.45Zm-2.51,7.52h-4.22l.1-.55H130Zm.37-2.12-.09.51H126l.08-.47.12,0h4.1Zm-.83-3.12h-1.06l.11-.63h1.85A5.59,5.59,0,0,1,129.44,42.82Z"/></g><g id="_群組_40" data-name="&lt;群組&gt;"><path class="cls-1" d="M140.32,40.31A3.65,3.65,0,0,0,136.43,43l1.71.36c.35-1,.9-1.46,1.63-1.46a.77.77,0,0,1,.79.9c-.05.45-.46.92-1.24,1.42A2.72,2.72,0,0,0,138,46.1l-.08.48h1.57l.07-.36c0-.45.41-.92,1.23-1.42a3.13,3.13,0,0,0,1.82-2.28C142.69,41.13,141.94,40.39,140.32,40.31Z"/></g><g id="_群組_41" data-name="&lt;群組&gt;"><polygon class="cls-1" points="137.27 49.1 139.21 49.1 139.53 47.28 137.59 47.28 137.27 49.1"/></g></g></g></g></svg>