<svg xmlns="http://www.w3.org/2000/svg" viewBox="0 0 58.82 58.58"><defs><style>.cls-1{fill:#fff;}</style></defs><title>資產 7</title><g id="圖層_2" data-name="圖層 2"><g id="圖層_3" data-name="圖層 3"><g id="_群組_" data-name="&lt;群組&gt;"><path id="_複合路徑_" data-name="&lt;複合路徑&gt;" class="cls-1" d="M51.42,4.15H29.78V0h29V29.05H54.59V7.24l-24,23.92A15.7,15.7,0,0,1,34,41.66,16.73,16.73,0,0,1,17,58.58a16.93,16.93,0,1,1,0-33.85,16.27,16.27,0,0,1,10.5,3.42ZM17,54.35A12.36,12.36,0,0,0,29.7,41.66,12.32,12.32,0,0,0,17,29,12.36,12.36,0,0,0,4.31,41.66,12.41,12.41,0,0,0,17,54.35Z"/></g></g></g></svg>