<svg xmlns="http://www.w3.org/2000/svg" viewBox="0 0 554.47 171.89"><defs><style>.cls-1{fill:#fff;}.cls-2{fill:#e0c87e;stroke:#fff;stroke-miterlimit:10;}</style></defs><title>資產 6</title><g id="圖層_2" data-name="圖層 2"><g id="圖層_3" data-name="圖層 3"><g id="_群組_" data-name="&lt;群組&gt;"><g id="_矩形_" data-name="&lt;矩形&gt;"><path class="cls-1" d="M.32,170.3c.08.75.28.33.24-1.76l-.33-1.49Z"/><path class="cls-1" d="M.93,156.23c-.16-2.46-.44-5.29-.75-3.7.32,2.43.19,3,.57,5.64,0,2.1-.11,3.66-.23,3.3.08.74-.07,3.25.13,4.38a66.72,66.72,0,0,0,.06-9.77C.78,155.3.87,156.05.93,156.23Z"/><path class="cls-1" d="M50.77,2.08,49.46,2C49.82,2.07,50.27,2.08,50.77,2.08Z"/><path class="cls-1" d="M177.42,2.26a7.33,7.33,0,0,0-1.42.08A7.13,7.13,0,0,0,177.42,2.26Z"/><path class="cls-1" d="M199,2.63l-1.27,0A11.28,11.28,0,0,0,199,2.63Z"/><path class="cls-1" d="M50.77,2.08l3.39.11A22.56,22.56,0,0,0,50.77,2.08Z"/><path class="cls-1" d="M.13,128c0,.71,0,1.3.09,1.84,0-.58,0-1.14,0-1.73C.17,128.12.15,128.1.13,128Z"/><path class="cls-1" d="M1.71,7.66v1c0,.31.09.59.14.86Z"/><path class="cls-1" d="M1.76,50.5a3.41,3.41,0,0,0-.39-1.68,12.72,12.72,0,0,1,.2,2.12C1.62,51,1.68,50.83,1.76,50.5Z"/><path class="cls-1" d="M1.27,118.44l0,1.21C1.3,119.33,1.28,118.8,1.27,118.44Z"/><path class="cls-1" d="M25.61,2.41a1.27,1.27,0,0,0,.39.1S25.85,2.44,25.61,2.41Z"/><path class="cls-1" d="M50.65,171.62s0,0,0-.05C50.39,171.59,50.32,171.61,50.65,171.62Z"/><path class="cls-1" d="M1,170.22h.69c.07-.06.15-.11.15-.16Z"/><path class="cls-1" d="M238.61,3h-.17C237.4,3,238,3,238.61,3Z"/><path class="cls-1" d="M551.82,50.53c.25-4.11.32,6.7.6.5C552.31,51.61,552,45.4,551.82,50.53Z"/><path class="cls-1" d="M.17,126.93v-1.75C.16,126,.16,126.52.17,126.93Z"/><path class="cls-1" d="M552.42,51h0l0-.64C552.44,50.66,552.43,50.81,552.42,51Z"/><path class="cls-1" d="M329.79,2.82a6.3,6.3,0,0,0-.93-.12A4.17,4.17,0,0,0,329.79,2.82Z"/><path class="cls-1" d="M261.87,2.42l1.68,0C262.88,2.43,262.34,2.42,261.87,2.42Z"/><path class="cls-1" d="M365.06,2.42c.92,0,1.23.06,2.47,0l-.37,0A15.19,15.19,0,0,1,365.06,2.42Z"/><path class="cls-1" d="M401.77,2.42l-.68,0h-1.16Z"/><path class="cls-1" d="M162.21,171.48a15.59,15.59,0,0,1-1.7-.25C161.08,171.43,155.69,171.5,162.21,171.48Z"/><path class="cls-1" d="M.29,128a3.83,3.83,0,0,1-.12-1.09c0,.42,0,.83,0,1.22C.22,128.26.26,128.28.29,128Z"/><path class="cls-1" d="M366.55.21l5.84,0Z"/><path class="cls-1" d="M425.56,171.44l-1.34,0C424.74,171.48,425.21,171.47,425.56,171.44Z"/><path class="cls-1" d="M389.69.21c1.05.1,2.15.15,3.29.19.24,0,.52,0,.68-.07Z"/><path class="cls-1" d="M160.5,171.22h0Z"/><path class="cls-1" d="M122.09,171.89c5.55,0,2.61-.36,3.78-.57,6.64-.11,3.07.27,5.33.46,4.14-.1,7.32-.44,10.41-.42.23.06.83.08.13.16,4.37-.3,13,0,18.1-.39.37,0,.57.07.66.09-.82-.18-.95-.37-.78-.5,2.49,0,4.62-.24,5.56,0a13,13,0,0,0-2.37.16l2.61-.1c2.35.34-3.56.12-3.56.37,5.09-.11,11-.4,14.92-.3.82.34-9.12.12-3.92.42l-6-.13c4.61.53-3.67,0,.57.53,7.94.1,8.88-.17,16.8-.07,1.79-.19-.58-.28,1.2-.47,11.26-.34,8.86.86,17.14.4a38.33,38.33,0,0,1,8.87-.43l-2,.39c7.69,0,4.39-.55,12.45-.3-1.44.16-6,.13-4.89.18,5.22.3,3.7-.22,7.71-.22l.83.34,26.27-.36c-.5.1-2.06.21.06.31,11.44-.17,24.42,0,35.45.24l4.21-.29c1,0,1.82.13.76.19,4.3.11.22-.19,2.29-.3,2.44,0,3.23.17,1.68.25,7.58-.24,21.61-.53,29.6-.22l-1.56.09c6.23.12,7-.6,12.8-.33l-1.11,0c13.51.13,28.44-.14,38.74.31,2-.43,13.37.18,14.24-.41,7.72.3,5.51.4,16.37.6,2.9,0,4.32-.37,7.91-.43l.09.31,4.87-.33,2.59.37,3.36-.08a9.22,9.22,0,0,1-2.64-.22c2.63-.07,5.83,0,8.39.07a37.56,37.56,0,0,1,4.55.3l12.43-.26c-.27.12-2.36.16-4,.24,6.63-.31,1.2.33,7.28,0-.81-.07.45-.18.58-.25,3,.19,9.94.19,15,.11l-1,.22c9.22.05,19.44-.11,29.79-.1-3.71-.1-2.86-.47.18-.5l1.21.32c2-.2-3.17-.12.85-.37,3.87,0,2.6.37.38.48l4.7-.11c.28.09-.82.14-1.11.27,1.93-.2,8.11.32,10.9,0l.26.1,23.47-.13c.16-.28,3.46-.21,6-.44l12.64.21c0-1.8,0-3.66.06-5.54,0-1.51,0-3,0-4.6-.14-5.25-.24-1.53-.4-3.89.25-.39.23-7.84.41-4,0-9-.05-11.44-.26-22.77-.1,1.23-.15,2.61-.23,1.89-.05-2,.1-4.67.23-4.38l0,.55c-.38-12.72.75-29.35.22-39.47l0,.56-.28-10.5c.05-4.83.2,2.9.35-.67-.42-11.33.07-17.9-.22-27.22.76-7.22,0-25.62.43-35.37l-.18.56a33.13,33.13,0,0,1,.15-4.9c-.14.27-.16,2.73-.26,1.17,0-4.07,0-8.19-.06-12.39L539.42.42,525.71.29,498.32,0c-8,0-4.54.92-14.62.5l2.86-.33c-16.15.39-33,0-48.82.32a15.71,15.71,0,0,1,2.51-.17C438.58.2,435.5.19,432.82.24a39.15,39.15,0,0,0-5,.26c-2.46,0-.57-.18-2.08-.28-3.35-.14-8.41.31-10.19.07a8.36,8.36,0,0,1,1.56-.1c-2.19.12-10.17,0-8.08.25C403.13.31,397.71.56,393,.4c-3.09.31-10.16-.15-11.13.29.42-.45-10.4-.37-14.16-.15C369,.4,364.43.4,365.9.21c-4.28,0-8.2.09-7.45.32C350.56,0,342.6,1,338.16.27c-12.72.24-24.48.41-35.92.51.41-.45,12.64,0,12.15-.51-10.85.18-17.11.57-27.87.46-2.78-.06,1.59-.2,2.53-.27-10.84.18-21,0-30.61.2a18.9,18.9,0,0,1,2.05-.12c-1.9,0-4.42-.07-4.2.14l1.85-.06c3,.3-7.55.62-7.89.78,3.23-.59-9.53-.15-4.4-.89-1.25,0-2.82.14-2.54.27-1.85,0-2.44-.12-.56-.27-6.81.11-4.39.33-10.56.32A19.23,19.23,0,0,1,234.1.58c-3.13.19-6.26.39-11.48.3.32-.06-.29-.14,1.27-.13-9,0-15.26.51-25.09.32,2.9-.43-3.34-.14-3.86-.51l-5.28.11,2.12.18c-4.63,0-8.71.27-12.69.15l3.44-.16-8.67.07,4.9.14c-4.68.2.51.48-5.65.37,1.25,0-4.63,0-7-.22h0c-2.29.12-4.64.24-8.06.15-.89-.12.71-.41.14-.49-2.26.31-10.84.08-13.7.41.95-.07,1-.27.69-.31l-1.89.25c-2.15-.08-2.46-.12-2.11-.27-6.45,0,2,.47-5.61.27.6,0,.32-.06,1.57-.1-7.69-.11-14.85.16-21.91,0-2.08-.38,6.17-.1,3.78-.41-10.18.07-21.08.45-30.93.36l1.84,0c-1.37.53-7.34-.26-12.32,0,1.22,0,1.6-.3,1.27-.24-6.75-.08-13.8.13-24,.3l1.27-.14C52.11.93,45.62,1,41.32.92c-1.28.14-3.73.12-2.24.31C32.46.85,26.14,1,20,1.07c-3.07.06-6.09.12-9.07.13-1.5,0-3,0-4.46,0L4.28,1.1,1.87,1l1.3,0,1,0c.52,0,.73-.06.17-.06L.29.93.37,8.31A20.91,20.91,0,0,0,.69,4.9C.83,6.16.94,9,.94,11.47c-.16-4.5-.38,0-.5,2,.07-.33.14.34.22.18-.42,5.22.46.87.18,8l-.12-.38c.06,2.67.23,5.14.19,8-.27,1.19-.12-2.85-.34-3,0,4.05.5,8,.24,11.65C.76,36.18.7,33.71.66,32,.34,36,.42,36.44.37,39.4v-.29L.24,46l.08-1.74C1,49.28.45,54.53.91,61.35c-.44-6.63-.25-1.1-.56-1.6C.27,61.49.17,64.13.09,63.38c.24,3.22-.19,5.38.16,9.93C.16,73.52.24,76.76,0,76c.08,4.2.17-1,.29-.63.34,6.46-.4,15.18.06,24.48.18,8,.51,9.49.68,16.93-.16,2.51-.36-2.06-.36-2.06-.14,4-.12,7.1,0,10.92-.09-.78-.16,0-.27,1.18,0,3.06.35,2.05.21,6.09a30.62,30.62,0,0,1-.39-3.06c.12,3.61.23,7.17.36,10.91-.17,1-.26-2.26-.37-3.57.08,4.2.15,10.88.42,12.17l.1-2.69c0,1.53-.23.79-.28-.34-.21-3.6.09-5.19.19-5.4l.06,2.67c.57-2.74-.09-10.69-.06-16l.42,2.24-.35-5.5c.11-1.17.34-2,.41.68.2-3.84-.15-3.4.08-6.7,0-.36.05-.2.07.14l-.12-3.75c.08.73.29-.63.23,1.68.24-6.73-.31-10.86,0-13.39l0,.56c-.14-9.34-.31-.9-.67-7.91l.76-4.72L1.19,90c0-1,0-2.87.16-2.51-.21-3.59-.13.61-.33-1.47.28-4.64-.13-12.8.36-13.84C1.14,70.5,1.2,76.6,1,71.65c.53-1.41-.08-5.72.16-10,.27,1.3.12,5.32.36,1.07-.45-2.55.1-8.25,0-11.82-.37-.17-.16-7.78-.28-13.77.13.38.2-11.29.33-16.87l.07.16c-.37-1.08-.3-6.83-.38-11,.22.16.31.91.41,3.18V8.68C1.6,7.76,1.53,6.53,1.49,4l.28,1c0-.55,0-1.1,0-1.66l0-.94.85,0,1.61,0,3.36-.06c2.3,0,4.74,0,7.4,0,.38-.25-5.37-.71,1.77-.88.26.14.52.38-1.34.43.61,0,2.18-.11,3.41-.05L15.94,2c3.07.1,1.61-.19,4.06-.17,0,.19,1.82.14,1.47.29-.63,0-2.14-.08-3.08,0,2.77,0,6.12.15,7.22.3-.24-.11,0-.26,2-.29,5.24,0,1.8.24,4.85.34,1.27-.14,4.62,0,4.71-.29a10.88,10.88,0,0,1,2.41.22c2.71-.13,12.68,0,9.62-.35l-.7,0L49,2h0c8.9-.29,18.48.17,27.31,0v.1C81.54,2,88,2.08,91.76,1.86c1.55,0,3.67.18,3,.3,4-.07,4.48-.18,10.29,0-4,.17,1.4.15-4.15.13,5.24.08,6.42.24,12,0-1.91.25,3.94.32,6.43.24l-3.67-.18c2.8,0,5.25,0,7.73,0l-1.34.33c10.71.41,19.31-.69,27.46,0,2.84-.23-5.81-.16-3.28-.44,4.93.05,10.06.53,11.6.53,6.75.18,6.3-.49,13.36-.36-.9-.12-1.76-.44,3.52-.55,4.93,0,6.06.5,3,.59A7.4,7.4,0,0,1,176,2.34c-1.59,0-3.68.09-1.73.22l.64-.12c2.45.12,9.23.11,7.64.3,3.72-.11,1.59-.19-1.17-.25,6.32.17,9.88,0,16.39.12-1-.07-2-.21-1-.21,9.55.15,4.2-.22,10.67-.27,3.68.18-1.32.43,5.2.28,4,.12.84.31-.74.41C217.87,2.59,223,3,226.41,3l-3.13.1c1.87-.06,3.4-.06,5-.06l-1.78-.24a23.21,23.21,0,0,1,3.35.15c1.89-.16-1.45-.4,2.31-.61,2.44.12,7.44-.13,8.29.18-7.69-.1.85.32-5.66.37,1.25,0,2.79,0,4.63,0,.27,0-.26.06-.77.08,7.37.28,3.39-.36,11-.35-1,.18,1.76.34,3,.3-3.07,0-1.47-.3,1.35-.43,4.89.14,5.32-.11,7.88-.09l-2.93-.06c1-.18,3.44-.16,6.85-.21.29.13-3.1.09-1.88.15,3.79-.31,8.56.32,13.83.11,2.45.12.24.34,2.39.42,5.92-.23,6.41.24,12.63,0-1.8-.24-2.11-.18,2.27-.41l-10.22.17,6.56-.35c-3.09,0-6.51.15-8.36.11,3.12-.19,2.8-.14,1.33-.33,4.22.35,8.37-.21,13.25,0l-.15.59c7.33.26,13-.3,22.56-.15l-3.06-.11c1.28-.23,5.88,0,9-.12-.29.19,1.64.26,2.95.39-.16-.15,7,0,7.84-.38l4.26.26c7.69.1,8.78-.57,16.17-.5-2.23.22,1.13.36-3.82.51a33.27,33.27,0,0,0,4.73-.1c1.44.12,6.85-.27,9.12-.08a24.61,24.61,0,0,1,4.15-.27c.3,0,0,.09,0,.09s4.34-.13,1.91-.35c7.61.62,21.26,0,27.88.49l16.78-.15c-.32.06,0,.1-.94.08,6.74.18,4.14-.57,11.82-.36,3.92.32-4.08.17-1.63.29,1.06.65,9.27-.09,14.43.29l-1.25,0c3.95.22,9.64-.25,16.09-.2,0,0-.31.06,0,.1,4.41-.33,12.76-.44,19-.53-1.93.25-2.82.13-1.64.39,2.78,0-.81-.42,4.74-.49,1.81.14,5.81.26,6.34.54h-5.23c2.68.36,6.78,0,9.54.05l-.35.16c8,0,8.14-.45,16.77-.42l-.89-.12c4.71-.38,3.95.22,8.65-.07l1.43.4c3.11-.1,10.9-.38,16.48-.46-3.16.3-9.69.45-13.73.62,3.08,0,10.48,0,12.09-.22-1.25,0-2.81.13-4,.07,3.78-.31,8.76-.46,14.91-.46-.36.25,1.23.36,3.69.41l8.09.08c0,1.36-.06,2.68-.08,3.81-.05,1.37-.12,2.52-.22,3.29.28,10.87-.12,21.57-.07,34.24.59-4.49,0,3.7.62,2.92,0,3,0,4.08,0,4.34L552.06,60c-.18,2.12-.14-2.8-.27-2.53,0,6.46-.26,2.71-.43,7,.22-.87.32,2.25.23,5.93l.29-5.18c.32,9-.52,7.8-.2,16.9l-.19-2.88c.12,4.67,0,17.23.49,21.81-.07.83-.24,1.92-.28-.14-.08,11.16.52,24.85.22,33.52l-.15-.85c0,2.09.28,3.63.13,6.24-.06-.14-.15-.84-.16.12s.26,5.53.18,8.29l-.17-2.36c-.1,5.17,0,9.19.12,13,.12,3.54.24,6.85.37,10.77l-.73,0s0-.1-.25-.15-.59-.09-1-.12c-.87-.08-2.07-.14-3.41-.19-2.67-.1-5.88-.16-8-.19l.15-.06c-12.68-.06-21.54.36-33.28.53-7.28-.47-24.68-.2-36.39-.46,1.79.08-.29.34-2.37.38-2.75-.09-7.6.31-7.17-.09h1c-2.07-.39-7.72-.29-12.13-.3l-.72.53c-11.54-.77-30.23.28-36.52-.41-2.79.14-6.24.13-9,.27l.15-.29c-7.71-.07-11.56-.1-21.09,0l1.94-.2c-5.38,0-6.79.82-11.75.83l-1.49-.42c-9.38,0-18.88-.36-28.15,0a5.26,5.26,0,0,1,1.95-.2c-4.42,0-17.09-.29-15.48.29-.11-.38-9.68,0-14.75.13l.79-.28a101.29,101.29,0,0,1-10.38.56c-1.42,0-1.24-.23.64-.16-4.72-.14-3.68.27-9.4.12l2.13-.18a52.75,52.75,0,0,0-7.13.28,73.36,73.36,0,0,1-9.93-.32,36.58,36.58,0,0,1-6.17.29c-.38-.1.66-.16,1.18-.19-8.11-.19-12.06.33-17.64,0a2.46,2.46,0,0,0-.94-.16c6.44,0,11.63,0,11.15,0,0-.26-5.21-.3-1.07-.66-4.18.2-11.32.62-16.4.5-.24,0-.48,0-.67-.09l.53,0c-1.17,0-2.22,0-3.21,0-1.62,0-2.65-.07-4.2-.08-.6-.21-6-.11-8.57-.12.21.28-3.18.23,0,.47a13.54,13.54,0,0,1,2.22,0c.39,0,.85,0,1.1,0l-.17,0,6.45,0a53.11,53.11,0,0,1-7.07.1c-1.33.19-2.79.37-3.62.46-3.55-.39-10.4-.61-11.35-.85-7.93.16-18.68.11-23.66.63a14.64,14.64,0,0,1-3.43-.23c1.3-.05,2.84,0,3.55-.12-4.51.14-13.35,0-14.43.42-5.68-.17,3.19-.34-4.61-.28l1.05-.11c-15.35-.59-25,.94-42,.18a16.83,16.83,0,0,1,2,.13c-19.4-.33-40,.32-59.14-.21a78.77,78.77,0,0,0-9.35.31l-1.18-.31-5.68.35c-8.06.26-14-.74-24.15-.26l1.32.21c-3.66,0-11.6.12-11-.12a11.45,11.45,0,0,1-2.63.11l-.11-.16-9,.27c-7-.11,1.09-.63-9.08-.66-3.79.06-10.78.46-9.35.57a20.87,20.87,0,0,1,4,.26l-3.46.08c-.63.46-3.29.94,5.21,1.27l5.91-.29,1.91.23h-5a41.18,41.18,0,0,0,6.62-.1,14.32,14.32,0,0,0,2.48.25l5.81-.45c.71.18-2.6.36,1.29.46,2.73-.2-2.61-.41,1.9-.54a23.21,23.21,0,0,0,5.33.2c.46.12-.24.2-1.56.25,3-.14,7.83-.06,9.36-.31,2.95.26,10-.07,9.69.38.93-.11,5.21-.35,7.93-.37-5,.53,10.17,0,8.86.6,3.67-.48,13.27-.21,19.77-.48a11,11,0,0,1-1.65.09c3.66,0,4.73.19,7.08.28.47-.4,6.18-.49,9.25-.73,4.49.38-2.73.46-1.32.83-.22-.32,7.8-.32,6.28-.59a29.93,29.93,0,0,1,4.72.44c.6-.49,3.2-.08,6-.38,5,.24,1.28.46,6.73.31C126.94,171.72,122.09,171.89,122.09,171.89ZM251.88,171h0l-2.67,0Zm10.91,0h-4.73c-.38-.1,0-.2,1.13-.19A33.09,33.09,0,0,0,262.79,171Zm-23.07-1.95a11.82,11.82,0,0,1,2.54.08l-3,0-.2,0A3.54,3.54,0,0,1,239.72,169.09Z"/><path class="cls-1" d="M236.62,169.46l-.72,0,1,.06.62-.08Z"/><path class="cls-1" d="M49.23,2h.23c-.19,0-.37,0-.49,0Z"/><polygon class="cls-1" points="413.41 171.58 413.4 171.51 412.45 171.57 413.41 171.58"/><path class="cls-1" d="M.44,13.45a4.41,4.41,0,0,0-.08.79A6.76,6.76,0,0,0,.44,13.45Z"/><path class="cls-1" d="M.37,39.4l-.1,3.67C.32,41.48.35,40.33.37,39.4Z"/><path class="cls-1" d="M.23,59.35a1.46,1.46,0,0,0,.12.4v0Z"/><path class="cls-1" d="M260.49.54h.77C263.07.47,261.84.49,260.49.54Z"/><path class="cls-1" d="M166.08,1.2l3-.14A10.25,10.25,0,0,0,166.08,1.2Z"/><path class="cls-1" d="M365.92.2h0Z"/><path class="cls-1" d="M173.51,1.07c-1.68-.06-3.09-.05-4.39,0C170.5,1.08,172.12,1.11,173.51,1.07Z"/><path class="cls-1" d="M.11,145.83l0,1s0,0,.05.11Z"/><path class="cls-1" d="M.14,146.91l0,1.07A9.13,9.13,0,0,0,.14,146.91Z"/><path class="cls-1" d="M.24,150.22.17,148A18.88,18.88,0,0,0,.24,150.22Z"/><path class="cls-1" d="M.24,119.42l-.11-.3C.15,119.28.19,119.39.24,119.42Z"/><path class="cls-1" d="M.21,111.39c0,1.92-.22,4.81-.16,7.48l.08.25C0,117.86.38,113.21.21,111.39Z"/><path class="cls-1" d="M1.47,77.89l-.09,6.73c.11-1.18.26-2.73.28.33C2,76.47,1.42,86.7,1.47,77.89Z"/><path class="cls-1" d="M1.62,57c0,3.62.16,0,.22.15C1.74,54.89,1.72,54.34,1.62,57Z"/><path class="cls-1" d="M96.28,2.26l-.36.26C98.71,2.48,96,2.42,96.28,2.26Z"/><polygon class="cls-1" points="125.09 0.94 122.38 0.78 121.09 1.01 125.09 0.94"/><polygon class="cls-1" points="142.11 2.76 140.9 2.8 145.54 2.71 142.11 2.76"/><path class="cls-1" d="M395.24,2.67l-.84-.31C392.52,2.41,392.12,2.77,395.24,2.67Z"/><path class="cls-1" d="M504.52,2.35a38,38,0,0,0,6.16.1C508.22,2.43,505.77,2.31,504.52,2.35Z"/><polygon class="cls-1" points="442.4 169.05 444.59 168.95 440.45 169.03 442.4 169.05"/></g><g id="_群組_2" data-name="&lt;群組&gt;"><path class="cls-1" d="M461.78,1.3c-.08-.09-.28,0-.24.2l.33.18Z"/><path class="cls-1" d="M461.17,2.94c.16.29.44.63.75.44-.32-.29-.19-.36-.57-.66,0-.25.11-.43.23-.39-.08-.09.07-.38-.13-.51A1,1,0,0,0,461.39,3C461.32,3.05,461.23,3,461.17,2.94Z"/><path class="cls-1" d="M460.65,26.91l0-.15A.54.54,0,0,0,460.65,26.91Z"/><path class="cls-1" d="M460.47,41.76c0-.11,0-.16-.07-.17S460.44,41.79,460.47,41.76Z"/><path class="cls-1" d="M460.11,44.3c0-.06,0-.1,0-.15S460.08,44.26,460.11,44.3Z"/><path class="cls-1" d="M460.65,26.91l-.1.4C460.66,27.34,460.63,27.1,460.65,26.91Z"/><path class="cls-1" d="M462,6.25a.85.85,0,0,0-.09-.22,1.55,1.55,0,0,1,0,.21Z"/><path class="cls-1" d="M460.39,20.37v-.13l-.14-.1Z"/><path class="cls-1" d="M460.34,15.34c0,.12.26.15.39.2a.4.4,0,0,1-.2-.25A.41.41,0,0,0,460.34,15.34Z"/><path class="cls-1" d="M460.83,7.38l0-.15A1.13,1.13,0,0,0,460.83,7.38Z"/><path class="cls-1" d="M460.33,24a.28.28,0,0,0-.11.05A.18.18,0,0,0,460.33,24Z"/><path class="cls-1" d="M462.44,164.47h-.05S462.44,164.51,462.44,164.47Z"/><path class="cls-1" d="M461.05,170.3l0-.08-.16,0Z"/><path class="cls-1" d="M459.75,48.94v0C459.72,48.79,459.73,48.86,459.75,48.94Z"/><path class="cls-1" d="M460,91.53c.25-.48.32.79.6.06C460.45,91.66,460.12,90.93,460,91.53Z"/><path class="cls-1" d="M461.93,6.38a1.47,1.47,0,0,1,0,.21A.72.72,0,0,0,461.93,6.38Z"/><path class="cls-1" d="M460.56,91.59h0l0-.08A.41.41,0,0,0,460.56,91.59Z"/><path class="cls-1" d="M459.92,59.63a.63.63,0,0,0,.12-.11S460,59.55,459.92,59.63Z"/><path class="cls-1" d="M460.32,51.66l0,.2C460.3,51.78,460.31,51.72,460.32,51.66Z"/><path class="cls-1" d="M460.31,63.76a.46.46,0,0,0,0,.29s0,0,0,0A.26.26,0,0,1,460.31,63.76Z"/><path class="cls-1" d="M460.32,68.07a.56.56,0,0,1,.05-.08s0-.1,0-.14Z"/><path class="cls-1" d="M462.3,151.39a.76.76,0,0,1-.25.2C462.25,151.52,462.32,152.16,462.3,151.39Z"/><path class="cls-1" d="M461.81,6.25c.07,0,.11.06.12.13s0-.1,0-.14S461.84,6.22,461.81,6.25Z"/><path class="cls-1" d="M462.53,63.94l0,.68A4.7,4.7,0,0,0,462.53,63.94Z"/><path class="cls-1" d="M462.26,120.51l0,.16A.27.27,0,0,0,462.26,120.51Z"/><path class="cls-1" d="M462.53,66.65a.89.89,0,0,0-.19.39s0,.06.07.07Z"/><path class="cls-1" d="M462.05,151.59Z"/><path class="cls-1" d="M462.71,156.1c0-.66-.36-.31-.57-.45-.1-.78.27-.36.46-.62-.1-.49-.44-.86-.42-1.22.06,0,.08-.1.16,0-.3-.51,0-1.52-.38-2.12a.22.22,0,0,1,.09-.08.84.84,0,0,1-.51.09c0-.29-.23-.54,0-.65,0,.18.09.2.16.28l-.1-.31c.35-.27.12.42.38.42a5.78,5.78,0,0,1-.31-1.75c.34-.09.12,1.07.42.46l-.13.71c.54-.54,0,.43.54-.07.09-.93-.18-1-.08-2-.19-.21-.28.07-.47-.14-.34-1.32.86-1,.41-2-.23-.25-.66-.35-.43-1l.38.24c0-.91-.55-.52-.29-1.46.15.17.12.71.17.57.3-.61-.22-.43-.22-.9l.34-.1c-.05-1-.3-2-.36-3.08.1.06.21.24.31,0a15.14,15.14,0,0,1,.25-4.15l-.3-.5c0-.11.13-.21.19-.09.11-.5-.18,0-.3-.27s.17-.37.26-.19a7.16,7.16,0,0,1-.22-3.47l.08.18c.12-.73-.6-.82-.33-1.5l.06.13c.12-1.59-.14-3.34.3-4.54-.42-.23.19-1.57-.4-1.67a7,7,0,0,0,.59-1.92c0-.34-.37-.51-.43-.93h.31l-.32-.57.36-.31-.07-.39c0,.16-.14.33-.23.31a1.86,1.86,0,0,1,.37-1.52l-.26-1.45c.12,0,.17.27.25.46-.32-.77.32-.14,0-.85-.07.1-.18-.05-.24-.07a3.92,3.92,0,0,0,.11-1.76l.21.11c0-1.08-.1-2.28-.1-3.49-.1.44-.47.34-.5,0l.32-.14c-.2-.23-.12.37-.37-.1,0-.45.37-.31.48-.05l-.11-.55c.09,0,.15.1.27.13-.2-.22.33-1,0-1.27l.09,0c0-1.21-.11-1.76-.12-2.75-.28,0-.22-.4-.45-.7a15.31,15.31,0,0,0,.29-2.4c-.14-.62-.24-.18-.41-.46.26,0,.23-.92.42-.47a16.8,16.8,0,0,0-.26-2.67c-.11.15-.15.31-.24.23,0-.24.11-.55.23-.52l0,.07c-.39-1.49.75-3.44.21-4.63l0,.07-.28-1.24c0-.56.19.34.35-.08-.43-1.32.06-2.09-.22-3.19.75-.84-.06-3,.43-4.14l-.18.06c-.18-.29.1-.35.14-.57-.14,0-.16.32-.25.13a53,53,0,0,1,.42-7.72c0-.94-.92-.54-.5-1.72l.33.34c-.4-1.9,0-3.87-.32-5.73.07.11.17.12.17.3.24-.39,0-1.45-.18-1.46,0-.28.17-.06.27-.24.15-.39-.3-1-.06-1.19,0,0,.07.11.09.18-.11-.26,0-1.19-.24-1,.13-.7-.13-1.33,0-1.88-.31-.37.15-1.2-.29-1.31.45,0,.36-1.22.15-1.66.14.15.14-.38.33-.21,0-.5-.09-1-.32-.87.54-.93-.44-1.86.26-2.38-.25-1.49-.41-2.87-.52-4.21.45,0,.05,1.48.52,1.42a12.77,12.77,0,0,1-.46-3.27c.06-.32.19.19.27.3-.19-1.27,0-2.46-.2-3.59,0,0,.08.13.12.24,0-.22.06-.52-.14-.49l.05.22c-.29.35-.62-.89-.77-.93.58.38.14-1.12.89-.52,0-.14-.14-.33-.28-.29,0-.22.12-.29.28-.07-.11-.8-.33-.51-.33-1.24.1,0,.14.15.26.23a2,2,0,0,1-.31-1.35c.06,0,.14,0,.14.15,0-1.05-.51-1.79-.33-2.94.43.34.14-.39.52-.45l-.11-.62-.18.24c0-.54-.27-1-.15-1.48l.16.4-.07-1-.15.58c-.19-.55-.47.06-.36-.66,0,.14,0-.55.22-.83h0a1.36,1.36,0,0,1-.15-.94c.12-.11.41.08.49,0-.31-.26-.08-1.27-.42-1.6a.3.3,0,0,0,.32.08l-.26-.23c.08-.25.12-.28.28-.24.05-.76-.47.24-.27-.66,0,.07.06,0,.1.18.1-.9-.16-1.74,0-2.56.38-.25.09.72.41.44a28.41,28.41,0,0,1-.36-3.63l0,.22c-.53-.16.26-.86,0-1.45,0,.15.29.19.23.15a12.69,12.69,0,0,0-.29-2.81l.13.14c.12-.46.07-1.22.14-1.73-.14-.15-.12-.43-.32-.26.78-1.55-.41-3,.23-4.34,0,.17.12.39.12.26l-.12-1.17c-.23.09-.14.15-.32.4a1.26,1.26,0,0,1-.25-.77c.16.53.38,0,.5-.23-.07,0-.14,0-.22,0,.41-.62-.46-.11-.18-.94l.12,0a3,3,0,0,1-.19-.94c.27-.14.12.33.34.36,0-.48-.5-.94-.24-1.37.08.2.08.49.15.69a1.29,1.29,0,0,0,.29-.87v0l.14-.81-.08.21c-.7-.6-.13-1.21-.59-2,.44.78.25.13.56.19.08-.21.17-.52.26-.43-.24-.38.19-.63-.16-1.16.09,0,0-.41.25-.32-.08-.49-.17.11-.29.07-.34-.75.4-1.78-.06-2.87-.18-.94-.51-1.11-.68-2,.16-.3.36.24.36.24a2.15,2.15,0,0,0,0-1.28c.09.09.16,0,.27-.14,0-.36-.35-.24-.21-.71a1.37,1.37,0,0,1,.39.35c-.09-.42-.27-.84-.36-1.27.17-.12.26.26.37.41-.08-.49-.15-1.27-.42-1.42l-.1.31c0-.18.23-.09.28,0,.21.42-.09.61-.19.63l-.06-.31c-.57.32.09,1.26.06,1.88L461,6l.35.65c-.11.13-.34.23-.41-.08-.2.45.15.4-.08.78,0,0,0,0-.07,0l.12.44c-.08-.09-.29.07-.23-.2-.24.79.31,1.27,0,1.57l0-.07c.14,1.1.31.11.66.93l-.75.55.31.11c0,.11,0,.34-.16.3.21.42.13-.08.33.17-.28.54.13,1.5-.36,1.62.24.2.18-.52.35.06-.53.17.08.67-.16,1.17-.27-.15-.12-.62-.36-.13.45.3-.1,1,0,1.39.37,0,.16.91.28,1.62a10.75,10.75,0,0,0-.33,2l-.07,0c.37.13.3.81.38,1.3-.22,0-.31-.11-.41-.38v.46a.89.89,0,0,1,.22.56l-.28-.12a6.26,6.26,0,0,1,.14,2c.26.05.72-.63.89.21-.14,0-.38.06-.44-.16,0,.07.12.26.06.4l-.23-.33c-.1.36.19.19.17.47-.2,0-.14.22-.3.18s.08-.26,0-.37a1.69,1.69,0,0,1-.3.85c.11,0,.26,0,.29.24,0,.61-.24.21-.34.57.13.15,0,.54.29.55,0,.18-.14.21-.22.28.13.32,0,1.49.35,1.13l0-.08a.07.07,0,0,1,0,.05h0c.3,1-.16,2.17,0,3.2h-.1a9.7,9.7,0,0,0,.28,1.82c0,.18-.18.43-.29.35a2.1,2.1,0,0,1,0,1.21c-.18-.48-.16.16-.13-.49-.08.61-.24.75,0,1.41-.26-.22-.32.46-.25.76l.19-.43a5.37,5.37,0,0,1,0,.9l-.33-.16c-.41,1.26.68,2.27,0,3.22.23.34.16-.68.43-.38,0,.58-.52,1.18-.52,1.36-.18.79.49.74.36,1.57.12-.11.44-.21.55.41-.05.58-.5.71-.6.34,0-.13,0-.2.07-.2,0-.18-.09-.43-.22-.2l.12.08c-.12.28-.11,1.08-.31.89.12.44.2.19.26-.13-.17.74,0,1.15-.12,1.92.07-.12.21-.24.2-.12-.14,1.12.23.5.28,1.26-.18.43-.43-.16-.28.6-.12.47-.31.1-.41-.08.23.69-.15,1.3-.19,1.69l-.1-.36a2,2,0,0,1,.06.58l.23-.21c0,.22,0,.4-.14.39.16.23.4-.17.61.27-.12.29.13.88-.19,1,.11-.91-.31.1-.36-.67a1.47,1.47,0,0,1,0,.55s-.06,0-.08-.09c-.28.86.35.39.35,1.29-.18-.12-.34.2-.3.35,0-.36.29-.17.43.16-.14.57.1.62.09.92l.06-.34c.18.12.16.4.21.8-.14,0-.09-.36-.15-.22.31.45-.33,1-.12,1.62-.12.29-.33,0-.41.28.23.7-.25.75-.06,1.48.24-.21.19-.24.42.27l-.17-1.2.35.77c0-.36-.15-.76-.11-1,.19.37.13.33.33.16-.36.49.21,1,0,1.55l-.59,0c-.27.86.3,1.53.15,2.65l.1-.36c.24.15,0,.69.13,1.05-.2,0-.27.19-.39.35.15,0,0,.82.38.92l-.26.5c-.11.9.56,1,.5,1.89-.22-.26-.36.13-.51-.45,0,.29,0,.55.1.56-.13.17.26.8.08,1.07.08.12.29.16.27.48,0,0-.1,0-.1,0s.14.51.36.23c-.62.89,0,2.49-.49,3.27.07.63.13,1.39.15,2-.06,0-.1,0-.08-.11-.19.79.56.49.36,1.39-.32.46-.17-.48-.29-.19-.65.12.08,1.08-.29,1.69l0-.15c-.22.47.24,1.13.2,1.89,0,0-.06,0-.1,0a6.14,6.14,0,0,1,.53,2.22c-.25-.23-.13-.33-.39-.19,0,.33.41-.1.49.55-.14.22-.26.69-.54.75l0-.62c-.35.32,0,.8,0,1.12l-.16,0c.05.94.44,1,.41,2l.12-.11c.39.56-.22.47.07,1l-.39.17a14.78,14.78,0,0,1,.45,1.93,6.72,6.72,0,0,1-.61-1.61,3.24,3.24,0,0,0,.22,1.42c0-.15-.13-.33-.07-.48a2.94,2.94,0,0,1,.45,1.75c-.76-.13-.19,1.88-.78,2.4.28,1.28-.12,2.53-.08,4,.6-.53,0,.43.63.34,0,.35,0,.48,0,.51l-.37,1c-.17.25-.13-.33-.27-.3-.05.76-.26.32-.42.82.22-.1.31.26.23.69l.28-.6c.33,1-.51.91-.19,2l-.19-.34c.11.55,0,2,.49,2.56-.07.09-.24.22-.29,0-.07,1.31.53,2.91.22,3.93l-.15-.1c.05.25.29.43.14.73-.07,0-.15-.1-.16,0a1.9,1.9,0,0,1,.17,1l-.17-.28c-.19,1.28.41,2,.52,3-.44,0-.59,1-.66,1.51l-.06,0a20.59,20.59,0,0,0,.54,3.9c-.48.85-.2,2.89-.47,4.27.08-.21.34,0,.39.27s.3.9-.1.84v-.11c-.4.24-.3.9-.31,1.42l.53.09c-.77,1.35.28,3.54-.4,4.28.13.33.13.73.26,1h-.28a13.22,13.22,0,0,0,0,2.47l-.21-.23c0,.63.82.8.84,1.38L460,127c0,1.1-.36,2.22,0,3.3a.23.23,0,0,1-.2-.22c0,.51-.29,2,.29,1.81-.37,0,0,1.14.13,1.73l-.27-.09a2,2,0,0,1,.55,1.22c0,.16-.23.14-.15-.08-.15.55.26.43.11,1.1l-.18-.25c0,.57.08.53.28.84s-.07,1.08-.32,1.16a.71.71,0,0,1,.29.73c-.1,0-.16-.08-.18-.14-.19.95.32,1.41.05,2.07a.18.18,0,0,0-.17.11,12.77,12.77,0,0,1,0-1.31c-.25,0-.3.61-.65.12a4.1,4.1,0,0,1,.49,1.93l-.09.08,0-.07a.8.8,0,0,0,0,.38,2.14,2.14,0,0,0-.07.49c-.22.07-.12.7-.13,1,.28,0,.24.37.47,0,0,0,0-.06-.05-.26a.25.25,0,0,0,0-.13l0,0c0-.2,0-.46,0-.76a.83.83,0,0,1,.11.83c.18.16.36.33.45.43-.39.41-.6,1.21-.84,1.33.15.93.1,2.19.63,2.77.06.26-.15.3-.24.4-.05-.15,0-.33-.12-.41.14.52.05,1.56.42,1.69-.16.66-.34-.38-.28.54l-.11-.12c-.59,1.8.94,2.92.19,4.92,0-.14.06-.21.13-.24-.34,2.28.31,4.69-.22,6.94-.11.63.13.7.31,1.09l-.3.14.34.67c.26.94-.74,1.63-.25,2.83l.2-.16c0,.43.12,1.36-.11,1.29,0,0,.21.14.1.31h-.16l.27,1.06c-.11.82-.62-.13-.65,1.06.06.45.46,1.27.56,1.1s.1-.46.26-.47l.08.41c.47.07.94.38,1.27-.62l-.29-.69.23-.22v.58c.22-.33,0-.54-.1-.78a.46.46,0,0,0,.25-.29l-.45-.68c.18-.08.36.31.46-.15-.2-.32-.4.31-.54-.22.21-.33.38-.24.2-.63.12-.05.2,0,.25.19-.14-.35-.06-.92-.31-1.1.27-.35-.06-1.17.38-1.14a2.07,2.07,0,0,1-.37-.93c.53.59,0-1.19.6-1-.47-.43-.21-1.55-.47-2.31,0,0,.11.12.09.19a2.69,2.69,0,0,1,.27-.83c-.39-.06-.48-.72-.73-1.08.38-.53.46.32.83.15-.32,0-.32-.91-.58-.74.23-.4.11-.34.43-.55-.49-.07-.08-.37-.38-.71.24-.58.46-.15.31-.79C462.54,155.53,462.71,156.1,462.71,156.1Zm-.84-15.22h0c0,.13,0,.24,0,.31S461.88,141,461.87,140.88Zm0-1.28c0,.15,0,.35,0,.55a.12.12,0,0,1-.19-.13C461.72,140.09,461.78,139.79,461.86,139.6Zm-1.95,2.7c0-.2,0-.27.08-.29a2.73,2.73,0,0,0,0,.35l0,0A.36.36,0,0,1,459.91,142.3Z"/><path class="cls-1" d="M460.28,142.67a.19.19,0,0,1,0,.08.75.75,0,0,0,.07-.12l-.09-.07Z"/><path class="cls-1" d="M460.7,26.73v0a.15.15,0,0,1,0-.06S460.71,26.72,460.7,26.73Z"/><polygon class="cls-1" points="462.4 121.94 462.33 121.94 462.39 122.05 462.4 121.94"/><path class="cls-1" d="M461.66,19.69a.17.17,0,0,0,.08-.1A.31.31,0,0,0,461.66,19.69Z"/><path class="cls-1" d="M461.73,16.64l.1-.43A2.08,2.08,0,0,0,461.73,16.64Z"/><path class="cls-1" d="M461.87,14.3a.41.41,0,0,0-.12,0h0Z"/><path class="cls-1" d="M462.2,51.5a.28.28,0,0,0,0,.09C462.26,51.8,462.24,51.66,462.2,51.5Z"/><path class="cls-1" d="M461.54,40.43a2.2,2.2,0,0,1,.13.36C461.7,40.59,461.7,40.44,461.54,40.43Z"/><path class="cls-1" d="M462.54,63.86h0v0Z"/><path class="cls-1" d="M461.67,41.3a1,1,0,0,0,0-.51A1.46,1.46,0,0,0,461.67,41.3Z"/><path class="cls-1" d="M462,4.16l0-.11H462Z"/><path class="cls-1" d="M462,4l0-.13C461.93,4,461.93,4,462,4Z"/><path class="cls-1" d="M461.86,3.65l.07.26C461.93,3.82,461.94,3.71,461.86,3.65Z"/><path class="cls-1" d="M461.86,7.26l.11,0A.16.16,0,0,0,461.86,7.26Z"/><path class="cls-1" d="M461.89,8.2a2.5,2.5,0,0,0,.16-.87l-.08,0C462.12,7.44,461.72,8,461.89,8.2Z"/><path class="cls-1" d="M460.63,12.13l.09-.79c-.11.14-.26.32-.29,0C460.11,12.3,460.68,11.1,460.63,12.13Z"/><path class="cls-1" d="M460.48,14.58c-.05-.43-.16,0-.22,0C460.36,14.83,460.38,14.89,460.48,14.58Z"/><path class="cls-1" d="M460.48,32.25l-.26,0C460.26,32.53,460.32,32.21,460.48,32.25Z"/><polygon class="cls-1" points="461.8 35.63 461.96 35.31 461.72 35.16 461.8 35.63"/><polygon class="cls-1" points="459.98 37.62 459.94 37.48 460.03 38.02 459.98 37.62"/><path class="cls-1" d="M460.07,67.3l.31-.1C460.33,67,460,66.93,460.07,67.3Z"/><path class="cls-1" d="M460.39,80.11a.63.63,0,0,0-.11.73A3.68,3.68,0,0,0,460.39,80.11Z"/><polygon class="cls-1" points="459.87 118.54 459.77 118.28 459.86 118.77 459.87 118.54"/></g><g id="_群組_3" data-name="&lt;群組&gt;"><path class="cls-1" d="M370.33,1.3c-.09-.09-.28,0-.24.2l.33.18Z"/><path class="cls-1" d="M369.71,2.94c.17.29.45.63.75.44-.32-.29-.18-.36-.56-.66,0-.25.1-.43.23-.39-.09-.09.07-.38-.14-.51A1,1,0,0,0,369.93,3C369.86,3.05,369.78,3,369.71,2.94Z"/><path class="cls-1" d="M369.2,26.91l0-.15A.33.33,0,0,0,369.2,26.91Z"/><path class="cls-1" d="M369,41.76c0-.11,0-.16-.07-.17S369,41.79,369,41.76Z"/><path class="cls-1" d="M368.65,44.3a.89.89,0,0,0,0-.15A.17.17,0,0,0,368.65,44.3Z"/><path class="cls-1" d="M369.2,26.91l-.11.4C369.2,27.34,369.17,27.1,369.2,26.91Z"/><path class="cls-1" d="M370.51,6.25a.58.58,0,0,0-.08-.22l0,.21Z"/><path class="cls-1" d="M368.93,20.37v-.13l-.13-.1Z"/><path class="cls-1" d="M368.88,15.34c0,.12.27.15.39.2a.38.38,0,0,1-.19-.25A.45.45,0,0,0,368.88,15.34Z"/><path class="cls-1" d="M369.37,7.38l0-.15S369.36,7.33,369.37,7.38Z"/><path class="cls-1" d="M368.87,24a.23.23,0,0,0-.1.05A.16.16,0,0,0,368.87,24Z"/><path class="cls-1" d="M371,164.47h-.05S371,164.51,371,164.47Z"/><path class="cls-1" d="M369.59,170.3l0-.08-.15,0Z"/><path class="cls-1" d="M368.29,48.94v0C368.27,48.79,368.27,48.86,368.29,48.94Z"/><path class="cls-1" d="M368.5,91.53c.25-.48.32.79.6.06C369,91.66,368.66,90.93,368.5,91.53Z"/><path class="cls-1" d="M370.48,6.38v.21A.72.72,0,0,0,370.48,6.38Z"/><path class="cls-1" d="M369.1,91.59h0l0-.08A.69.69,0,0,1,369.1,91.59Z"/><path class="cls-1" d="M368.46,59.63a.43.43,0,0,0,.12-.11S368.52,59.55,368.46,59.63Z"/><path class="cls-1" d="M368.86,51.66l0,.2A.54.54,0,0,0,368.86,51.66Z"/><path class="cls-1" d="M368.86,63.76a.46.46,0,0,0,0,.29l0,0A.24.24,0,0,1,368.86,63.76Z"/><path class="cls-1" d="M368.86,68.07l.06-.08s0-.1,0-.14Z"/><path class="cls-1" d="M370.85,151.39a.79.79,0,0,1-.26.2C370.79,151.52,370.87,152.16,370.85,151.39Z"/><path class="cls-1" d="M370.36,6.25a.18.18,0,0,1,.12.13s0-.1,0-.14S370.38,6.22,370.36,6.25Z"/><path class="cls-1" d="M371.08,63.94l-.05.68A4.61,4.61,0,0,0,371.08,63.94Z"/><path class="cls-1" d="M370.81,120.51l0,.16A.21.21,0,0,0,370.81,120.51Z"/><path class="cls-1" d="M371.08,66.65a1,1,0,0,0-.2.39s0,.06.07.07Z"/><path class="cls-1" d="M370.59,151.59Z"/><path class="cls-1" d="M371.26,156.1c0-.66-.36-.31-.58-.45-.1-.78.28-.36.47-.62-.1-.49-.44-.86-.43-1.22.06,0,.09-.1.16,0-.29-.51,0-1.52-.38-2.12a.22.22,0,0,1,.09-.08.82.82,0,0,1-.51.09c0-.29-.23-.54,0-.65,0,.18.09.2.17.28l-.11-.31c.35-.27.12.42.38.42a5.74,5.74,0,0,1-.3-1.75c.34-.09.11,1.07.41.46l-.13.71c.54-.54,0,.43.54-.07.1-.93-.17-1-.07-2-.19-.21-.28.07-.47-.14-.34-1.32.85-1,.4-2-.23-.25-.66-.35-.43-1l.39.24c0-.91-.56-.52-.3-1.46.15.17.13.71.17.57.31-.61-.21-.43-.21-.9l.34-.1c-.06-1-.3-2-.36-3.08.1.06.2.24.31,0a15.54,15.54,0,0,1,.24-4.15l-.29-.5c0-.11.13-.21.19-.09.11-.5-.19,0-.31-.27s.17-.37.26-.19a7.28,7.28,0,0,1-.22-3.47l.09.18c.12-.73-.6-.82-.33-1.5l.05.13c.13-1.59-.14-3.34.3-4.54-.42-.23.19-1.57-.4-1.67a6.92,6.92,0,0,0,.6-1.92c0-.34-.37-.51-.43-.93h.3l-.32-.57.37-.31-.08-.39c0,.16-.14.33-.23.31a1.85,1.85,0,0,1,.38-1.52l-.27-1.45c.13,0,.17.27.25.46-.31-.77.33-.14,0-.85-.07.1-.19-.05-.25-.07a3.66,3.66,0,0,0,.11-1.76l.21.11c.06-1.08-.1-2.28-.1-3.49-.09.44-.46.34-.5,0l.33-.14c-.2-.23-.13.37-.37-.1,0-.45.37-.31.47-.05l-.11-.55c.1,0,.15.1.27.13-.2-.22.33-1,0-1.27l.1,0c0-1.21-.11-1.76-.13-2.75-.28,0-.22-.4-.44-.7a15.36,15.36,0,0,0,.28-2.4c-.14-.62-.24-.18-.4-.46.25,0,.23-.92.41-.47a16.8,16.8,0,0,0-.26-2.67c-.1.15-.15.31-.23.23-.05-.24.1-.55.23-.52l0,.07c-.38-1.49.75-3.44.22-4.63l0,.07-.28-1.24c.05-.56.2.34.35-.08-.42-1.32.07-2.09-.22-3.19.76-.84-.05-3,.43-4.14l-.18.06c-.17-.29.11-.35.15-.57-.14,0-.16.32-.26.13a54.48,54.48,0,0,1,.42-7.72c.05-.94-.92-.54-.5-1.72l.33.34c-.39-1.9,0-3.87-.32-5.73.08.11.18.12.18.3.24-.39,0-1.45-.19-1.46,0-.28.18-.06.28-.24.14-.39-.31-1-.07-1.19,0,0,.08.11.1.18-.12-.26,0-1.19-.25-1,.13-.7-.12-1.33,0-1.88-.31-.37.15-1.2-.29-1.31.45,0,.37-1.22.15-1.66.14.15.15-.38.34-.21,0-.5-.1-1-.33-.87.54-.93-.43-1.86.26-2.38-.24-1.49-.41-2.87-.51-4.21.45,0,0,1.48.52,1.42a12.36,12.36,0,0,1-.47-3.27c.06-.32.2.19.27.3-.18-1.27.05-2.46-.2-3.59,0,0,.09.13.12.24,0-.22.07-.52-.14-.49l.06.22c-.3.35-.62-.89-.78-.93.59.38.15-1.12.89-.52,0-.14-.14-.33-.27-.29,0-.22.12-.29.27-.07-.11-.8-.33-.51-.32-1.24.1,0,.14.15.25.23a2.06,2.06,0,0,1-.3-1.35c.06,0,.14,0,.14.15,0-1.05-.52-1.79-.33-2.94.43.34.14-.39.51-.45l-.11-.62-.18.24c0-.54-.27-1-.14-1.48l.15.4-.07-1-.14.58c-.19-.55-.47.06-.37-.66,0,.14,0-.55.22-.83h0a1.36,1.36,0,0,1-.16-.94c.12-.11.42.08.5,0-.32-.26-.09-1.27-.42-1.6a.29.29,0,0,0,.31.08l-.25-.23c.08-.25.12-.28.27-.24.05-.76-.47.24-.27-.66,0,.07.06,0,.1.18.11-.9-.16-1.74,0-2.56.37-.25.09.72.4.44a30.34,30.34,0,0,1-.36-3.63l0,.22c-.53-.16.26-.86,0-1.45,0,.15.3.19.24.15a12.79,12.79,0,0,0-.3-2.81l.14.14a15.79,15.79,0,0,0,.13-1.73c-.14-.15-.11-.43-.31-.26.77-1.55-.42-3,.23-4.34,0,.17.12.39.12.26l-.13-1.17c-.23.09-.14.15-.32.4a1.33,1.33,0,0,1-.24-.77c.15.53.37,0,.5-.23-.07,0-.15,0-.22,0,.41-.62-.47-.11-.19-.94l.12,0a3.27,3.27,0,0,1-.19-.94c.27-.14.13.33.35.36,0-.48-.51-.94-.24-1.37.07.2.07.49.15.69a1.33,1.33,0,0,0,.28-.87v0l.14-.81-.09.21c-.69-.6-.13-1.21-.58-2,.43.78.25.13.55.19.09-.21.18-.52.26-.43-.24-.38.2-.63-.16-1.16.1,0,0-.41.25-.32-.07-.49-.17.11-.29.07-.33-.75.41-1.78-.05-2.87-.19-.94-.52-1.11-.68-2,.15-.3.35.24.35.24a2.15,2.15,0,0,0,0-1.28c.08.09.16,0,.27-.14,0-.36-.36-.24-.22-.71a1.39,1.39,0,0,1,.4.35c-.09-.42-.28-.84-.36-1.27.17-.12.25.26.36.41-.07-.49-.15-1.27-.42-1.42l-.09.31c0-.18.23-.09.28,0,.21.42-.1.61-.19.63l-.07-.31c-.57.32.09,1.26.06,1.88L369.59,6l.34.65c-.11.13-.34.23-.4-.08-.21.45.15.4-.08.78,0,0-.06,0-.08,0l.13.44c-.09-.09-.3.07-.24-.2-.24.79.32,1.27,0,1.57l0-.07c.14,1.1.3.11.66.93l-.75.55.3.11c0,.11,0,.34-.15.3.2.42.13-.08.33.17-.28.54.13,1.5-.36,1.62.23.2.18-.52.34.06-.52.17.09.67-.15,1.17-.27-.15-.13-.62-.37-.13.46.3-.1,1,0,1.39.36,0,.15.91.27,1.62a11.75,11.75,0,0,0-.33,2l-.06,0c.37.13.3.81.37,1.3-.22,0-.3-.11-.4-.38v.46a.84.84,0,0,1,.22.56l-.27-.12a6.87,6.87,0,0,1,.14,2c.25.05.71-.63.88.21-.14,0-.37.06-.43-.16a.69.69,0,0,1,.06.4l-.24-.33c-.1.36.2.19.17.47-.19,0-.14.22-.29.18s.08-.26,0-.37a1.52,1.52,0,0,1-.3.85c.11,0,.27,0,.29.24,0,.61-.24.21-.34.57.14.15,0,.54.29.55,0,.18-.14.21-.22.28.13.32,0,1.49.35,1.13l0-.08a.11.11,0,0,0,0,.05h0c.29,1-.17,2.17,0,3.2h-.1a8.94,8.94,0,0,0,.28,1.82c0,.18-.18.43-.3.35a2.1,2.1,0,0,1,0,1.21c-.17-.48-.15.16-.12-.49-.09.61-.25.75,0,1.41-.25-.22-.32.46-.24.76l.18-.43a4.48,4.48,0,0,1,0,.9l-.33-.16c-.4,1.26.69,2.27,0,3.22.23.34.17-.68.44-.38a6.34,6.34,0,0,1-.53,1.36c-.18.79.49.74.36,1.57.12-.11.44-.21.55.41,0,.58-.5.71-.59.34,0-.13,0-.2.07-.2-.05-.18-.1-.43-.23-.2l.12.08c-.12.28-.11,1.08-.3.89.11.44.19.19.26-.13-.18.74,0,1.15-.13,1.92.07-.12.21-.24.21-.12-.15,1.12.22.5.28,1.26-.19.43-.44-.16-.28.6-.13.47-.32.1-.42-.08.23.69-.15,1.3-.19,1.69l-.09-.36a2.44,2.44,0,0,1,.05.58l.24-.21c0,.22-.05.4-.14.39.15.23.39-.17.6.27-.12.29.13.88-.18,1,.11-.91-.32.1-.37-.67a1.26,1.26,0,0,1,0,.55s-.07,0-.09-.09c-.28.86.36.39.35,1.29-.18-.12-.34.2-.3.35,0-.36.3-.17.43.16-.13.57.11.62.09.92l.07-.34c.17.12.15.4.21.8-.14,0-.1-.36-.16-.22.31.45-.32,1-.11,1.62-.12.29-.34,0-.42.28.23.7-.24.75-.05,1.48.24-.21.18-.24.41.27l-.17-1.2.35.77c0-.36-.15-.76-.11-1,.2.37.14.33.33.16-.35.49.21,1,0,1.55l-.59,0c-.26.86.3,1.53.16,2.65l.1-.36c.23.15,0,.69.13,1.05-.2,0-.27.19-.4.35.15,0,0,.82.38.92l-.25.5c-.11.9.56,1,.49,1.89-.21-.26-.35.13-.51-.45,0,.29,0,.55.1.56-.12.17.27.8.08,1.07.09.12.29.16.28.48,0,0-.1,0-.1,0s.13.51.35.23c-.62.89,0,2.49-.48,3.27.06.63.13,1.39.14,2-.06,0-.1,0-.08-.11-.18.79.57.49.36,1.39-.31.46-.17-.48-.29-.19-.65.12.09,1.08-.29,1.69l0-.15c-.22.47.25,1.13.2,1.89,0,0-.06,0-.1,0a6.35,6.35,0,0,1,.54,2.22c-.26-.23-.14-.33-.4-.19,0,.33.42-.1.49.55-.14.22-.26.69-.54.75v-.62c-.36.32,0,.8,0,1.12l-.16,0c.05.94.45,1,.42,2l.12-.11c.39.56-.22.47.07,1l-.4.17a14.59,14.59,0,0,1,.46,1.93,7.18,7.18,0,0,1-.62-1.61c0,.36,0,1.23.23,1.42,0-.15-.14-.33-.08-.48a2.94,2.94,0,0,1,.46,1.75c-.77-.13-.19,1.88-.79,2.4.28,1.28-.12,2.53-.07,4,.59-.53,0,.43.62.34,0,.35,0,.48,0,.51l-.36,1c-.18.25-.14-.33-.27-.3-.05.76-.26.32-.43.82.22-.1.32.26.23.69l.29-.6c.32,1-.52.91-.19,2l-.2-.34c.12.55,0,2,.49,2.56-.07.09-.24.22-.28,0-.08,1.31.52,2.91.22,3.93l-.15-.1c0,.25.28.43.13.73-.06,0-.15-.1-.16,0a2,2,0,0,1,.18,1l-.17-.28c-.2,1.28.41,2,.51,3-.44,0-.58,1-.65,1.51l-.07,0a22.35,22.35,0,0,0,.54,3.9c-.48.85-.2,2.89-.47,4.27.08-.21.35,0,.39.27s.31.9-.1.84v-.11c-.4.24-.29.9-.3,1.42l.53.09c-.77,1.35.28,3.54-.41,4.28.13.33.13.73.26,1h-.28a14.14,14.14,0,0,0,0,2.47l-.2-.23c0,.63.81.8.83,1.38l-.42.17c0,1.1-.37,2.22,0,3.3a.22.22,0,0,1-.2-.22c0,.51-.29,2,.29,1.81-.38,0,0,1.14.13,1.73l-.28-.09a1.93,1.93,0,0,1,.55,1.22c0,.16-.22.14-.15-.08-.15.55.26.43.12,1.1l-.18-.25c0,.57.07.53.28.84s-.07,1.08-.32,1.16a.71.71,0,0,1,.28.73c-.09,0-.15-.08-.18-.14-.19.95.32,1.41.05,2.07a.2.2,0,0,0-.17.11,10.85,10.85,0,0,1,.05-1.31c-.26,0-.31.61-.66.12a4.1,4.1,0,0,1,.49,1.93.36.36,0,0,1-.09.08l0-.07a.61.61,0,0,0,0,.38,2.18,2.18,0,0,0-.08.49c-.21.07-.11.7-.13,1,.29,0,.24.37.47,0,0,0,0-.06,0-.26a.42.42,0,0,0,0-.13,0,0,0,0,1,0,0c0-.2,0-.46,0-.76a.79.79,0,0,1,.11.83c.18.16.37.33.46.43-.4.41-.61,1.21-.85,1.33.16.93.1,2.19.63,2.77.07.26-.15.3-.23.4-.06-.15-.05-.33-.12-.41.13.52.05,1.56.42,1.69-.17.66-.34-.38-.28.54l-.11-.12c-.59,1.8.94,2.92.18,4.92.05-.14.07-.21.13-.24-.33,2.28.31,4.69-.22,6.94-.1.63.13.7.31,1.09l-.3.14.35.67c.25.94-.74,1.63-.26,2.83l.2-.16c0,.43.12,1.36-.11,1.29,0,0,.21.14.1.31h-.15l.27,1.06c-.12.82-.63-.13-.66,1.06.06.45.46,1.27.57,1.1s.09-.46.25-.47l.08.41c.47.07.95.38,1.27-.62l-.28-.69.22-.22,0,.58c.21-.33,0-.54-.11-.78a.43.43,0,0,0,.25-.29l-.44-.68c.18-.08.36.31.46-.15-.21-.32-.41.31-.55-.22.22-.33.39-.24.21-.63.12-.05.19,0,.25.19-.15-.35-.06-.92-.31-1.1.26-.35-.07-1.17.37-1.14a2.2,2.2,0,0,1-.36-.93c.53.59,0-1.19.59-1-.47-.43-.21-1.55-.47-2.31,0,0,.11.12.09.19a2.69,2.69,0,0,1,.27-.83c-.39-.06-.48-.72-.72-1.08.38-.53.46.32.82.15-.32,0-.31-.91-.58-.74.23-.4.11-.34.44-.55-.49-.07-.08-.37-.38-.71.24-.58.45-.15.3-.79C371.09,155.53,371.26,156.1,371.26,156.1Zm-.85-15.22h0c0,.13,0,.24,0,.31S370.42,141,370.41,140.88Zm0-1.28a4.81,4.81,0,0,0,0,.55.13.13,0,0,1-.2-.13C370.27,140.09,370.33,139.79,370.41,139.6Zm-2,2.7c0-.2,0-.27.07-.29s0,.2,0,.35l0,0A.39.39,0,0,1,368.46,142.3Z"/><path class="cls-1" d="M368.83,142.67s0,0,0,.08l.06-.12-.09-.07A.41.41,0,0,1,368.83,142.67Z"/><path class="cls-1" d="M369.24,26.73v0a.09.09,0,0,1,0-.06Z"/><polygon class="cls-1" points="370.94 121.94 370.87 121.94 370.94 122.05 370.94 121.94"/><path class="cls-1" d="M370.21,19.69a.21.21,0,0,0,.07-.1S370.24,19.64,370.21,19.69Z"/><path class="cls-1" d="M370.27,16.64l.1-.43C370.32,16.4,370.29,16.53,370.27,16.64Z"/><path class="cls-1" d="M370.41,14.3a.34.34,0,0,0-.12,0h0Z"/><path class="cls-1" d="M370.74,51.5s0,.06,0,.09C370.81,51.8,370.79,51.66,370.74,51.5Z"/><path class="cls-1" d="M370.09,40.43a2.2,2.2,0,0,1,.13.36C370.24,40.59,370.24,40.44,370.09,40.43Z"/><path class="cls-1" d="M371.08,63.86h0v0Z"/><path class="cls-1" d="M370.21,41.3a.89.89,0,0,0,0-.51A1.46,1.46,0,0,0,370.21,41.3Z"/><path class="cls-1" d="M370.54,4.16V4.05h0Z"/><path class="cls-1" d="M370.51,4l0-.13C370.47,4,370.47,4,370.51,4Z"/><path class="cls-1" d="M370.4,3.65l.07.26C370.47,3.82,370.48,3.71,370.4,3.65Z"/><path class="cls-1" d="M370.41,7.26l.1,0A.13.13,0,0,0,370.41,7.26Z"/><path class="cls-1" d="M370.44,8.2c0-.22.22-.56.15-.87l-.08,0C370.66,7.44,370.27,8,370.44,8.2Z"/><path class="cls-1" d="M369.18,12.13l.08-.79c-.11.14-.25.32-.28,0C368.66,12.3,369.22,11.1,369.18,12.13Z"/><path class="cls-1" d="M369,14.58c0-.43-.16,0-.22,0C368.9,14.83,368.93,14.89,369,14.58Z"/><path class="cls-1" d="M369,32.25l-.26,0C368.8,32.53,368.86,32.21,369,32.25Z"/><polygon class="cls-1" points="370.34 35.63 370.5 35.31 370.27 35.16 370.34 35.63"/><polygon class="cls-1" points="368.52 37.62 368.48 37.48 368.58 38.02 368.52 37.62"/><path class="cls-1" d="M368.61,67.3l.32-.1C368.87,67,368.52,66.93,368.61,67.3Z"/><path class="cls-1" d="M368.93,80.11a.61.61,0,0,0-.1.73A4.38,4.38,0,0,0,368.93,80.11Z"/><polygon class="cls-1" points="368.42 118.54 368.31 118.28 368.4 118.77 368.42 118.54"/></g><g id="_群組_4" data-name="&lt;群組&gt;"><path class="cls-1" d="M278.06,1.3c-.09-.09-.29,0-.25.2l.33.18Z"/><path class="cls-1" d="M277.44,2.94c.16.29.44.63.75.44-.32-.29-.19-.36-.57-.66,0-.25.11-.43.23-.39-.08-.09.08-.38-.13-.51A1,1,0,0,0,277.66,3C277.59,3.05,277.5,3,277.44,2.94Z"/><path class="cls-1" d="M276.93,26.91l0-.15A.24.24,0,0,0,276.93,26.91Z"/><path class="cls-1" d="M276.74,41.76c0-.11,0-.16-.07-.17S276.72,41.79,276.74,41.76Z"/><path class="cls-1" d="M276.38,44.3a.89.89,0,0,0,0-.15A.17.17,0,0,0,276.38,44.3Z"/><path class="cls-1" d="M276.93,26.91l-.11.4C276.93,27.34,276.9,27.1,276.93,26.91Z"/><path class="cls-1" d="M278.24,6.25a.85.85,0,0,0-.09-.22,1.55,1.55,0,0,1,0,.21Z"/><path class="cls-1" d="M276.66,20.37v-.13l-.14-.1Z"/><path class="cls-1" d="M276.61,15.34c0,.12.27.15.39.2a.35.35,0,0,1-.19-.25A.42.42,0,0,0,276.61,15.34Z"/><path class="cls-1" d="M277.1,7.38l0-.15A.66.66,0,0,1,277.1,7.38Z"/><path class="cls-1" d="M276.6,24a.23.23,0,0,0-.1.05A.16.16,0,0,0,276.6,24Z"/><path class="cls-1" d="M278.71,164.47h0S278.71,164.51,278.71,164.47Z"/><path class="cls-1" d="M277.32,170.3l0-.08-.16,0Z"/><path class="cls-1" d="M276,48.94v0C276,48.79,276,48.86,276,48.94Z"/><path class="cls-1" d="M276.23,91.53c.25-.48.32.79.6.06C276.72,91.66,276.39,90.93,276.23,91.53Z"/><path class="cls-1" d="M278.2,6.38a1.48,1.48,0,0,1,0,.21A.64.64,0,0,0,278.2,6.38Z"/><path class="cls-1" d="M276.83,91.59h0l0-.08A.69.69,0,0,1,276.83,91.59Z"/><path class="cls-1" d="M276.19,59.63a.43.43,0,0,0,.12-.11S276.25,59.55,276.19,59.63Z"/><path class="cls-1" d="M276.59,51.66l0,.2A.54.54,0,0,0,276.59,51.66Z"/><path class="cls-1" d="M276.59,63.76a.46.46,0,0,0,0,.29l0,0A.24.24,0,0,1,276.59,63.76Z"/><path class="cls-1" d="M276.59,68.07a.56.56,0,0,1,.05-.08s0-.1,0-.14Z"/><path class="cls-1" d="M278.57,151.39a.67.67,0,0,1-.25.2C278.52,151.52,278.59,152.16,278.57,151.39Z"/><path class="cls-1" d="M278.08,6.25c.07,0,.11.06.12.13a.61.61,0,0,0,0-.14A.09.09,0,0,0,278.08,6.25Z"/><path class="cls-1" d="M278.8,63.94l0,.68A4.7,4.7,0,0,0,278.8,63.94Z"/><path class="cls-1" d="M278.53,120.51l0,.16A.22.22,0,0,0,278.53,120.51Z"/><path class="cls-1" d="M278.8,66.65a1,1,0,0,0-.19.39s0,.06.07.07Z"/><path class="cls-1" d="M278.32,151.59Z"/><path class="cls-1" d="M279,156.1c0-.66-.37-.31-.58-.45-.1-.78.27-.36.46-.62-.09-.49-.43-.86-.42-1.22.06,0,.08-.1.16,0-.29-.51,0-1.52-.38-2.12a.22.22,0,0,1,.09-.08.83.83,0,0,1-.51.09c0-.29-.23-.54,0-.65,0,.18.09.2.17.28l-.11-.31c.35-.27.12.42.38.42a5.45,5.45,0,0,1-.3-1.75c.34-.09.11,1.07.41.46l-.13.71c.54-.54,0,.43.54-.07.1-.93-.18-1-.08-2-.18-.21-.28.07-.46-.14-.34-1.32.85-1,.4-2-.23-.25-.66-.35-.43-1l.38.24c0-.91-.55-.52-.29-1.46.15.17.13.71.17.57.31-.61-.22-.43-.22-.9l.34-.1c0-1-.29-2-.36-3.08.1.06.21.24.31,0a15.54,15.54,0,0,1,.25-4.15l-.3-.5c0-.11.14-.21.19-.09.12-.5-.18,0-.3-.27s.17-.37.26-.19a7.16,7.16,0,0,1-.22-3.47l.08.18c.12-.73-.6-.82-.32-1.5l.05.13c.13-1.59-.14-3.34.3-4.54-.42-.23.19-1.57-.4-1.67a6.63,6.63,0,0,0,.59-1.92c0-.34-.36-.51-.43-.93h.31l-.32-.57.37-.31-.08-.39c0,.16-.14.33-.23.31a1.9,1.9,0,0,1,.37-1.52l-.26-1.45c.13,0,.17.27.25.46-.32-.77.32-.14,0-.85-.07.1-.18-.05-.24-.07a3.66,3.66,0,0,0,.11-1.76l.21.11c.05-1.08-.1-2.28-.1-3.49-.1.44-.46.34-.5,0l.33-.14c-.21-.23-.13.37-.37-.1,0-.45.37-.31.47-.05l-.11-.55c.1,0,.15.1.27.13-.2-.22.33-1,0-1.27l.09,0c0-1.21-.1-1.76-.12-2.75-.28,0-.22-.4-.45-.7a15.31,15.31,0,0,0,.29-2.4c-.14-.62-.24-.18-.41-.46.26,0,.24-.92.42-.47a16.8,16.8,0,0,0-.26-2.67c-.1.15-.15.31-.24.23,0-.24.11-.55.23-.52l0,.07c-.38-1.49.75-3.44.21-4.63l0,.07-.28-1.24c.05-.56.19.34.35-.08-.42-1.32.06-2.09-.22-3.19.76-.84-.05-3,.43-4.14l-.18.06c-.17-.29.1-.35.14-.57-.13,0-.16.32-.25.13a53,53,0,0,1,.42-7.72c.05-.94-.92-.54-.5-1.72l.33.34c-.39-1.9,0-3.87-.32-5.73.08.11.18.12.17.3.24-.39,0-1.45-.18-1.46,0-.28.18-.06.28-.24.14-.39-.31-1-.07-1.19,0,0,.08.11.1.18-.12-.26,0-1.19-.25-1,.13-.7-.13-1.33,0-1.88-.31-.37.15-1.2-.29-1.31.45,0,.36-1.22.15-1.66.14.15.14-.38.33-.21,0-.5-.09-1-.32-.87.54-.93-.44-1.86.26-2.38-.24-1.49-.41-2.87-.52-4.21.46,0,0,1.48.52,1.42a12.77,12.77,0,0,1-.46-3.27c.06-.32.19.19.27.3-.18-1.27,0-2.46-.2-3.59,0,0,.09.13.12.24,0-.22.07-.52-.14-.49l.06.22c-.3.35-.63-.89-.78-.93.59.38.15-1.12.89-.52,0-.14-.14-.33-.28-.29,0-.22.12-.29.28-.07-.11-.8-.33-.51-.32-1.24.1,0,.13.15.25.23a2,2,0,0,1-.3-1.35c.06,0,.13,0,.13.15,0-1.05-.51-1.79-.33-2.94.44.34.15-.39.52-.45l-.11-.62-.18.24c0-.54-.27-1-.15-1.48l.16.4-.07-1-.14.58c-.2-.55-.48.06-.37-.66,0,.14,0-.55.22-.83h0a1.36,1.36,0,0,1-.15-.94c.12-.11.41.08.49,0-.31-.26-.08-1.27-.42-1.6a.3.3,0,0,0,.32.08l-.25-.23c.08-.25.12-.28.27-.24.05-.76-.47.24-.27-.66,0,.07.06,0,.1.18.11-.9-.16-1.74,0-2.56.38-.25.1.72.41.44a28.41,28.41,0,0,1-.36-3.63l0,.22c-.53-.16.26-.86,0-1.45,0,.15.3.19.24.15a12.79,12.79,0,0,0-.3-2.81l.14.14a15.79,15.79,0,0,0,.13-1.73c-.14-.15-.12-.43-.31-.26.77-1.55-.42-3,.23-4.34,0,.17.11.39.11.26L278,20.29c-.23.09-.14.15-.32.4a1.26,1.26,0,0,1-.24-.77c.15.53.37,0,.5-.23-.07,0-.15,0-.22,0,.41-.62-.47-.11-.19-.94l.12,0a3.27,3.27,0,0,1-.19-.94c.27-.14.13.33.35.36,0-.48-.51-.94-.24-1.37.07.2.07.49.15.69a1.33,1.33,0,0,0,.28-.87v0l.14-.81-.08.21c-.7-.6-.13-1.21-.58-2,.43.78.25.13.55.19.08-.21.18-.52.26-.43-.24-.38.19-.63-.16-1.16.09,0,0-.41.25-.32-.07-.49-.17.11-.29.07-.33-.75.4-1.78-.05-2.87-.19-.94-.52-1.11-.68-2,.15-.3.35.24.35.24a2.23,2.23,0,0,0,0-1.28c.08.09.15,0,.26-.14,0-.36-.35-.24-.21-.71a1.37,1.37,0,0,1,.39.35c-.09-.42-.27-.84-.36-1.27.17-.12.26.26.37.41-.07-.49-.15-1.27-.42-1.42l-.1.31c0-.18.23-.09.28,0,.21.42-.09.61-.19.63l-.06-.31c-.57.32.09,1.26.06,1.88L277.31,6l.35.65c-.11.13-.34.23-.4-.08-.21.45.14.4-.09.78,0,0-.05,0-.07,0l.13.44c-.09-.09-.3.07-.24-.2-.24.79.31,1.27,0,1.57l0-.07c.14,1.1.31.11.67.93l-.76.55.31.11c0,.11,0,.34-.16.3.21.42.14-.08.33.17-.27.54.13,1.5-.35,1.62.23.2.18-.52.34.06-.53.17.09.67-.15,1.17-.27-.15-.13-.62-.37-.13.46.3-.1,1,0,1.39.36,0,.15.91.27,1.62a11.75,11.75,0,0,0-.33,2l-.06,0c.36.13.29.81.37,1.3-.22,0-.31-.11-.4-.38v.46a.84.84,0,0,1,.22.56l-.28-.12a6.26,6.26,0,0,1,.14,2c.26.05.72-.63.89.21-.14,0-.38.06-.43-.16,0,.07.11.26.05.4l-.23-.33c-.1.36.19.19.17.47-.19,0-.14.22-.29.18s.08-.26,0-.37a1.6,1.6,0,0,1-.3.85c.11,0,.26,0,.29.24,0,.61-.24.21-.34.57.14.15,0,.54.29.55,0,.18-.14.21-.22.28.13.32,0,1.49.35,1.13l0-.08s0,0,0,.05h0c.29,1-.17,2.17-.05,3.2h-.09a8.3,8.3,0,0,0,.28,1.82c0,.18-.19.43-.3.35a2.1,2.1,0,0,1,0,1.21c-.17-.48-.15.16-.13-.49-.08.61-.24.75,0,1.41-.25-.22-.32.46-.24.76l.18-.43a5.37,5.37,0,0,1,0,.9l-.33-.16c-.41,1.26.69,2.27,0,3.22.23.34.16-.68.44-.38-.05.58-.53,1.18-.53,1.36-.18.79.49.74.36,1.57.12-.11.44-.21.55.41s-.5.71-.59.34c0-.13,0-.2.06-.2,0-.18-.09-.43-.22-.2l.12.08c-.12.28-.11,1.08-.3.89.11.44.19.19.25-.13-.17.74,0,1.15-.12,1.92.07-.12.21-.24.21-.12-.15,1.12.22.5.27,1.26-.18.43-.43-.16-.28.6-.12.47-.31.1-.41-.08.23.69-.15,1.3-.19,1.69l-.1-.36a2,2,0,0,1,.06.58l.24-.21c-.05.22-.05.4-.15.39.16.23.4-.17.61.27-.12.29.13.88-.18,1,.1-.91-.32.1-.37-.67a1.28,1.28,0,0,1,0,.55s-.06,0-.08-.09c-.28.86.36.39.35,1.29-.18-.12-.34.2-.3.35,0-.36.3-.17.43.16-.14.57.1.62.09.92l.06-.34c.18.12.16.4.21.8-.13,0-.09-.36-.15-.22.31.45-.33,1-.11,1.62-.13.29-.34,0-.42.28.23.7-.24.75-.05,1.48.24-.21.18-.24.41.27l-.17-1.2.35.77c0-.36-.15-.76-.11-1,.19.37.13.33.33.16-.36.49.21,1,0,1.55l-.59,0c-.26.86.3,1.53.15,2.65l.11-.36c.23.15,0,.69.12,1.05-.19,0-.27.19-.39.35.15,0,0,.82.38.92l-.26.5c-.1.9.57,1,.5,1.89-.22-.26-.36.13-.51-.45,0,.29,0,.55.1.56-.12.17.26.8.08,1.07.08.12.29.16.27.48a.07.07,0,0,1-.09,0c.09,0,.13.51.35.23-.62.89,0,2.49-.49,3.27.07.63.13,1.39.15,2-.06,0-.1,0-.08-.11-.18.79.57.49.36,1.39-.32.46-.17-.48-.29-.19-.65.12.09,1.08-.29,1.69l0-.15c-.22.47.25,1.13.2,1.89,0,0-.06,0-.1,0a6.14,6.14,0,0,1,.53,2.22c-.25-.23-.13-.33-.39-.19,0,.33.42-.1.49.55-.14.22-.26.69-.54.75v-.62c-.36.32,0,.8-.05,1.12l-.16,0c.05.94.44,1,.42,2l.11-.11c.39.56-.21.47.08,1l-.4.17a14.59,14.59,0,0,1,.46,1.93,6.34,6.34,0,0,1-.62-1.61,3.24,3.24,0,0,0,.22,1.42c0-.15-.13-.33-.07-.48a3,3,0,0,1,.46,1.75c-.77-.13-.2,1.88-.79,2.4.28,1.28-.12,2.53-.08,4,.6-.53,0,.43.63.34,0,.35,0,.48,0,.51l-.36,1c-.18.25-.14-.33-.28-.3,0,.76-.26.32-.42.82.22-.1.32.26.23.69l.28-.6c.33,1-.51.91-.19,2l-.19-.34c.11.55,0,2,.49,2.56-.07.09-.24.22-.28,0-.08,1.31.52,2.91.22,3.93l-.15-.1c0,.25.28.43.13.73-.06,0-.15-.1-.16,0a1.9,1.9,0,0,1,.17,1l-.16-.28c-.2,1.28.41,2,.51,3-.44,0-.59,1-.66,1.51l-.06,0a22.35,22.35,0,0,0,.54,3.9c-.48.85-.2,2.89-.47,4.27.08-.21.34,0,.39.27s.3.9-.1.84v-.11c-.4.24-.29.9-.3,1.42l.52.09c-.76,1.35.29,3.54-.4,4.28.13.33.13.73.26,1h-.28a14.14,14.14,0,0,0,0,2.47l-.21-.23c0,.63.82.8.84,1.38l-.42.17c0,1.1-.37,2.22,0,3.3a.23.23,0,0,1-.2-.22c0,.51-.28,2,.3,1.81-.38,0,0,1.14.13,1.73l-.28-.09a2,2,0,0,1,.55,1.22c0,.16-.22.14-.15-.08-.15.55.26.43.11,1.1l-.17-.25c0,.57.07.53.28.84s-.07,1.08-.33,1.16a.71.71,0,0,1,.29.73c-.09,0-.15-.08-.18-.14-.19.95.32,1.41.05,2.07a.2.2,0,0,0-.17.11,12.77,12.77,0,0,1,0-1.31c-.25,0-.3.61-.65.12a4.1,4.1,0,0,1,.49,1.93.36.36,0,0,1-.09.08l0-.07a.69.69,0,0,0,0,.38,1.73,1.73,0,0,0-.08.49c-.21.07-.12.7-.13,1,.28,0,.24.37.47,0,0,0,0-.06,0-.26a1.3,1.3,0,0,0,0-.13l0,0c0-.2,0-.46,0-.76a.79.79,0,0,1,.11.83,4.93,4.93,0,0,1,.45.43c-.39.41-.6,1.21-.84,1.33.15.93.1,2.19.63,2.77.07.26-.15.3-.24.4-.05-.15,0-.33-.12-.41.14.52.06,1.56.43,1.69-.17.66-.34-.38-.28.54l-.12-.12c-.59,1.8.95,2.92.19,4.92,0-.14.07-.21.13-.24-.34,2.28.31,4.69-.22,6.94-.1.63.13.7.31,1.09l-.3.14.35.67c.25.94-.74,1.63-.26,2.83l.2-.16c0,.43.12,1.36-.11,1.29,0,0,.21.14.1.31h-.16l.28,1.06c-.12.82-.63-.13-.66,1.06.06.45.46,1.27.56,1.1s.1-.46.26-.47l.08.41c.47.07.94.38,1.27-.62l-.28-.69.22-.22,0,.58c.21-.33,0-.54-.11-.78a.46.46,0,0,0,.25-.29l-.45-.68c.19-.08.37.31.47-.15-.21-.32-.41.31-.55-.22.21-.33.39-.24.21-.63.12-.05.19,0,.25.19-.15-.35-.07-.92-.31-1.1.26-.35-.07-1.17.37-1.14a2,2,0,0,1-.36-.93c.52.59,0-1.19.59-1-.47-.43-.21-1.55-.47-2.31,0,0,.11.12.09.19a2.69,2.69,0,0,1,.27-.83c-.39-.06-.48-.72-.72-1.08.37-.53.46.32.82.15-.32,0-.32-.91-.58-.74.23-.4.11-.34.44-.55-.49-.07-.09-.37-.39-.71.24-.58.46-.15.31-.79C278.81,155.53,279,156.1,279,156.1Zm-.85-15.22h0c0,.13,0,.24,0,.31S278.15,141,278.14,140.88Zm0-1.28c0,.15,0,.35,0,.55-.09,0-.19,0-.19-.13C278,140.09,278.05,139.79,278.13,139.6Zm-1.94,2.7c0-.2,0-.27.07-.29a2.73,2.73,0,0,0,0,.35l0,0A.27.27,0,0,1,276.19,142.3Z"/><path class="cls-1" d="M276.56,142.67a.31.31,0,0,0,0,.08l.06-.12-.09-.07A.41.41,0,0,0,276.56,142.67Z"/><path class="cls-1" d="M277,26.73v0a.09.09,0,0,1,0-.06Z"/><polygon class="cls-1" points="278.67 121.94 278.6 121.94 278.66 122.05 278.67 121.94"/><path class="cls-1" d="M277.94,19.69a.21.21,0,0,0,.07-.1A.21.21,0,0,0,277.94,19.69Z"/><path class="cls-1" d="M278,16.64l.1-.43A3.05,3.05,0,0,0,278,16.64Z"/><path class="cls-1" d="M278.14,14.3a.41.41,0,0,0-.12,0h0Z"/><path class="cls-1" d="M278.47,51.5a.28.28,0,0,0,0,.09C278.54,51.8,278.52,51.66,278.47,51.5Z"/><path class="cls-1" d="M277.81,40.43a3.84,3.84,0,0,1,.14.36C278,40.59,278,40.44,277.81,40.43Z"/><path class="cls-1" d="M278.81,63.86h0v0Z"/><path class="cls-1" d="M277.94,41.3a1,1,0,0,0,0-.51A1.46,1.46,0,0,0,277.94,41.3Z"/><path class="cls-1" d="M278.27,4.16V4.05h0Z"/><path class="cls-1" d="M278.23,4l0-.13C278.2,4,278.2,4,278.23,4Z"/><path class="cls-1" d="M278.13,3.65l.07.26C278.2,3.82,278.21,3.71,278.13,3.65Z"/><path class="cls-1" d="M278.14,7.26l.1,0A.15.15,0,0,0,278.14,7.26Z"/><path class="cls-1" d="M278.17,8.2c0-.22.21-.56.15-.87l-.08,0C278.39,7.44,278,8,278.17,8.2Z"/><path class="cls-1" d="M276.91,12.13l.08-.79c-.11.14-.26.32-.28,0C276.38,12.3,277,11.1,276.91,12.13Z"/><path class="cls-1" d="M276.75,14.58c-.05-.43-.16,0-.22,0C276.63,14.83,276.65,14.89,276.75,14.58Z"/><path class="cls-1" d="M276.75,32.25l-.26,0C276.53,32.53,276.59,32.21,276.75,32.25Z"/><polygon class="cls-1" points="278.07 35.63 278.23 35.31 278 35.16 278.07 35.63"/><polygon class="cls-1" points="276.25 37.62 276.21 37.48 276.3 38.02 276.25 37.62"/><path class="cls-1" d="M276.34,67.3l.31-.1C276.6,67,276.24,66.93,276.34,67.3Z"/><path class="cls-1" d="M276.66,80.11a.61.61,0,0,0-.1.73A4.38,4.38,0,0,0,276.66,80.11Z"/><polygon class="cls-1" points="276.15 118.54 276.04 118.28 276.13 118.77 276.15 118.54"/></g><g id="_群組_5" data-name="&lt;群組&gt;"><path class="cls-1" d="M185.78,1.3c-.08-.09-.28,0-.24.2l.33.18Z"/><path class="cls-1" d="M185.17,2.94c.16.29.44.63.75.44-.32-.29-.19-.36-.57-.66,0-.25.11-.43.23-.39-.08-.09.07-.38-.13-.51A1,1,0,0,0,185.39,3C185.32,3.05,185.23,3,185.17,2.94Z"/><path class="cls-1" d="M184.65,26.91l0-.15A.54.54,0,0,0,184.65,26.91Z"/><path class="cls-1" d="M184.47,41.76c0-.11,0-.16-.07-.17S184.44,41.79,184.47,41.76Z"/><path class="cls-1" d="M184.11,44.3c0-.06,0-.1,0-.15S184.08,44.26,184.11,44.3Z"/><path class="cls-1" d="M184.65,26.91l-.1.4C184.66,27.34,184.63,27.1,184.65,26.91Z"/><path class="cls-1" d="M186,6.25a.85.85,0,0,0-.09-.22,1.55,1.55,0,0,1,0,.21Z"/><path class="cls-1" d="M184.39,20.37v-.13l-.14-.1Z"/><path class="cls-1" d="M184.34,15.34c0,.12.26.15.39.2a.4.4,0,0,1-.2-.25A.41.41,0,0,0,184.34,15.34Z"/><path class="cls-1" d="M184.83,7.38l0-.15A1.13,1.13,0,0,0,184.83,7.38Z"/><path class="cls-1" d="M184.33,24a.28.28,0,0,0-.11.05A.18.18,0,0,0,184.33,24Z"/><path class="cls-1" d="M186.44,164.47h-.05S186.44,164.51,186.44,164.47Z"/><path class="cls-1" d="M185.05,170.3l0-.08-.16,0Z"/><path class="cls-1" d="M183.75,48.94v0C183.72,48.79,183.73,48.86,183.75,48.94Z"/><path class="cls-1" d="M184,91.53c.25-.48.32.79.6.06C184.45,91.66,184.12,90.93,184,91.53Z"/><path class="cls-1" d="M185.93,6.38a1.47,1.47,0,0,1,0,.21A.72.72,0,0,0,185.93,6.38Z"/><path class="cls-1" d="M184.56,91.59h0l0-.08A.41.41,0,0,0,184.56,91.59Z"/><path class="cls-1" d="M183.92,59.63a.63.63,0,0,0,.12-.11S184,59.55,183.92,59.63Z"/><path class="cls-1" d="M184.32,51.66l0,.2C184.3,51.78,184.31,51.72,184.32,51.66Z"/><path class="cls-1" d="M184.31,63.76a.46.46,0,0,0,0,.29s0,0,0,0A.26.26,0,0,1,184.31,63.76Z"/><path class="cls-1" d="M184.32,68.07a.56.56,0,0,1,.05-.08s0-.1,0-.14Z"/><path class="cls-1" d="M186.3,151.39a.76.76,0,0,1-.25.2C186.25,151.52,186.32,152.16,186.3,151.39Z"/><path class="cls-1" d="M185.81,6.25c.07,0,.11.06.12.13s0-.1,0-.14S185.84,6.22,185.81,6.25Z"/><path class="cls-1" d="M186.53,63.94l0,.68A4.7,4.7,0,0,0,186.53,63.94Z"/><path class="cls-1" d="M186.26,120.51l0,.16A.27.27,0,0,0,186.26,120.51Z"/><path class="cls-1" d="M186.53,66.65a.89.89,0,0,0-.19.39s0,.06.07.07Z"/><path class="cls-1" d="M186.05,151.59Z"/><path class="cls-1" d="M186.71,156.1c0-.66-.36-.31-.57-.45-.1-.78.27-.36.46-.62-.1-.49-.44-.86-.42-1.22.06,0,.08-.1.16,0-.3-.51,0-1.52-.38-2.12a.22.22,0,0,1,.09-.08.84.84,0,0,1-.51.09c0-.29-.23-.54,0-.65,0,.18.09.2.16.28l-.1-.31c.35-.27.12.42.38.42a5.78,5.78,0,0,1-.31-1.75c.34-.09.12,1.07.42.46l-.13.71c.54-.54,0,.43.54-.07.09-.93-.18-1-.08-2-.19-.21-.28.07-.47-.14-.34-1.32.86-1,.41-2-.23-.25-.66-.35-.43-1l.38.24c0-.91-.55-.52-.29-1.46.15.17.12.71.17.57.3-.61-.22-.43-.22-.9l.34-.1c0-1-.3-2-.36-3.08.1.06.21.24.31,0a15.14,15.14,0,0,1,.25-4.15l-.3-.5c0-.11.13-.21.19-.09.11-.5-.18,0-.3-.27s.17-.37.26-.19a7.16,7.16,0,0,1-.22-3.47l.08.18c.12-.73-.6-.82-.33-1.5l.06.13c.12-1.59-.14-3.34.3-4.54-.42-.23.19-1.57-.4-1.67a7,7,0,0,0,.59-1.92c0-.34-.37-.51-.43-.93h.31l-.32-.57.36-.31-.07-.39c0,.16-.14.33-.23.31a1.86,1.86,0,0,1,.37-1.52l-.26-1.45c.12,0,.17.27.25.46-.32-.77.32-.14,0-.85-.07.1-.18-.05-.24-.07a3.92,3.92,0,0,0,.11-1.76l.21.11c.05-1.08-.1-2.28-.1-3.49-.1.44-.47.34-.5,0l.32-.14c-.2-.23-.12.37-.37-.1,0-.45.37-.31.48-.05l-.11-.55c.09,0,.15.1.27.13-.2-.22.33-1,0-1.27l.09,0c0-1.21-.11-1.76-.12-2.75-.28,0-.22-.4-.45-.7a15.31,15.31,0,0,0,.29-2.4c-.14-.62-.24-.18-.41-.46.26,0,.23-.92.42-.47a16.8,16.8,0,0,0-.26-2.67c-.11.15-.15.31-.24.23,0-.24.11-.55.23-.52l0,.07c-.39-1.49.75-3.44.21-4.63l0,.07-.28-1.24c0-.56.19.34.35-.08-.43-1.32.06-2.09-.22-3.19.75-.84-.06-3,.43-4.14l-.18.06c-.18-.29.1-.35.14-.57-.14,0-.16.32-.25.13a53,53,0,0,1,.42-7.72c0-.94-.92-.54-.5-1.72l.33.34c-.4-1.9,0-3.87-.32-5.73.07.11.17.12.17.3.24-.39,0-1.45-.18-1.46,0-.28.17-.06.27-.24.15-.39-.3-1-.06-1.19,0,0,.07.11.09.18-.11-.26,0-1.19-.24-1,.13-.7-.13-1.33,0-1.88-.31-.37.15-1.2-.29-1.31.45,0,.36-1.22.15-1.66.14.15.14-.38.33-.21,0-.5-.09-1-.32-.87.54-.93-.44-1.86.26-2.38-.25-1.49-.41-2.87-.52-4.21.45,0,.05,1.48.52,1.42a12.77,12.77,0,0,1-.46-3.27c.06-.32.19.19.27.3-.19-1.27,0-2.46-.2-3.59,0,0,.08.13.12.24,0-.22.06-.52-.14-.49l.05.22c-.29.35-.62-.89-.77-.93.58.38.14-1.12.89-.52,0-.14-.14-.33-.28-.29,0-.22.12-.29.28-.07-.11-.8-.33-.51-.33-1.24.1,0,.14.15.26.23a2,2,0,0,1-.31-1.35c.06,0,.14,0,.14.15,0-1.05-.51-1.79-.33-2.94.43.34.14-.39.52-.45l-.11-.62-.18.24c0-.54-.27-1-.15-1.48l.16.4-.07-1-.15.58c-.19-.55-.47.06-.36-.66,0,.14,0-.55.22-.83h0a1.36,1.36,0,0,1-.15-.94c.12-.11.41.08.49,0-.31-.26-.08-1.27-.42-1.6a.3.3,0,0,0,.32.08l-.26-.23c.08-.25.12-.28.28-.24,0-.76-.47.24-.27-.66,0,.07.06,0,.1.18.1-.9-.16-1.74,0-2.56.38-.25.09.72.41.44a28.41,28.41,0,0,1-.36-3.63l0,.22c-.53-.16.26-.86,0-1.45,0,.15.29.19.23.15a12.69,12.69,0,0,0-.29-2.81l.13.14c.12-.46.07-1.22.14-1.73-.14-.15-.12-.43-.32-.26.78-1.55-.41-3,.23-4.34,0,.17.12.39.12.26l-.12-1.17c-.23.09-.14.15-.32.4a1.26,1.26,0,0,1-.25-.77c.16.53.38,0,.5-.23-.07,0-.14,0-.22,0,.41-.62-.46-.11-.18-.94l.12,0a3,3,0,0,1-.19-.94c.27-.14.12.33.34.36,0-.48-.5-.94-.24-1.37.08.2.08.49.15.69a1.29,1.29,0,0,0,.29-.87v0l.14-.81-.08.21c-.7-.6-.13-1.21-.59-2,.44.78.25.13.56.19.08-.21.17-.52.26-.43-.24-.38.19-.63-.16-1.16.09,0,0-.41.25-.32-.08-.49-.17.11-.29.07-.34-.75.4-1.78-.06-2.87-.18-.94-.51-1.11-.68-2,.16-.3.36.24.36.24a2.15,2.15,0,0,0,0-1.28c.09.09.16,0,.27-.14,0-.36-.35-.24-.21-.71a1.37,1.37,0,0,1,.39.35c-.09-.42-.27-.84-.36-1.27.17-.12.26.26.37.41-.08-.49-.15-1.27-.42-1.42l-.1.31c0-.18.23-.09.28,0,.21.42-.09.61-.19.63l-.06-.31c-.57.32.09,1.26.06,1.88L185,6l.35.65c-.11.13-.34.23-.41-.08-.2.45.15.4-.08.78,0,0-.05,0-.07,0l.12.44c-.08-.09-.29.07-.23-.2-.24.79.31,1.27,0,1.57l0-.07c.14,1.1.31.11.66.93l-.75.55.31.11c0,.11,0,.34-.16.3.21.42.13-.08.33.17-.28.54.13,1.5-.36,1.62.24.2.18-.52.35.06-.53.17.08.67-.16,1.17-.27-.15-.12-.62-.36-.13.45.3-.1,1,0,1.39.37,0,.16.91.28,1.62a10.75,10.75,0,0,0-.33,2l-.07,0c.37.13.3.81.38,1.3-.22,0-.31-.11-.41-.38v.46a.89.89,0,0,1,.22.56l-.28-.12a6.26,6.26,0,0,1,.14,2c.26.05.72-.63.89.21-.14,0-.38.06-.44-.16,0,.07.12.26.06.4l-.23-.33c-.1.36.19.19.17.47-.2,0-.14.22-.3.18s.08-.26,0-.37a1.69,1.69,0,0,1-.3.85c.11,0,.26,0,.29.24,0,.61-.24.21-.34.57.13.15,0,.54.29.55,0,.18-.14.21-.22.28.13.32,0,1.49.35,1.13l0-.08a.07.07,0,0,1,0,.05h0c.3,1-.16,2.17,0,3.2h-.1a9.7,9.7,0,0,0,.28,1.82c0,.18-.18.43-.29.35a2.1,2.1,0,0,1,0,1.21c-.18-.48-.16.16-.13-.49-.08.61-.24.75,0,1.41-.26-.22-.32.46-.25.76l.19-.43a5.37,5.37,0,0,1,0,.9l-.33-.16c-.41,1.26.68,2.27,0,3.22.23.34.16-.68.43-.38,0,.58-.52,1.18-.52,1.36-.18.79.49.74.36,1.57.12-.11.44-.21.55.41-.05.58-.5.71-.6.34,0-.13,0-.2.07-.2,0-.18-.09-.43-.22-.2l.12.08c-.12.28-.11,1.08-.31.89.12.44.2.19.26-.13-.17.74,0,1.15-.12,1.92.07-.12.21-.24.2-.12-.14,1.12.23.5.28,1.26-.18.43-.43-.16-.28.6-.12.47-.31.1-.41-.08.23.69-.15,1.3-.19,1.69l-.1-.36a2,2,0,0,1,.06.58l.23-.21c0,.22,0,.4-.14.39.16.23.4-.17.61.27-.12.29.13.88-.19,1,.11-.91-.31.1-.36-.67a1.47,1.47,0,0,1,0,.55s-.06,0-.08-.09c-.28.86.35.39.35,1.29-.18-.12-.34.2-.3.35,0-.36.29-.17.43.16-.14.57.1.62.09.92l.06-.34c.18.12.16.4.21.8-.14,0-.09-.36-.15-.22.31.45-.33,1-.12,1.62-.12.29-.33,0-.41.28.23.7-.25.75-.06,1.48.24-.21.19-.24.42.27l-.17-1.2.35.77c0-.36-.15-.76-.11-1,.19.37.13.33.33.16-.36.49.21,1,0,1.55l-.59,0c-.27.86.3,1.53.15,2.65l.1-.36c.24.15,0,.69.13,1.05-.2,0-.27.19-.39.35.15,0,0,.82.38.92l-.26.5c-.11.9.56,1,.5,1.89-.22-.26-.36.13-.51-.45,0,.29,0,.55.1.56-.13.17.26.8.08,1.07.08.12.29.16.27.48,0,0-.1,0-.1,0s.14.51.36.23c-.62.89,0,2.49-.49,3.27.07.63.13,1.39.15,2-.06,0-.1,0-.08-.11-.19.79.56.49.36,1.39-.32.46-.17-.48-.29-.19-.65.12.08,1.08-.29,1.69l0-.15c-.22.47.24,1.13.2,1.89,0,0-.06,0-.1,0a6.14,6.14,0,0,1,.53,2.22c-.25-.23-.13-.33-.39-.19,0,.33.41-.1.49.55-.14.22-.26.69-.54.75l0-.62c-.35.32,0,.8,0,1.12l-.16,0c0,.94.44,1,.41,2l.12-.11c.39.56-.22.47.07,1l-.39.17a14.78,14.78,0,0,1,.45,1.93,6.72,6.72,0,0,1-.61-1.61,3.24,3.24,0,0,0,.22,1.42c0-.15-.13-.33-.07-.48a2.94,2.94,0,0,1,.45,1.75c-.76-.13-.19,1.88-.78,2.4.28,1.28-.12,2.53-.08,4,.6-.53,0,.43.63.34,0,.35,0,.48,0,.51l-.37,1c-.17.25-.13-.33-.27-.3,0,.76-.26.32-.42.82.22-.1.31.26.23.69l.28-.6c.33,1-.51.91-.19,2l-.19-.34c.11.55,0,2,.49,2.56-.07.09-.24.22-.29,0-.07,1.31.53,2.91.22,3.93l-.15-.1c0,.25.29.43.14.73-.07,0-.15-.1-.16,0a1.9,1.9,0,0,1,.17,1l-.17-.28c-.19,1.28.41,2,.52,3-.44,0-.59,1-.66,1.51l-.06,0a20.59,20.59,0,0,0,.54,3.9c-.48.85-.2,2.89-.47,4.27.08-.21.34,0,.39.27s.3.9-.1.84v-.11c-.4.24-.3.9-.31,1.42l.53.09c-.77,1.35.28,3.54-.4,4.28.13.33.13.73.26,1h-.28a13.22,13.22,0,0,0,0,2.47l-.21-.23c0,.63.82.8.84,1.38L184,127c0,1.1-.36,2.22,0,3.3a.23.23,0,0,1-.2-.22c0,.51-.29,2,.29,1.81-.37,0,0,1.14.13,1.73l-.27-.09a2,2,0,0,1,.55,1.22c0,.16-.23.14-.15-.08-.15.55.26.43.11,1.1l-.18-.25c0,.57.08.53.28.84s-.07,1.08-.32,1.16a.71.71,0,0,1,.29.73c-.1,0-.16-.08-.18-.14-.19.95.32,1.41.05,2.07a.18.18,0,0,0-.17.11,12.77,12.77,0,0,1,0-1.31c-.25,0-.3.61-.65.12a4.1,4.1,0,0,1,.49,1.93l-.09.08,0-.07a.8.8,0,0,0,0,.38,2.14,2.14,0,0,0-.07.49c-.22.07-.12.7-.13,1,.28,0,.24.37.47,0,0,0,0-.06-.05-.26a.25.25,0,0,0,0-.13l0,0c0-.2,0-.46,0-.76a.83.83,0,0,1,.11.83c.18.16.36.33.45.43-.39.41-.6,1.21-.84,1.33.15.93.1,2.19.63,2.77.06.26-.15.3-.24.4-.05-.15,0-.33-.12-.41.14.52.05,1.56.42,1.69-.16.66-.34-.38-.28.54l-.11-.12c-.59,1.8.94,2.92.19,4.92,0-.14.06-.21.13-.24-.34,2.28.31,4.69-.22,6.94-.11.63.13.7.31,1.09l-.3.14.34.67c.26.94-.74,1.63-.25,2.83l.2-.16c0,.43.12,1.36-.11,1.29,0,0,.21.14.1.31h-.16l.27,1.06c-.11.82-.62-.13-.65,1.06.06.45.46,1.27.56,1.1s.1-.46.26-.47l.08.41c.47.07.94.38,1.27-.62l-.29-.69.23-.22v.58c.22-.33,0-.54-.1-.78a.46.46,0,0,0,.25-.29l-.45-.68c.18-.08.36.31.46-.15-.2-.32-.4.31-.54-.22.21-.33.38-.24.2-.63.12-.05.2,0,.25.19-.14-.35-.06-.92-.31-1.1.27-.35-.06-1.17.38-1.14a2.07,2.07,0,0,1-.37-.93c.53.59,0-1.19.6-1-.47-.43-.21-1.55-.47-2.31,0,0,.11.12.09.19a2.69,2.69,0,0,1,.27-.83c-.39-.06-.48-.72-.73-1.08.38-.53.46.32.83.15-.32,0-.32-.91-.58-.74.23-.4.11-.34.43-.55-.49-.07-.08-.37-.38-.71.24-.58.46-.15.31-.79C186.54,155.53,186.71,156.1,186.71,156.1Zm-.84-15.22h0c0,.13,0,.24,0,.31S185.88,141,185.87,140.88Zm0-1.28c0,.15,0,.35,0,.55a.12.12,0,0,1-.19-.13C185.72,140.09,185.78,139.79,185.86,139.6Zm-2,2.7c0-.2,0-.27.08-.29a2.73,2.73,0,0,0,0,.35l0,0A.36.36,0,0,1,183.91,142.3Z"/><path class="cls-1" d="M184.28,142.67a.19.19,0,0,1,0,.08.75.75,0,0,0,.07-.12l-.09-.07Z"/><path class="cls-1" d="M184.7,26.73v0a.15.15,0,0,1,0-.06S184.71,26.72,184.7,26.73Z"/><polygon class="cls-1" points="186.4 121.94 186.33 121.94 186.39 122.05 186.4 121.94"/><path class="cls-1" d="M185.66,19.69a.17.17,0,0,0,.08-.1A.31.31,0,0,0,185.66,19.69Z"/><path class="cls-1" d="M185.73,16.64l.1-.43A2.08,2.08,0,0,0,185.73,16.64Z"/><path class="cls-1" d="M185.87,14.3a.41.41,0,0,0-.12,0h0Z"/><path class="cls-1" d="M186.2,51.5a.28.28,0,0,0,0,.09C186.26,51.8,186.24,51.66,186.2,51.5Z"/><path class="cls-1" d="M185.54,40.43a2.2,2.2,0,0,1,.13.36C185.7,40.59,185.7,40.44,185.54,40.43Z"/><path class="cls-1" d="M186.54,63.86h0v0Z"/><path class="cls-1" d="M185.67,41.3a1,1,0,0,0,0-.51A1.46,1.46,0,0,0,185.67,41.3Z"/><path class="cls-1" d="M186,4.16l0-.11h0Z"/><path class="cls-1" d="M186,4l0-.13C185.93,4,185.93,4,186,4Z"/><path class="cls-1" d="M185.86,3.65l.07.26C185.93,3.82,185.94,3.71,185.86,3.65Z"/><path class="cls-1" d="M185.86,7.26l.11,0A.16.16,0,0,0,185.86,7.26Z"/><path class="cls-1" d="M185.89,8.2a2.5,2.5,0,0,0,.16-.87l-.08,0C186.12,7.44,185.72,8,185.89,8.2Z"/><path class="cls-1" d="M184.63,12.13l.09-.79c-.11.14-.26.32-.29,0C184.11,12.3,184.68,11.1,184.63,12.13Z"/><path class="cls-1" d="M184.48,14.58c0-.43-.16,0-.22,0C184.36,14.83,184.38,14.89,184.48,14.58Z"/><path class="cls-1" d="M184.48,32.25l-.26,0C184.26,32.53,184.32,32.21,184.48,32.25Z"/><polygon class="cls-1" points="185.8 35.63 185.96 35.31 185.72 35.16 185.8 35.63"/><polygon class="cls-1" points="183.98 37.62 183.94 37.48 184.03 38.02 183.98 37.62"/><path class="cls-1" d="M184.07,67.3l.31-.1C184.33,67,184,66.93,184.07,67.3Z"/><path class="cls-1" d="M184.39,80.11a.63.63,0,0,0-.11.73A3.68,3.68,0,0,0,184.39,80.11Z"/><polygon class="cls-1" points="183.87 118.54 183.77 118.28 183.86 118.77 183.87 118.54"/></g><g id="_群組_6" data-name="&lt;群組&gt;"><path class="cls-1" d="M93.51,1.3c-.08-.09-.28,0-.24.2l.33.18Z"/><path class="cls-1" d="M92.9,2.94c.16.29.44.63.74.44-.31-.29-.18-.36-.56-.66,0-.25.11-.43.23-.39-.09-.09.07-.38-.14-.51a1,1,0,0,0,0,1.14C93.05,3.05,93,3,92.9,2.94Z"/><path class="cls-1" d="M92.38,26.91l0-.15A.54.54,0,0,0,92.38,26.91Z"/><path class="cls-1" d="M92.2,41.76c0-.11,0-.16-.07-.17S92.17,41.79,92.2,41.76Z"/><path class="cls-1" d="M91.84,44.3c0-.06,0-.1,0-.15S91.81,44.26,91.84,44.3Z"/><path class="cls-1" d="M92.38,26.91l-.1.4C92.39,27.34,92.36,27.1,92.38,26.91Z"/><path class="cls-1" d="M93.7,6.25A.85.85,0,0,0,93.61,6a1.52,1.52,0,0,1,0,.21Z"/><path class="cls-1" d="M92.11,20.37v-.13l-.13-.1Z"/><path class="cls-1" d="M92.06,15.34c0,.12.27.15.39.2a.38.38,0,0,1-.19-.25A.45.45,0,0,0,92.06,15.34Z"/><path class="cls-1" d="M92.56,7.38l0-.15A1.13,1.13,0,0,0,92.56,7.38Z"/><path class="cls-1" d="M92.05,24A.23.23,0,0,0,92,24,.14.14,0,0,0,92.05,24Z"/><path class="cls-1" d="M94.17,164.47h0S94.16,164.51,94.17,164.47Z"/><path class="cls-1" d="M92.77,170.3v-.08l-.16,0Z"/><path class="cls-1" d="M91.48,48.94v0C91.45,48.79,91.45,48.86,91.48,48.94Z"/><path class="cls-1" d="M91.68,91.53c.25-.48.33.79.6.06C92.17,91.66,91.85,90.93,91.68,91.53Z"/><path class="cls-1" d="M93.66,6.38a1.47,1.47,0,0,1,0,.21A.72.72,0,0,0,93.66,6.38Z"/><path class="cls-1" d="M92.28,91.59h0l0-.08A.69.69,0,0,1,92.28,91.59Z"/><path class="cls-1" d="M91.64,59.63a.69.69,0,0,0,.13-.11S91.7,59.55,91.64,59.63Z"/><path class="cls-1" d="M92,51.66l0,.2A.81.81,0,0,0,92,51.66Z"/><path class="cls-1" d="M92,63.76a.46.46,0,0,0,0,.29l0,0A.26.26,0,0,1,92,63.76Z"/><path class="cls-1" d="M92,68.07,92.1,68s0-.1,0-.14Z"/><path class="cls-1" d="M94,151.39a.88.88,0,0,1-.25.2C94,151.52,94.05,152.16,94,151.39Z"/><path class="cls-1" d="M93.54,6.25a.18.18,0,0,1,.12.13.59.59,0,0,0,0-.14S93.56,6.22,93.54,6.25Z"/><path class="cls-1" d="M94.26,63.94l0,.68A6.74,6.74,0,0,0,94.26,63.94Z"/><path class="cls-1" d="M94,120.51l0,.16A.21.21,0,0,0,94,120.51Z"/><path class="cls-1" d="M94.26,66.65a1,1,0,0,0-.2.39s0,.06.08.07Z"/><path class="cls-1" d="M93.77,151.59h0Z"/><path class="cls-1" d="M94.44,156.1c0-.66-.36-.31-.57-.45-.11-.78.27-.36.46-.62-.1-.49-.44-.86-.42-1.22.06,0,.08-.1.16,0-.3-.51,0-1.52-.39-2.12l.09-.08a.8.8,0,0,1-.5.09c0-.29-.24-.54,0-.65,0,.18.09.2.16.28l-.1-.31c.34-.27.12.42.37.42a5.74,5.74,0,0,1-.3-1.75c.34-.09.12,1.07.42.46l-.13.71c.53-.54,0,.43.53-.07.1-.93-.17-1-.07-2-.19-.21-.28.07-.47-.14-.34-1.32.86-1,.4-2-.22-.25-.65-.35-.43-1l.39.24c0-.91-.55-.52-.3-1.46.16.17.13.71.18.57.3-.61-.22-.43-.22-.9l.34-.1c0-1-.3-2-.36-3.08.1.06.21.24.31,0a15.54,15.54,0,0,1,.24-4.15l-.29-.5c0-.11.13-.21.19-.09.11-.5-.19,0-.3-.27s.17-.37.25-.19a7.41,7.41,0,0,1-.22-3.47l.09.18c.12-.73-.6-.82-.33-1.5l.05.13c.13-1.59-.14-3.34.31-4.54-.43-.23.18-1.57-.41-1.67a6.6,6.6,0,0,0,.6-1.92c0-.34-.37-.51-.43-.93h.31l-.33-.57.37-.31-.08-.39c0,.16-.13.33-.22.31a1.86,1.86,0,0,1,.37-1.52L93.91,118c.12,0,.16.27.24.46-.31-.77.33-.14,0-.85-.07.1-.18-.05-.25-.07a3.66,3.66,0,0,0,.11-1.76l.22.11c0-1.08-.11-2.28-.1-3.49-.1.44-.47.34-.5,0l.32-.14c-.2-.23-.12.37-.37-.1,0-.45.37-.31.48-.05l-.11-.55c.09,0,.14.1.27.13-.2-.22.32-1,0-1.27l.1,0c0-1.21-.11-1.76-.13-2.75-.28,0-.21-.4-.44-.7a15.31,15.31,0,0,0,.29-2.4c-.14-.62-.24-.18-.41-.46.26,0,.23-.92.42-.47a18.06,18.06,0,0,0-.26-2.67c-.11.15-.15.31-.24.23,0-.24.11-.55.23-.52l0,.07c-.39-1.49.74-3.44.21-4.63l0,.07-.28-1.24c0-.56.19.34.35-.08-.43-1.32.06-2.09-.22-3.19.75-.84-.06-3,.42-4.14l-.17.06c-.18-.29.1-.35.14-.57-.14,0-.16.32-.26.13a54.48,54.48,0,0,1,.42-7.72c.05-.94-.92-.54-.49-1.72l.33.34c-.4-1.9,0-3.87-.32-5.73.07.11.17.12.17.3.24-.39,0-1.45-.18-1.46,0-.28.17-.06.27-.24.14-.39-.3-1-.07-1.19,0,0,.08.11.1.18-.12-.26,0-1.19-.25-1,.14-.7-.12-1.33,0-1.88-.31-.37.15-1.2-.28-1.31.45,0,.36-1.22.15-1.66.13.15.14-.38.33-.21,0-.5-.09-1-.32-.87.54-.93-.44-1.86.25-2.38-.24-1.49-.4-2.87-.51-4.21.45,0,0,1.48.52,1.42a12.79,12.79,0,0,1-.47-3.27c.07-.32.2.19.28.3-.19-1.27,0-2.46-.21-3.59,0,0,.09.13.13.24,0-.22.06-.52-.14-.49l0,.22c-.3.35-.62-.89-.78-.93.59.38.15-1.12.89-.52,0-.14-.13-.33-.27-.29,0-.22.12-.29.28-.07-.12-.8-.33-.51-.33-1.24.1,0,.14.15.26.23a2,2,0,0,1-.31-1.35c.06,0,.14,0,.14.15,0-1.05-.52-1.79-.33-2.94.43.34.14-.39.52-.45l-.12-.62-.18.24c0-.54-.26-1-.14-1.48l.15.4-.07-1-.14.58c-.19-.55-.47.06-.37-.66,0,.14,0-.55.23-.83h0a1.31,1.31,0,0,1-.15-.94c.12-.11.41.08.49,0-.31-.26-.09-1.27-.42-1.6a.29.29,0,0,0,.31.08l-.25-.23c.08-.25.12-.28.28-.24,0-.76-.48.24-.27-.66,0,.07.06,0,.09.18.11-.9-.16-1.74,0-2.56.37-.25.09.72.41.44a28.41,28.41,0,0,1-.36-3.63l-.05.22c-.53-.16.27-.86,0-1.45,0,.15.29.19.23.15a12.2,12.2,0,0,0-.3-2.81l.14.14a15.79,15.79,0,0,0,.13-1.73c-.13-.15-.11-.43-.31-.26.78-1.55-.42-3,.23-4.34,0,.17.12.39.12.26l-.12-1.17c-.24.09-.14.15-.32.4a1.26,1.26,0,0,1-.25-.77c.16.53.37,0,.5-.23-.07,0-.15,0-.22,0,.41-.62-.46-.11-.19-.94l.12,0a3,3,0,0,1-.18-.94c.26-.14.12.33.34.36,0-.48-.5-.94-.24-1.37.08.2.08.49.15.69a1.29,1.29,0,0,0,.29-.87v0l.14-.81-.08.21c-.7-.6-.13-1.21-.59-2,.43.78.25.13.55.19.09-.21.18-.52.27-.43-.25-.38.19-.63-.17-1.16.1,0,0-.41.26-.32-.08-.49-.17.11-.29.07-.34-.75.4-1.78-.06-2.87-.19-.94-.51-1.11-.68-2,.16-.3.36.24.36.24a2.23,2.23,0,0,0,0-1.28c.09.09.16,0,.27-.14,0-.36-.36-.24-.21-.71a1.37,1.37,0,0,1,.39.35c-.09-.42-.27-.84-.36-1.27.17-.12.26.26.37.41-.08-.49-.16-1.27-.42-1.42l-.1.31c0-.18.23-.09.28,0,.21.42-.09.61-.19.63l-.06-.31c-.58.32.09,1.26.05,1.88L92.77,6l.34.65c-.1.13-.34.23-.4-.08-.2.45.15.4-.08.78,0,0-.06,0-.07,0l.12.44c-.09-.09-.29.07-.23-.2-.24.79.31,1.27,0,1.57l0-.07c.14,1.1.3.11.66.93l-.75.55.3.11c0,.11,0,.34-.15.3.21.42.13-.08.33.17-.28.54.13,1.5-.36,1.62.23.2.18-.52.34.06-.52.17.09.67-.15,1.17-.27-.15-.12-.62-.37-.13.46.3-.1,1,0,1.39.37,0,.15.91.27,1.62a11.75,11.75,0,0,0-.33,2l-.06,0c.37.13.3.81.38,1.3-.22,0-.31-.11-.41-.38v.46a.84.84,0,0,1,.22.56l-.27-.12a6.55,6.55,0,0,1,.14,2c.26.05.71-.63.88.21-.13,0-.37.06-.43-.16,0,.07.12.26.06.4l-.23-.33c-.11.36.19.19.17.47-.2,0-.14.22-.3.18s.08-.26,0-.37a1.52,1.52,0,0,1-.3.85c.12,0,.27,0,.29.24,0,.61-.23.21-.33.57.13.15,0,.54.29.55,0,.18-.14.21-.22.28.13.32,0,1.49.35,1.13l0-.08a.11.11,0,0,0,0,.05h0c.29,1-.17,2.17,0,3.2h-.1a8.94,8.94,0,0,0,.28,1.82c0,.18-.18.43-.3.35a2,2,0,0,1,0,1.21c-.18-.48-.16.16-.13-.49-.09.61-.24.75,0,1.41-.26-.22-.32.46-.25.76l.18-.43a4.51,4.51,0,0,1,0,.9l-.34-.16c-.4,1.26.69,2.27,0,3.22.24.34.17-.68.44-.38,0,.58-.52,1.18-.52,1.36-.19.79.48.74.36,1.57.12-.11.43-.21.54.41,0,.58-.49.71-.59.34,0-.13,0-.2.07-.2,0-.18-.09-.43-.22-.2l.12.08c-.13.28-.11,1.08-.31.89.12.44.2.19.26-.13-.17.74,0,1.15-.12,1.92.06-.12.2-.24.2-.12-.15,1.12.23.5.28,1.26-.18.43-.43-.16-.28.6-.12.47-.32.1-.41-.08.23.69-.15,1.3-.2,1.69l-.09-.36a2,2,0,0,1,0,.58l.24-.21c0,.22,0,.4-.14.39.16.23.39-.17.61.27-.12.29.13.88-.19,1,.11-.91-.31.1-.37-.67a1.26,1.26,0,0,1,0,.55s-.07,0-.08-.09c-.29.86.35.39.34,1.29-.17-.12-.33.2-.29.35,0-.36.29-.17.43.16-.14.57.1.62.08.92l.07-.34c.18.12.15.4.21.8-.14,0-.1-.36-.16-.22.32.45-.32,1-.11,1.62-.12.29-.33,0-.41.28.23.7-.25.75-.06,1.48.24-.21.18-.24.42.27l-.17-1.2.34.77c0-.36-.15-.76-.1-1,.19.37.13.33.33.16-.36.49.21,1,0,1.55l-.6,0c-.26.86.31,1.53.16,2.65l.1-.36c.24.15,0,.69.13,1.05-.2,0-.27.19-.39.35.14,0,0,.82.38.92l-.26.5c-.11.9.56,1,.49,1.89-.21-.26-.35.13-.5-.45,0,.29,0,.55.09.56-.12.17.27.8.08,1.07.09.12.3.16.28.48,0,0-.1,0-.1,0s.14.51.35.23c-.61.89,0,2.49-.48,3.27.07.63.13,1.39.14,2-.06,0-.09,0-.07-.11-.19.79.56.49.36,1.39-.32.46-.18-.48-.3-.19-.65.12.09,1.08-.29,1.69l0-.15c-.23.47.24,1.13.19,1.89a.07.07,0,0,0-.09,0,6.14,6.14,0,0,1,.53,2.22c-.25-.23-.13-.33-.39-.19,0,.33.41-.1.48.55-.14.22-.26.69-.53.75l0-.62c-.35.32,0,.8,0,1.12l-.15,0c.05.94.44,1,.41,2l.12-.11c.39.56-.22.47.07,1l-.39.17a14.78,14.78,0,0,1,.45,1.93,6.72,6.72,0,0,1-.61-1.61,3,3,0,0,0,.22,1.42c0-.15-.14-.33-.07-.48a2.94,2.94,0,0,1,.45,1.75c-.76-.13-.19,1.88-.79,2.4.29,1.28-.12,2.53-.07,4,.59-.53,0,.43.63.34,0,.35,0,.48,0,.51l-.37,1c-.18.25-.13-.33-.27-.3-.05.76-.26.32-.42.82.22-.1.31.26.23.69l.28-.6c.33,1-.51.91-.19,2l-.19-.34c.11.55,0,2,.48,2.56-.07.09-.23.22-.28,0-.07,1.31.52,2.91.22,3.93l-.15-.1c.05.25.28.43.13.73-.06,0-.15-.1-.16,0a1.79,1.79,0,0,1,.18,1l-.17-.28c-.19,1.28.41,2,.51,3-.44,0-.58,1-.65,1.51l-.06,0a21.43,21.43,0,0,0,.53,3.9c-.47.85-.2,2.89-.46,4.27.08-.21.34,0,.38.27s.31.9-.09.84v-.11c-.39.24-.29.9-.3,1.42l.53.09c-.77,1.35.28,3.54-.41,4.28.14.33.13.73.27,1h-.29a15.19,15.19,0,0,0,0,2.47l-.2-.23c0,.63.82.8.83,1.38l-.42.17c0,1.1-.36,2.22,0,3.3a.23.23,0,0,1-.2-.22c0,.51-.29,2,.29,1.81-.38,0,0,1.14.13,1.73l-.28-.09a1.94,1.94,0,0,1,.56,1.22c0,.16-.23.14-.16-.08-.14.55.27.43.12,1.1l-.18-.25c0,.57.08.53.28.84s-.07,1.08-.32,1.16a.73.73,0,0,1,.29.73c-.1,0-.16-.08-.19-.14-.19.95.33,1.41.05,2.07a.18.18,0,0,0-.16.11A9.94,9.94,0,0,1,92,139c-.26,0-.3.61-.66.12a4,4,0,0,1,.5,1.93l-.09.08,0-.07a.69.69,0,0,0,0,.38,2.94,2.94,0,0,0-.08.49c-.21.07-.11.7-.12,1,.28,0,.23.37.47,0,0,0,0-.06,0-.26a.42.42,0,0,0,0-.13l0,0c0-.2,0-.46,0-.76a.81.81,0,0,1,.1.83,5.31,5.31,0,0,1,.46.43c-.39.41-.61,1.21-.85,1.33.16.93.11,2.19.63,2.77.07.26-.15.3-.23.4,0-.15,0-.33-.12-.41.14.52,0,1.56.42,1.69-.17.66-.34-.38-.28.54l-.11-.12c-.59,1.8.94,2.92.18,4.92,0-.14.07-.21.13-.24-.33,2.28.32,4.69-.21,6.94-.11.63.13.7.31,1.09l-.31.14.35.67c.26.94-.74,1.63-.26,2.83l.21-.16c0,.43.12,1.36-.12,1.29,0,0,.21.14.11.31h-.16l.27,1.06c-.11.82-.63-.13-.66,1.06.06.45.46,1.27.57,1.1s.1-.46.26-.47l.08.41c.46.07.94.38,1.27-.62l-.29-.69.23-.22v.58c.21-.33,0-.54-.1-.78a.46.46,0,0,0,.25-.29l-.45-.68c.18-.08.36.31.46-.15-.2-.32-.41.31-.54-.22.21-.33.38-.24.2-.63.12-.05.2,0,.25.19-.14-.35-.06-.92-.31-1.1.26-.35-.07-1.17.38-1.14a2.07,2.07,0,0,1-.37-.93c.53.59,0-1.19.6-1-.48-.43-.21-1.55-.48-2.31,0,0,.12.12.09.19a2.67,2.67,0,0,1,.28-.83c-.4-.06-.49-.72-.73-1.08.38-.53.46.32.83.15-.32,0-.32-.91-.59-.74.24-.4.12-.34.44-.55-.49-.07-.08-.37-.38-.71.24-.58.46-.15.31-.79C94.27,155.53,94.44,156.1,94.44,156.1Zm-.85-15.22h0c0,.13,0,.24,0,.31S93.61,141,93.59,140.88Zm0-1.28c0,.15,0,.35,0,.55a.12.12,0,0,1-.19-.13C93.45,140.09,93.51,139.79,93.59,139.6Zm-2,2.7c0-.2,0-.27.08-.29a2.73,2.73,0,0,0,0,.35l0,0A.39.39,0,0,1,91.64,142.3Z"/><path class="cls-1" d="M92,142.67a.19.19,0,0,1,0,.08.34.34,0,0,0,.06-.12l-.08-.07Z"/><path class="cls-1" d="M92.43,26.73v0a.09.09,0,0,1,0-.06S92.44,26.72,92.43,26.73Z"/><polygon class="cls-1" points="94.13 121.94 94.06 121.94 94.12 122.05 94.13 121.94"/><path class="cls-1" d="M93.39,19.69a.16.16,0,0,0,.07-.1Z"/><path class="cls-1" d="M93.46,16.64l.1-.43A2.08,2.08,0,0,0,93.46,16.64Z"/><path class="cls-1" d="M93.59,14.3a.28.28,0,0,0-.12,0h0Z"/><path class="cls-1" d="M93.93,51.5a.28.28,0,0,0,0,.09C94,51.8,94,51.66,93.93,51.5Z"/><path class="cls-1" d="M93.27,40.43a2.2,2.2,0,0,1,.13.36C93.42,40.59,93.43,40.44,93.27,40.43Z"/><path class="cls-1" d="M94.26,63.86h0v0Z"/><path class="cls-1" d="M93.4,41.3a1,1,0,0,0,0-.51A1.25,1.25,0,0,0,93.4,41.3Z"/><path class="cls-1" d="M93.72,4.16V4.05h0Z"/><path class="cls-1" d="M93.69,4l0-.13C93.66,4,93.66,4,93.69,4Z"/><path class="cls-1" d="M93.58,3.65l.08.26C93.66,3.82,93.67,3.71,93.58,3.65Z"/><path class="cls-1" d="M93.59,7.26l.1,0A.13.13,0,0,0,93.59,7.26Z"/><path class="cls-1" d="M93.62,8.2a2.5,2.5,0,0,0,.16-.87l-.09,0C93.85,7.44,93.45,8,93.62,8.2Z"/><path class="cls-1" d="M92.36,12.13l.08-.79c-.11.14-.25.32-.28,0C91.84,12.3,92.41,11.1,92.36,12.13Z"/><path class="cls-1" d="M92.2,14.58c0-.43-.15,0-.21,0C92.08,14.83,92.11,14.89,92.2,14.58Z"/><path class="cls-1" d="M92.2,32.25l-.25,0C92,32.53,92.05,32.21,92.2,32.25Z"/><polygon class="cls-1" points="93.53 35.63 93.69 35.31 93.45 35.16 93.53 35.63"/><polygon class="cls-1" points="91.7 37.62 91.67 37.48 91.76 38.02 91.7 37.62"/><path class="cls-1" d="M91.79,67.3l.32-.1C92.05,67,91.7,66.93,91.79,67.3Z"/><path class="cls-1" d="M92.12,80.11a.63.63,0,0,0-.11.73A4.62,4.62,0,0,0,92.12,80.11Z"/><polygon class="cls-1" points="91.6 118.54 91.5 118.28 91.58 118.77 91.6 118.54"/></g><g id="_群組_7" data-name="&lt;群組&gt;"><path id="_複合路徑_" data-name="&lt;複合路徑&gt;" class="cls-1" d="M520,135.62c0,.9,0,1.67-.08,2.31a8.87,8.87,0,0,1-.27,1.65,8.36,8.36,0,0,1-.45,1.26,9.23,9.23,0,0,1-.65,1.16,5.7,5.7,0,0,1-2,1.89,5,5,0,0,1-2.55.68,5.07,5.07,0,0,1-2.55-.68,5.79,5.79,0,0,1-2-1.89,10.85,10.85,0,0,1-.66-1.16,7.37,7.37,0,0,1-.47-1.26,8.16,8.16,0,0,1-.26-1.65q-.06-1-.06-2.31c0-1,0-1.84,0-2.52a9.45,9.45,0,0,1,.24-1.82,4.43,4.43,0,0,1,.61-1.42,8.21,8.21,0,0,1,1.11-1.33,6.41,6.41,0,0,1-1.11-1.3,4.73,4.73,0,0,1-.61-1.54,12.35,12.35,0,0,1-.24-2.17c0-.86,0-1.9,0-3.15,0-1,0,.07.06-.6s.1-1.25.18-1.74a5.72,5.72,0,0,1,.33-1.26,11.74,11.74,0,0,1,.53-1.07,6.3,6.3,0,0,1,1.88-2.08,5.59,5.59,0,0,1,6,0,6.19,6.19,0,0,1,1.88,2.08,9.62,9.62,0,0,1,.53,1.07,4.79,4.79,0,0,1,.33,1.26c.08.49.14,1.08.18,1.74s.06-.42.06.6c0,1.25,0,2.29,0,3.15a12.45,12.45,0,0,1-.23,2.17,5.22,5.22,0,0,1-.61,1.54,6.83,6.83,0,0,1-1.12,1.3,8.89,8.89,0,0,1,1.12,1.33,4.92,4.92,0,0,1,.61,1.42,9.5,9.5,0,0,1,.23,1.82C520,133.78,520,134.62,520,135.62Zm-7.92-11.19a2.44,2.44,0,0,0,.59,1.65,1.72,1.72,0,0,0,2.74,0,2.39,2.39,0,0,0,.59-1.65v-4.59a2.39,2.39,0,0,0-.59-1.65,1.72,1.72,0,0,0-2.74,0,2.44,2.44,0,0,0-.59,1.65Zm0,13a2.44,2.44,0,0,0,.59,1.66,1.74,1.74,0,0,0,2.74,0,2.4,2.4,0,0,0,.59-1.66v-4.85a2.39,2.39,0,0,0-.59-1.65,1.72,1.72,0,0,0-2.74,0,2.44,2.44,0,0,0-.59,1.65Z"/><path id="_複合路徑_2" data-name="&lt;複合路徑&gt;" class="cls-1" d="M495,144.29l4.55-13.94-.08-.09a1.52,1.52,0,0,1-.6.3,4,4,0,0,1-1.08.12,3.47,3.47,0,0,1-2-.61,4.33,4.33,0,0,1-1.41-1.54,5.61,5.61,0,0,1-.44-1,10.48,10.48,0,0,1-.27-1.36c-.05-.56-.09-1.26-.12-2.12s0-1.93,0-3.24c0-1.09,0,0,0-.74s.07-1.28.12-1.74a8.5,8.5,0,0,1,.29-1.26,8,8,0,0,1,.46-1.07,5.94,5.94,0,0,1,2.09-2.38,5.38,5.38,0,0,1,3-.84,5.2,5.2,0,0,1,2.94.86,7.42,7.42,0,0,1,2.57,3.43,5.49,5.49,0,0,1,.25,1.26,14.05,14.05,0,0,1,.16,1.74c0,.7,0-.35,0,.74s0,1.87,0,2.54-.06,1.25-.12,1.75a8.9,8.9,0,0,1-.23,1.28c-.11.39-.22.8-.36,1.24l-5.25,16.69Zm2.55-20.19a2.5,2.5,0,0,0,.59,1.73,1.77,1.77,0,0,0,2.74,0,2.46,2.46,0,0,0,.59-1.73v-4.21a2.43,2.43,0,0,0-.59-1.72,1.75,1.75,0,0,0-2.74,0,2.48,2.48,0,0,0-.59,1.72Z"/></g><g id="_群組_8" data-name="&lt;群組&gt;"><path id="_複合路徑_3" data-name="&lt;複合路徑&gt;" class="cls-1" d="M428,135.62c0,.9,0,1.67-.08,2.31a8.87,8.87,0,0,1-.27,1.65,8.36,8.36,0,0,1-.45,1.26,9.23,9.23,0,0,1-.65,1.16,5.7,5.7,0,0,1-2,1.89,5,5,0,0,1-2.55.68,5.07,5.07,0,0,1-2.55-.68,5.79,5.79,0,0,1-2-1.89,10.85,10.85,0,0,1-.66-1.16,7.37,7.37,0,0,1-.47-1.26,8.16,8.16,0,0,1-.26-1.65c0-.64,0-1.41,0-2.31s0-1.84,0-2.52a9.45,9.45,0,0,1,.24-1.82,4.43,4.43,0,0,1,.61-1.42,8.21,8.21,0,0,1,1.11-1.33,6.41,6.41,0,0,1-1.11-1.3,4.73,4.73,0,0,1-.61-1.54,12.35,12.35,0,0,1-.24-2.17c0-.86,0-1.9,0-3.15,0-1,0,.07,0-.6s.1-1.25.18-1.74a5.72,5.72,0,0,1,.33-1.26,11.74,11.74,0,0,1,.53-1.07,6.3,6.3,0,0,1,1.88-2.08,5.59,5.59,0,0,1,6,0,6.19,6.19,0,0,1,1.88,2.08,9.62,9.62,0,0,1,.53,1.07,5.18,5.18,0,0,1,.34,1.26c.07.49.13,1.08.17,1.74s.06-.42.06.6c0,1.25,0,2.29,0,3.15a12.45,12.45,0,0,1-.23,2.17,5,5,0,0,1-.61,1.54,6.83,6.83,0,0,1-1.12,1.3,8.89,8.89,0,0,1,1.12,1.33,4.66,4.66,0,0,1,.61,1.42,9.5,9.5,0,0,1,.23,1.82C428,133.78,428,134.62,428,135.62Zm-7.92-11.19a2.44,2.44,0,0,0,.59,1.65,1.72,1.72,0,0,0,2.74,0,2.39,2.39,0,0,0,.59-1.65v-4.59a2.39,2.39,0,0,0-.59-1.65,1.72,1.72,0,0,0-2.74,0,2.44,2.44,0,0,0-.59,1.65Zm0,13a2.44,2.44,0,0,0,.59,1.66,1.74,1.74,0,0,0,2.74,0,2.4,2.4,0,0,0,.59-1.66v-4.85a2.39,2.39,0,0,0-.59-1.65,1.72,1.72,0,0,0-2.74,0,2.44,2.44,0,0,0-.59,1.65Z"/><path id="_複合路徑_4" data-name="&lt;複合路徑&gt;" class="cls-1" d="M412.53,113l-7,26.77h7.92v4.48H401.51v-4.76L408.3,113Z"/></g><g id="_群組_9" data-name="&lt;群組&gt;"><path id="_複合路徑_5" data-name="&lt;複合路徑&gt;" class="cls-1" d="M336,135.62c0,.9,0,1.67-.08,2.31a8.87,8.87,0,0,1-.27,1.65,8.36,8.36,0,0,1-.45,1.26,9.23,9.23,0,0,1-.65,1.16,5.62,5.62,0,0,1-2,1.89,5.1,5.1,0,0,1-5.09,0,5.62,5.62,0,0,1-2-1.89,11,11,0,0,1-.67-1.16,7.37,7.37,0,0,1-.47-1.26,8.16,8.16,0,0,1-.26-1.65c0-.64,0-1.41,0-2.31s0-1.84,0-2.52a8.77,8.77,0,0,1,.23-1.82,4.43,4.43,0,0,1,.61-1.42,8.77,8.77,0,0,1,1.11-1.33,6.75,6.75,0,0,1-1.11-1.3,4.73,4.73,0,0,1-.61-1.54,11.55,11.55,0,0,1-.23-2.17c0-.86,0-1.9,0-3.15,0-1,0,.07,0-.6s.1-1.25.18-1.74a5.72,5.72,0,0,1,.33-1.26,11.74,11.74,0,0,1,.53-1.07,6.41,6.41,0,0,1,1.88-2.08,5.59,5.59,0,0,1,6,0,6.19,6.19,0,0,1,1.88,2.08,9.62,9.62,0,0,1,.53,1.07,5.18,5.18,0,0,1,.34,1.26c.07.49.13,1.08.17,1.74s.06-.42.06.6c0,1.25,0,2.29,0,3.15a11.55,11.55,0,0,1-.23,2.17,5,5,0,0,1-.61,1.54,6.48,6.48,0,0,1-1.12,1.3,8.32,8.32,0,0,1,1.12,1.33,4.66,4.66,0,0,1,.61,1.42,8.77,8.77,0,0,1,.23,1.82C336,133.78,336,134.62,336,135.62Zm-7.92-11.19a2.44,2.44,0,0,0,.59,1.65,1.78,1.78,0,0,0,1.37.68,1.79,1.79,0,0,0,1.38-.68,2.43,2.43,0,0,0,.58-1.65v-4.59a2.43,2.43,0,0,0-.58-1.65,1.79,1.79,0,0,0-1.38-.68,1.78,1.78,0,0,0-1.37.68,2.44,2.44,0,0,0-.59,1.65Zm0,13a2.44,2.44,0,0,0,.59,1.66,1.76,1.76,0,0,0,1.37.67,1.78,1.78,0,0,0,1.38-.67,2.44,2.44,0,0,0,.58-1.66v-4.85a2.43,2.43,0,0,0-.58-1.65,1.79,1.79,0,0,0-1.38-.68,1.78,1.78,0,0,0-1.37.68,2.44,2.44,0,0,0-.59,1.65Z"/><path id="_複合路徑_6" data-name="&lt;複合路徑&gt;" class="cls-1" d="M321.43,135.62c0,.9,0,1.67-.08,2.31a8.87,8.87,0,0,1-.27,1.65,8.36,8.36,0,0,1-.45,1.26A9.23,9.23,0,0,1,320,142a5.62,5.62,0,0,1-2,1.89,5.1,5.1,0,0,1-5.09,0,5.62,5.62,0,0,1-2-1.89,11,11,0,0,1-.67-1.16,7.37,7.37,0,0,1-.47-1.26,8.16,8.16,0,0,1-.26-1.65c0-.64-.05-1.41-.05-2.31s0-1.84,0-2.52a8.77,8.77,0,0,1,.23-1.82,4.43,4.43,0,0,1,.61-1.42,8.21,8.21,0,0,1,1.11-1.33,6.41,6.41,0,0,1-1.11-1.3,4.73,4.73,0,0,1-.61-1.54,11.55,11.55,0,0,1-.23-2.17c0-.86,0-1.9,0-3.15,0-1,0,.07.05-.6s.1-1.25.18-1.74a5.72,5.72,0,0,1,.33-1.26,11.74,11.74,0,0,1,.53-1.07,6.41,6.41,0,0,1,1.88-2.08,5.59,5.59,0,0,1,6,0,6.19,6.19,0,0,1,1.88,2.08,9.62,9.62,0,0,1,.53,1.07,5.18,5.18,0,0,1,.34,1.26c.07.49.13,1.08.17,1.74s.06-.42.06.6c0,1.25,0,2.29,0,3.15a11.55,11.55,0,0,1-.23,2.17,5,5,0,0,1-.61,1.54,6.48,6.48,0,0,1-1.12,1.3,8.32,8.32,0,0,1,1.12,1.33,4.66,4.66,0,0,1,.61,1.42,8.77,8.77,0,0,1,.23,1.82C321.42,133.78,321.43,134.62,321.43,135.62Zm-7.92-11.19a2.44,2.44,0,0,0,.59,1.65,1.78,1.78,0,0,0,1.37.68,1.79,1.79,0,0,0,1.38-.68,2.43,2.43,0,0,0,.58-1.65v-4.59a2.43,2.43,0,0,0-.58-1.65,1.79,1.79,0,0,0-1.38-.68,1.78,1.78,0,0,0-1.37.68,2.44,2.44,0,0,0-.59,1.65Zm0,13a2.44,2.44,0,0,0,.59,1.66,1.76,1.76,0,0,0,1.37.67,1.78,1.78,0,0,0,1.38-.67,2.44,2.44,0,0,0,.58-1.66v-4.85a2.43,2.43,0,0,0-.58-1.65,1.79,1.79,0,0,0-1.38-.68,1.78,1.78,0,0,0-1.37.68,2.44,2.44,0,0,0-.59,1.65Z"/></g><g id="_群組_10" data-name="&lt;群組&gt;"><path id="_複合路徑_7" data-name="&lt;複合路徑&gt;" class="cls-1" d="M244,135.62c0,.9,0,1.67-.08,2.31a8.87,8.87,0,0,1-.27,1.65,8.36,8.36,0,0,1-.45,1.26,9.23,9.23,0,0,1-.65,1.16,5.7,5.7,0,0,1-2,1.89,5,5,0,0,1-2.55.68,5.07,5.07,0,0,1-2.55-.68,5.79,5.79,0,0,1-2-1.89,10.85,10.85,0,0,1-.66-1.16,7.37,7.37,0,0,1-.47-1.26,8.16,8.16,0,0,1-.26-1.65q-.06-1-.06-2.31c0-1,0-1.84,0-2.52a9.45,9.45,0,0,1,.24-1.82,4.43,4.43,0,0,1,.61-1.42,8.21,8.21,0,0,1,1.11-1.33,6.41,6.41,0,0,1-1.11-1.3,4.73,4.73,0,0,1-.61-1.54,12.35,12.35,0,0,1-.24-2.17c0-.86,0-1.9,0-3.15,0-1,0,.07.06-.6s.1-1.25.18-1.74a5.72,5.72,0,0,1,.33-1.26,11.74,11.74,0,0,1,.53-1.07,6.3,6.3,0,0,1,1.88-2.08,5.59,5.59,0,0,1,6,0,6.19,6.19,0,0,1,1.88,2.08,9.62,9.62,0,0,1,.53,1.07,4.79,4.79,0,0,1,.33,1.26c.08.49.14,1.08.18,1.74s.06-.42.06.6c0,1.25,0,2.29,0,3.15a12.45,12.45,0,0,1-.23,2.17,5.22,5.22,0,0,1-.61,1.54,6.83,6.83,0,0,1-1.12,1.3,8.89,8.89,0,0,1,1.12,1.33,4.92,4.92,0,0,1,.61,1.42,9.5,9.5,0,0,1,.23,1.82C244,133.78,244,134.62,244,135.62Zm-7.92-11.19a2.44,2.44,0,0,0,.59,1.65,1.72,1.72,0,0,0,2.74,0,2.39,2.39,0,0,0,.59-1.65v-4.59a2.39,2.39,0,0,0-.59-1.65,1.72,1.72,0,0,0-2.74,0,2.44,2.44,0,0,0-.59,1.65Zm0,13a2.44,2.44,0,0,0,.59,1.66,1.74,1.74,0,0,0,2.74,0,2.4,2.4,0,0,0,.59-1.66v-4.85a2.39,2.39,0,0,0-.59-1.65,1.72,1.72,0,0,0-2.74,0,2.44,2.44,0,0,0-.59,1.65Z"/><path id="_複合路徑_8" data-name="&lt;複合路徑&gt;" class="cls-1" d="M228,113l-4.55,12,.08.1a1.29,1.29,0,0,1,.61-.3,3.92,3.92,0,0,1,1.08-.12,3.48,3.48,0,0,1,2,.6,4.42,4.42,0,0,1,1.41,1.54,4.8,4.8,0,0,1,.43,1,7.58,7.58,0,0,1,.23,1.37,20.82,20.82,0,0,1,.16,2.12c0,.86,0,1.94,0,3.24,0,1.09,0,2,0,2.68a16,16,0,0,1-.16,1.8,5.48,5.48,0,0,1-.25,1.21,10.28,10.28,0,0,1-.45,1.07,5.89,5.89,0,0,1-2.1,2.38,5.36,5.36,0,0,1-3,.84,5.2,5.2,0,0,1-2.94-.86,6.38,6.38,0,0,1-2.08-2.36c-.18-.37-.33-.73-.47-1.07a6.64,6.64,0,0,1-.31-1.21q-.07-.75-.12-1.8c0-.7,0-1.59,0-2.68s0-1.87,0-2.54.07-1.23.12-1.7.16-.94.26-1.33.2-.8.33-1.23L223.51,113Zm-2.55,18.24a2.43,2.43,0,0,0-.59-1.72,1.75,1.75,0,0,0-2.74,0,2.48,2.48,0,0,0-.59,1.72v6.16a2.48,2.48,0,0,0,.59,1.72,1.77,1.77,0,0,0,2.74,0,2.43,2.43,0,0,0,.59-1.72Z"/></g><g id="_群組_11" data-name="&lt;群組&gt;"><path id="_複合路徑_9" data-name="&lt;複合路徑&gt;" class="cls-1" d="M150.56,113,146,125l.08.1a1.34,1.34,0,0,1,.61-.3,3.92,3.92,0,0,1,1.08-.12,3.48,3.48,0,0,1,2,.6,4.42,4.42,0,0,1,1.41,1.54,4.33,4.33,0,0,1,.43,1,7.58,7.58,0,0,1,.23,1.37,20.82,20.82,0,0,1,.16,2.12c0,.86,0,1.94,0,3.24,0,1.09,0,2,0,2.68a16,16,0,0,1-.16,1.8,5.48,5.48,0,0,1-.25,1.21,10.28,10.28,0,0,1-.45,1.07,5.89,5.89,0,0,1-2.1,2.38,5.36,5.36,0,0,1-3,.84,5.23,5.23,0,0,1-2.94-.86,6.27,6.27,0,0,1-2.07-2.36c-.19-.37-.34-.73-.48-1.07a6.64,6.64,0,0,1-.31-1.21q-.08-.75-.12-1.8c0-.7,0-1.59,0-2.68s0-1.87,0-2.54.07-1.23.12-1.7.16-.94.26-1.33.2-.8.33-1.23L146.09,113ZM148,131.28a2.43,2.43,0,0,0-.59-1.72,1.75,1.75,0,0,0-2.74,0,2.48,2.48,0,0,0-.59,1.72v6.16a2.48,2.48,0,0,0,.59,1.72,1.77,1.77,0,0,0,2.74,0,2.43,2.43,0,0,0,.59-1.72Z"/><path id="_複合路徑_10" data-name="&lt;複合路徑&gt;" class="cls-1" d="M137.43,137.44a8.35,8.35,0,0,1-.49,3,7.15,7.15,0,0,1-1.31,2.24,5.68,5.68,0,0,1-1.9,1.42,5.43,5.43,0,0,1-4.51,0,5.68,5.68,0,0,1-1.9-1.42,7.17,7.17,0,0,1-1.32-2.24,8.58,8.58,0,0,1-.49-3V119.89a8.58,8.58,0,0,1,.49-3,7.17,7.17,0,0,1,1.32-2.24,5.55,5.55,0,0,1,1.9-1.42,5.43,5.43,0,0,1,4.51,0,5.55,5.55,0,0,1,1.9,1.42,7.15,7.15,0,0,1,1.31,2.24,8.35,8.35,0,0,1,.49,3Zm-4-17.55a2.59,2.59,0,0,0-.55-1.7,1.72,1.72,0,0,0-1.41-.68,1.75,1.75,0,0,0-1.41.68,2.65,2.65,0,0,0-.55,1.7v17.55a2.65,2.65,0,0,0,.55,1.7,1.74,1.74,0,0,0,1.41.67,1.72,1.72,0,0,0,1.41-.67,2.59,2.59,0,0,0,.55-1.7Z"/></g><g id="_群組_12" data-name="&lt;群組&gt;"><path id="_複合路徑_11" data-name="&lt;複合路徑&gt;" class="cls-1" d="M58.56,113,54,125l.08.1a1.34,1.34,0,0,1,.61-.3,4,4,0,0,1,1.08-.12,3.48,3.48,0,0,1,2,.6,4.42,4.42,0,0,1,1.41,1.54,4.33,4.33,0,0,1,.43,1,8.44,8.44,0,0,1,.24,1.37,21.2,21.2,0,0,1,.15,2.12c0,.86,0,1.94,0,3.24,0,1.09,0,2,0,2.68a16.27,16.27,0,0,1-.15,1.8,6.08,6.08,0,0,1-.26,1.21,10.28,10.28,0,0,1-.45,1.07,5.89,5.89,0,0,1-2.1,2.38,5.36,5.36,0,0,1-3,.84,5.25,5.25,0,0,1-2.94-.86A6.27,6.27,0,0,1,49,141.35a10.62,10.62,0,0,1-.47-1.07,6.6,6.6,0,0,1-.32-1.21c0-.5-.09-1.1-.11-1.8s0-1.59,0-2.68,0-1.87,0-2.54.06-1.23.11-1.7.17-.94.26-1.33.2-.8.33-1.23L54.09,113ZM56,131.28a2.47,2.47,0,0,0-.58-1.72,1.8,1.8,0,0,0-1.38-.66,1.79,1.79,0,0,0-1.37.66,2.48,2.48,0,0,0-.59,1.72v6.16a2.48,2.48,0,0,0,.59,1.72,1.77,1.77,0,0,0,1.37.65,1.79,1.79,0,0,0,1.38-.65,2.47,2.47,0,0,0,.58-1.72Z"/><path id="_複合路徑_12" data-name="&lt;複合路徑&gt;" class="cls-1" d="M40.69,144.29h-4V113h4v26.21"/></g><g id="_群組_13" data-name="&lt;群組&gt;"><rect id="_矩形_2" data-name="&lt;矩形&gt;" class="cls-2" x="388.67" y="32.45" width="52.78" height="116.23" rx="13.93" ry="13.93"/><polygon id="_路徑_" data-name="&lt;路徑&gt;" class="cls-1" points="397.48 96.6 390.86 94.86 390.86 67.36 397.48 85.11 397.48 96.6"/><polygon id="_路徑_2" data-name="&lt;路徑&gt;" class="cls-1" points="397.48 100.08 390.86 100.95 390.86 126.19 397.48 121.1 397.48 100.08"/><polygon id="_路徑_3" data-name="&lt;路徑&gt;" class="cls-1" points="433.03 96.6 439.65 94.86 439.65 67.36 433.03 85.11 433.03 96.6"/><polygon id="_路徑_4" data-name="&lt;路徑&gt;" class="cls-1" points="433.03 100.08 439.65 100.95 439.65 126.19 433.03 121.1 433.03 100.08"/><polygon id="_路徑_5" data-name="&lt;路徑&gt;" class="cls-1" points="436.34 133.63 393.91 133.63 399.59 125.15 430.66 125.15 436.34 133.63"/><path id="_路徑_6" data-name="&lt;路徑&gt;" class="cls-1" d="M436.34,58.13a44.47,44.47,0,0,0-21.28-5.22c-13.19,0-21.15,5.22-21.15,5.22l5.68,21.59h31.07Z"/><ellipse id="_路徑_7" data-name="&lt;路徑&gt;" class="cls-1" cx="399.85" cy="39.27" rx="4.63" ry="1.73"/><ellipse id="_路徑_8" data-name="&lt;路徑&gt;" class="cls-1" cx="429.62" cy="39.27" rx="4.63" ry="1.73"/></g></g></g></g></svg>