<svg xmlns="http://www.w3.org/2000/svg" viewBox="0 0 357.04 52.45"><defs><style>.cls-1{fill:#fff;}.cls-2{fill:none;}</style></defs><title>資產 4</title><g id="圖層_2" data-name="圖層 2"><g id="圖層_3" data-name="圖層 3"><g id="_群組_" data-name="&lt;群組&gt;"><path class="cls-1" d="M304.43,45.35c.16-.09.07-.28-.37-.25l-.32.33Z"/><path class="cls-1" d="M301.46,44.72c-.52.16-1.12.44-.79.75.52-.32.64-.19,1.2-.56.44,0,.77.11.69.23.16-.09.69.07.93-.13a3.05,3.05,0,0,0-2.06-.07C301.26,44.87,301.42,44.78,301.46,44.72Z"/><path class="cls-1" d="M258.3,44l.27,0Z"/><path class="cls-1" d="M231.55,43.73c.2,0,.29,0,.3-.07C231.66,43.68,231.51,43.7,231.55,43.73Z"/><path class="cls-1" d="M227,43.34l.27,0A.45.45,0,0,0,227,43.34Z"/><path class="cls-1" d="M258.3,44l-.72-.1C257.53,44,258,44,258.3,44Z"/><path class="cls-1" d="M295.5,45.5a1.87,1.87,0,0,0,.39-.09l-.36,0Z"/><path class="cls-1" d="M270.09,43.8h.21a.59.59,0,0,0,.18-.13Z"/><path class="cls-1" d="M279.13,43.79c-.2,0-.27.27-.35.39a.74.74,0,0,1,.45-.19A.34.34,0,0,0,279.13,43.79Z"/><path class="cls-1" d="M293.48,44.35l.25,0Z"/><path class="cls-1" d="M263.61,43.72a.23.23,0,0,0-.08-.11S263.56,43.68,263.61,43.72Z"/><path class="cls-1" d="M10.53,44.75s0,0,0,0S10.46,44.75,10.53,44.75Z"/><path class="cls-1" d="M0,43.31H.19a.5.5,0,0,0,0-.16Z"/><path class="cls-1" d="M218.63,43h0C218.89,42.92,218.76,42.93,218.63,43Z"/><path class="cls-1" d="M141.91,42.83c.87.25-1.41.31-.11.6C141.68,43.32,143,43,141.91,42.83Z"/><path class="cls-1" d="M295.27,45.46h0Z"/><path class="cls-1" d="M141.8,43.43h0l.14,0Z"/><path class="cls-1" d="M199.38,43a.48.48,0,0,0,.19.13S199.52,43.09,199.38,43Z"/><path class="cls-1" d="M213.72,43.49l-.36,0Z"/><path class="cls-1" d="M191.93,43.4a1.74,1.74,0,0,0-.53,0l.08,0A.72.72,0,0,1,191.93,43.4Z"/><path class="cls-1" d="M184.17,43.37l.15.05h.24Z"/><path class="cls-1" d="M34.09,44.71a1.07,1.07,0,0,1-.36-.25C33.85,44.66,32.71,44.73,34.09,44.71Z"/><path class="cls-1" d="M295.5,45.34a.3.3,0,0,1-.23.12l.26,0S295.55,45.36,295.5,45.34Z"/><path class="cls-1" d="M191.6,45.61l-1.23,0C190.71,45.6,191.16,45.61,191.6,45.61Z"/><path class="cls-1" d="M89.7,44.91l-.28,0A.6.6,0,0,0,89.7,44.91Z"/><path class="cls-1" d="M186.71,45.59a2.36,2.36,0,0,0-.69-.19.46.46,0,0,0-.14.07Z"/><path class="cls-1" d="M33.73,44.46Z"/><path class="cls-1" d="M25.61,45.09c1.18,0,.56-.36.81-.57,1.4-.1.64.27,1.12.46.87-.09,1.55-.43,2.2-.41.05.06.17.08,0,.16.93-.29,2.75,0,3.83-.37a.35.35,0,0,1,.14.1.55.55,0,0,1-.17-.51c.53,0,1-.23,1.18,0a.72.72,0,0,0-.5.16l.55-.1c.49.35-.75.12-.75.38a17.79,17.79,0,0,1,3.15-.29c.17.34-1.93.1-.83.41l-1.27-.14c1,.54-.78,0,.11.54,1.68.11,1.88-.16,3.55-.06.38-.19-.12-.28.26-.46,2.38-.33,1.87.86,3.62.41a2,2,0,0,1,1.87-.42l-.43.38c1.63,0,.93-.54,2.63-.28-.3.15-1.27.12-1,.17,1.1.31.78-.21,1.63-.21l.17.34c1.73,0,3.64-.28,5.55-.34-.1.1-.43.21,0,.31a50.17,50.17,0,0,1,7.48.28l.89-.29c.21,0,.38.13.16.19.91.11,0-.19.48-.3s.69.17.36.26a23.27,23.27,0,0,1,6.25-.2l-.33.09c1.32.12,1.49-.6,2.71-.32l-.24.05c2.85.14,6-.11,8.18.34.42-.42,2.82.2,3-.39a19.77,19.77,0,0,0,3.45.61c.62,0,.92-.36,1.68-.42V45l1-.32.55.37.71-.08c-.28,0-.6-.14-.56-.23a5.38,5.38,0,0,1,2.73.39l2.63-.25c-.06.12-.5.16-.85.24,1.41-.31.26.33,1.54,0-.17-.07.1-.18.13-.24a12,12,0,0,0,3.17.12l-.21.21c2,.06,4.11-.08,6.29-.07-.78-.1-.6-.47,0-.5l.26.32c.41-.19-.67-.12.18-.36.82,0,.55.37.08.47l1-.11c.06.1-.17.15-.23.28.4-.2,1.71.33,2.3,0l0,.1c2.19,0,3.18-.1,5-.11,0-.28.73-.21,1.26-.44,1.31.1,2.76.33,4.34.31,1.1-.14.32-.24.82-.4.08.25,1.65.24.84.42,1.89,0,2.41,0,4.8-.24-.25-.11-.55-.15-.39-.24.43,0,1,.11.92.23l-.12,0c2.69-.37,6.2.77,8.34.25l-.12,0,2.22-.27c1,0-.61.19.14.36,2.39-.42,3.78.07,5.75-.2,1.52.76,5.41,0,7.47.46l-.12-.18c.53-.17.64.11,1,.15,0-.14-.57-.16-.24-.26,4.5-.2,9.29.3,13.91.48,1.69,0,1-.92,3.09-.48l-.6.33c3.41-.39,7,0,10.31-.28-.2.07-.21.17-.53.17a4.78,4.78,0,0,0,2.62-.17c.52,0,.12.17.44.27.7.15,1.77-.29,2.15,0,.06,0-.2.07-.33.09.46-.11,2.15,0,1.71-.24,1.25.14,2.39-.11,3.39.06.65-.31,2.14.15,2.35-.28-.09.45,2.2.37,3,.16-.26.14.69.15.38.33.9,0,1.73-.08,1.57-.31,1.67.55,3.35-.42,4.29.27,2.68-.23,5.17-.38,7.59-.48-.09.45-2.67,0-2.57.51a40.34,40.34,0,0,1,5.88-.44c.59.07-.33.2-.53.27,2.29-.17,4.43.06,6.46-.17,0,0-.22.08-.43.12.4,0,.93.07.89-.14l-.39.06c-.64-.31,1.59-.62,1.67-.78-.69.59,2,.16.92.9.27,0,.6-.14.54-.27.39,0,.51.12.12.27,1.44-.1.93-.32,2.23-.31,0,.1-.27.13-.41.25a6,6,0,0,1,2.43-.29c-.07.06.06.14-.27.13,1.89,0,3.23-.5,5.3-.3-.61.43.7.14.81.52l1.12-.11-.45-.18a23.39,23.39,0,0,1,2.68-.14l-.72.16,1.83-.07-1-.14c1-.19-.1-.48,1.2-.37a10.6,10.6,0,0,1,1.48.23h0a4.24,4.24,0,0,1,1.7-.14c.19.12-.15.41,0,.49.48-.31,2.29-.07,2.9-.4-.2.07-.22.27-.15.31l.4-.25c.45.08.52.12.45.28,1.36,0-.43-.48,1.18-.27-.13,0-.07.06-.33.1,1.62.11,3.14-.15,4.63,0,.43.38-1.31.09-.81.41,2.16-.06,4.46-.44,6.54-.34l-.39,0c.29-.53,1.55.27,2.6,0-.25,0-.34.3-.27.24a40.74,40.74,0,0,0,5.08-.28l-.27.14c.84.12,2.21.08,3.12.14.27-.13.79-.11.47-.31,2.79.79,5.34-.39,7.82.27-.3,0-.71.11-.48.11l2.12-.11c-.17-.24-.28-.14-.72-.33a3.64,3.64,0,0,1,1.39-.23c-.95.15,0,.37.41.5-.06-.07.08-.15,0-.22,1.11.41.19-.47,1.7-.18l-.08.12a9.21,9.21,0,0,1,1.69-.18c.25.27-.6.12-.64.34.85,0,1.69-.5,2.46-.23-.36.07-.89.07-1.25.14a3.71,3.71,0,0,0,1.56.29h-.06l1.45.15-.37-.09c1.07-.69,2.18-.12,3.62-.57-1.4.43-.23.25-.34.55.37.09.93.18.77.27.68-.24,1.13.2,2.1-.16,0,.1.72,0,.57.26.88-.07-.21-.17-.13-.29,1.36-.33,3.2.41,5.17,0,1.69-.18,2-.51,3.57-.67.53.16-.43.35-.43.35a6.84,6.84,0,0,0,2.3,0c-.16.08,0,.16.25.27.65,0,.44-.36,1.29-.21a2.3,2.3,0,0,1-.65.39c.76-.09,1.52-.27,2.31-.35.21.17-.48.26-.76.37A7.7,7.7,0,0,0,300,45l-.56-.09c.32,0,.16.23-.08.28-.76.2-1.09-.1-1.14-.2l.57-.06c-.58-.58-2.26.08-3.39,0l.47-.41-1.16.34c-.25-.11-.41-.34.14-.4-.81-.21-.71.14-1.41-.09-.08,0,0-.06,0-.07l-.79.12c.15-.09-.13-.3.35-.23-1.42-.25-2.29.3-2.83,0l.12,0c-2,.13-.19.3-1.67.65l-1-.76-.2.31c-.2,0-.6,0-.53-.16-.76.21.13.13-.31.33-1-.28-2.7.12-2.92-.37-.35.23.93.18-.11.34-.3-.52-1.21.09-2.11-.16.28-.27,1.13-.12.23-.37-.54.46-1.74-.1-2.49,0,0,.36-1.65.15-2.91.26.08-.12-2.39-.21-3.56-.34l0-.07c-.23.37-1.44.3-2.33.37,0-.22.2-.31.68-.4h-.84a2.13,2.13,0,0,1-1,.22l.21-.27a21.2,21.2,0,0,1-3.66.12c-.08.26,1.13.72-.38.89-.05-.14-.11-.38.29-.44a1.91,1.91,0,0,1-.72.06l.6-.23c-.65-.11-.34.19-.86.17,0-.2-.38-.15-.31-.3s.46.08.66,0a4.26,4.26,0,0,1-1.53-.3c.05.11,0,.26-.43.29-1.11,0-.38-.24-1-.35-.27.14-1,0-1,.29-.32,0-.38-.14-.51-.22-.57.12-2.67,0-2,.34l.15,0h-.1c-1.87.29-3.9-.18-5.76-.06v-.1a31.26,31.26,0,0,0-3.27.26c-.33,0-.78-.18-.63-.3a6.72,6.72,0,0,1-2.18,0c.86-.17-.29-.16.88-.13a6,6,0,0,0-2.54,0c.4-.25-.84-.32-1.36-.25l.77.19c-.59,0-1.1,0-1.63,0l.29-.33c-2.26-.41-4.09.67-5.8,0-.6.23,1.22.17.69.43a17.7,17.7,0,0,1-2.45-.53c-1.43-.19-1.33.48-2.82.35.19.12.37.44-.75.54s-1.28-.5-.62-.59c.25,0,.37,0,.36.07.34,0,.78-.09.37-.22l-.14.11c-.51-.12-2-.11-1.61-.31-.79.11-.34.2.25.26-1.34-.18-2.09,0-3.46-.13.21.06.41.2.2.2-2-.16-.89.22-2.26.27-.77-.19.28-.43-1.09-.29-.84-.12-.18-.31.15-.41a10.11,10.11,0,0,1-3-.2l.66-.1a5.53,5.53,0,0,1-1.05,0l.38.24c-.39,0-.72,0-.71-.14-.4.15.3.39-.49.6-.52-.12-1.57.13-1.75-.19,1.62.11-.18-.32,1.2-.36a4,4,0,0,1-1,0c-.06,0,.05-.07.16-.08-1.55-.29-.71.35-2.33.34.21-.18-.37-.34-.63-.31.65,0,.31.3-.29.43a6.14,6.14,0,0,0-1.66.08l.62.07c-.21.18-.73.15-1.45.21-.06-.14.65-.1.4-.16-.8.31-1.81-.33-2.92-.12-.52-.13-.05-.34-.51-.42-1.25.22-1.35-.25-2.66-.07.37.24.44.19-.48.42l2.15-.16-1.38.34c.65,0,1.37-.15,1.76-.1-.66.19-.59.13-.28.33-.89-.36-1.77.2-2.8,0l0-.59c-1.55-.27-2.76.29-4.77.14l.65.1c-.27.24-1.24,0-1.9.12.07-.2-.34-.27-.62-.39,0,.14-1.47,0-1.66.37l-.89-.26c-1.63-.12-1.86.55-3.42.48.47-.22-.24-.36.81-.51-.52,0-1,0-1,.1-.31-.13-1.45.26-1.93.07-.22.08-.29.29-.87.27-.07,0,0-.1,0-.1s-.92.13-.41.35c-1.6-.62-4.49,0-5.88-.51-1.14.07-2.51.12-3.55.13.07-.06,0-.1.2-.07-1.42-.19-.88.56-2.5.35-.82-.33.87-.17.35-.3-.22-.65-2,.09-3-.3l.27,0c-.84-.22-2,.24-3.4.19,0,0,.06-.06,0-.1a19.06,19.06,0,0,1-4,.52c.41-.26.59-.14.34-.39-.58,0,.18.41-1,.48-.38-.14-1.22-.27-1.34-.54h1.11c-.56-.36-1.43,0-2-.06l.07-.16c-1.7.05-1.72.44-3.54.4l.19.12c-1,.39-.84-.22-1.83.06l-.3-.39c-.66.09-2.31.37-3.49.44a20.09,20.09,0,0,1,2.91-.61,9.72,9.72,0,0,0-2.56.22,2.53,2.53,0,0,1,.86-.07,9,9,0,0,1-3.15.44c.23-.76-3.39-.21-4.33-.81-2.29.28-4.55-.14-7.23-.1.95.6-.78,0-.62.62a2.52,2.52,0,0,1-.91,0l-1.89-.37c-.45-.18.59-.14.54-.27-1.37-.06-.57-.27-1.48-.43.19.22-.47.31-1.25.22l1.09.29c-1.9.32-1.64-.52-3.57-.21l.61-.19c-1,.11-3.64,0-4.6.47-.18-.07-.41-.24,0-.28-2.36-.08-5.25.5-7.08.19l.18-.15c-.44,0-.77.28-1.32.13,0-.07.18-.15,0-.16a5.92,5.92,0,0,1-1.75.16l.5-.16c-2.3-.21-3.53.39-5.46.49,0-.44-1.8-.59-2.7-.67l0-.06a65.26,65.26,0,0,0-7,.51c-1.54-.49-5.21-.23-7.68-.5.38.08-.07.34-.51.38s-1.6.3-1.51-.1h.21c-.44-.39-1.63-.29-2.56-.31l-.16.53c-2.43-.78-6.38.25-7.71-.44-.59.13-1.31.13-1.9.26l0-.29c-1.63-.08-2.45-.12-4.46-.06l.41-.2c-1.13,0-1.44.81-2.48.82L78,42.61c-2,0-4-.38-5.94,0,0-.06.09-.18.41-.2-.93,0-3.61-.3-3.27.28,0-.37-2,0-3.11.12l.16-.28a5,5,0,0,1-2.19.55c-.3,0-.26-.23.13-.16-1-.15-.77.27-2,.11l.45-.17a2.53,2.53,0,0,0-1.51.27,3.46,3.46,0,0,1-2.09-.33,1.82,1.82,0,0,1-1.31.28c-.08-.1.14-.15.25-.18-1.71-.2-2.54.31-3.72,0a.24.24,0,0,0-.2-.16c1.36,0,2.46,0,2.35.05,0-.26-1.09-.31-.22-.66a12.26,12.26,0,0,1-3.46.48.38.38,0,0,1-.14-.09l.11,0a2.15,2.15,0,0,0-.68,0,6.84,6.84,0,0,0-.89-.08c-.12-.21-1.26-.12-1.81-.13,0,.28-.67.23,0,.46-.09,0,.1,0,.47,0a1.29,1.29,0,0,0,.23,0l0,0,1.36,0a2.37,2.37,0,0,1-1.49.1c-.29.18-.6.37-.77.46-.75-.4-2.19-.62-2.4-.86-1.67.15-3.94.09-5,.61-.48.07-.55-.15-.73-.24a3.79,3.79,0,0,0,.75-.12c-1,.14-2.82.05-3.05.41-1.19-.17.68-.33-1-.28l.22-.11c-3.24-.61-5.27.92-8.86.15.25,0,.37.06.42.13-4.09-.35-8.44.27-12.49-.27a3.72,3.72,0,0,0-2,.3l-.25-.31-1.2.35c-1.7.24-2.94-.76-5.1-.28l.28.2c-.78,0-2.45.11-2.32-.12a.61.61,0,0,1-.56.1l0-.16L4,43.07c-1.47-.13.23-.63-1.92-.67-.8.06-2.28.45-2,.56s.83.1.85.26l-.73.08c-.13.46-.7.94,1.09,1.27l1.26-.28.4.23H1.88a2,2,0,0,0,1.4-.1.91.91,0,0,0,.53.25L5,44.24c.14.18-.56.36.27.46.57-.2-.55-.41.4-.54.6.21.42.39,1.12.21.1.12,0,.19-.33.25.63-.15,1.66-.06,2-.3.62.26,2.11-.06,2,.38a5.68,5.68,0,0,1,1.67-.36c-1,.52,2.15,0,1.87.6.78-.47,2.8-.19,4.18-.45a.65.65,0,0,1-.35.09,6.83,6.83,0,0,1,1.49.28c.1-.4,1.31-.48,2-.72.95.38-.58.46-.28.82-.05-.32,1.65-.31,1.32-.57.73.23.63.11,1,.44.13-.49.68-.08,1.28-.38,1,.25.27.46,1.42.32C26.64,44.92,25.61,45.09,25.61,45.09ZM53,44.36h0l-.57,0Zm2.3,0h-1c-.08-.1,0-.2.24-.19C54.44,44.22,55,44.28,55.33,44.36Zm-4.86-2c.36,0,.48,0,.53.08l-.63,0a.1.1,0,0,0,0,0A.43.43,0,0,1,50.47,42.39Z"/><path class="cls-1" d="M49.81,42.76l-.15,0a.79.79,0,0,0,.22.06l.13-.08Z"/><path class="cls-1" d="M258.62,44.07h-.05l.1,0Z"/><polygon class="cls-1" points="87.14 45.04 87.13 44.97 86.93 45.03 87.14 45.04"/><path class="cls-1" d="M271.3,45.09a.47.47,0,0,0,.17.07S271.39,45.12,271.3,45.09Z"/><path class="cls-1" d="M276.78,45.17l.78.11C277.22,45.22,277,45.19,276.78,45.17Z"/><path class="cls-1" d="M281,45.33a.25.25,0,0,0,.08-.12h0Z"/><path class="cls-1" d="M214,45.38h-.16C213.46,45.44,213.72,45.42,214,45.38Z"/><path class="cls-1" d="M233.94,44.8c-.21.05-.42.1-.64.13C233.65,45,233.93,45,233.94,44.8Z"/><path class="cls-1" d="M191.74,45.62h0Z"/><path class="cls-1" d="M232.37,44.93a3.21,3.21,0,0,0,.93,0A4.13,4.13,0,0,0,232.37,44.93Z"/><path class="cls-1" d="M299.26,45.54h.2s0,0,0,0Z"/><path class="cls-1" d="M299.49,45.51l.22,0C299.61,45.47,299.52,45.47,299.49,45.51Z"/><path class="cls-1" d="M300.19,45.4l-.48.07A.9.9,0,0,0,300.19,45.4Z"/><path class="cls-1" d="M293.68,45.38l-.06.11A.15.15,0,0,0,293.68,45.38Z"/><path class="cls-1" d="M292,45.41a8.66,8.66,0,0,0,1.58.16l.05-.08C293.35,45.64,292.37,45.24,292,45.41Z"/><path class="cls-1" d="M284.92,44.12l1.42.08c-.25-.11-.58-.25.07-.28C284.62,43.59,286.78,44.17,284.92,44.12Z"/><path class="cls-1" d="M280.51,43.94c.77,0,0-.16,0-.22C280.06,43.82,279.94,43.84,280.51,43.94Z"/><path class="cls-1" d="M248.69,43.8l.07-.25C248.17,43.58,248.76,43.65,248.69,43.8Z"/><polygon class="cls-1" points="242.59 45.1 243.17 45.26 243.44 45.03 242.59 45.1"/><polygon class="cls-1" points="239.01 43.26 239.27 43.23 238.28 43.31 239.01 43.26"/><path class="cls-1" d="M185.55,43.12l.18.32C186.13,43.38,186.21,43,185.55,43.12Z"/><path class="cls-1" d="M162.47,43.35a1.76,1.76,0,0,0-1.3-.11C161.69,43.26,162.21,43.39,162.47,43.35Z"/><polygon class="cls-1" points="93.27 42.54 93.73 42.43 92.86 42.52 93.27 42.54"/></g><g id="_群組_2" data-name="&lt;群組&gt;"><path id="_複合路徑_" data-name="&lt;複合路徑&gt;" d="M29.79,39c1.06-.67,2.17-1.42,3.32-2.25A64.51,64.51,0,0,0,44.62,26a1.62,1.62,0,0,1,.5-.48c.22-.06,1,.36,2.39,1.26l0,0h0c1.56,1,2.32,1.63,2.28,1.84s-.43.21-1.11.2A11.52,11.52,0,0,0,46,30.73a60,60,0,0,1-15.32,9l-.1,0h0a5.6,5.6,0,0,1-1.8.5C28.5,40.06,28.86,39.67,29.79,39Zm8-14.16c-.16-.21.05-1.43.64-3.65Q40,14.8,41.5,7.41C42.37,3.06,42.86.82,43,.71l.17,0c.11,0,.25.09.42.17l.55.26.72.32c.39.16.89.4,1.52.71a2.49,2.49,0,0,0,.57.28c.37.07,3.63.17,9.75.3L66,3l.49-.21A8,8,0,0,0,68,1.65l.16-.13c.48-.47.81-.68,1-.65a9.08,9.08,0,0,1,1.79,1.6,11.68,11.68,0,0,1,1.59,1.69q.16.31-.42.57A2.84,2.84,0,0,0,70.77,6c0,.09-.07.3-.17.62Q69.3,12.35,68,20.49l-.5,3.2-.22.22a2.23,2.23,0,0,1-.41.26,7,7,0,0,1-3.28,1,3.45,3.45,0,0,1-.76,0c-.22-.09-.27-.54-.14-1.34l.09-.45a1,1,0,0,0-.19-.85l-.21-.27L53,22l-9.37-.21-.37.31a2.28,2.28,0,0,0-.57,1.28c-.11.41-.6.85-1.47,1.31-1.38.62-2.42.78-3.14.46A.62.62,0,0,1,37.76,24.88Zm25.12-4c.27-.11.49-.51.67-1.19s.66-3,1.45-7C65.94,8,66.41,5.41,66.41,5a.63.63,0,0,0-.39-.5,42.23,42.23,0,0,0-5-.28Q47.75,3.76,47.1,4.05a1.7,1.7,0,0,0-.52.35q-.26.44-1.73,7.82c-.15.74-.36,1.75-.65,3l-.39,2c-.34,1.69-.29,2.7.15,3s1.46.42,3.37.43l2.14.05h.14q12.82.38,13.22.2Zm2.46,19.66c-.33-.13-.61-.58-.85-1.36l-.29-.81a31.49,31.49,0,0,0-7.12-10.6c-.1-.12-.24-.29-.44-.5l-.58-.69c0-.11.08-.19.09-.22s.16,0,.44,0,.69.21,1.22.4a28.42,28.42,0,0,1,5.06,2.52Q68.42,33,68.7,37.2a4.22,4.22,0,0,1-.44,2.22,2.09,2.09,0,0,1-2.53,1.24Z"/><path id="_複合路徑_2" data-name="&lt;複合路徑&gt;" d="M74.87,41.09c-.15-.28.26-.48,1.24-.6Q86.54,39,92.74,36c1.12-.54,1.75-1,1.88-1.34s-.53-.79-1.82-1.2l-.08,0h-.14l0,0a12.82,12.82,0,0,0-3.93-1A4.17,4.17,0,0,0,87,33.49a.81.81,0,0,1-.11.13c-.48.47-.79.76-.94.88a1.88,1.88,0,0,1-1.23.1,6.37,6.37,0,0,1-2.42-.67,1,1,0,0,1-.38-.33c0-.12.58-.8,1.84-2.05l1.18-1.18c2.92-3,4.11-4.68,3.55-5a5.55,5.55,0,0,0-.79-.1,64.75,64.75,0,0,0-7.28-.12,14.42,14.42,0,0,1-1.64.15h-.4l-.34-1a2.7,2.7,0,0,1-.2-1c0-.12.38-.13,1.08,0a52,52,0,0,0,7,.64h.53a13.77,13.77,0,0,0,4-.13,5.69,5.69,0,0,0,1.76-1.62,2,2,0,0,0,.23-.26l.65-.79c1.14-1.37,1.62-2.21,1.44-2.51s-1.13-.4-3-.47a21.34,21.34,0,0,0-3.06.07,1.08,1.08,0,0,0-.9.92c-.12.44-.73.86-1.82,1.25-1.38.48-2.22.52-2.53.12a10.86,10.86,0,0,1,.45-3A45.14,45.14,0,0,0,85.27,7.29a2.15,2.15,0,0,1,.15-1c.14-.11.88.14,2.22.77l1.52.7a10.09,10.09,0,0,0,3.1.6,4.52,4.52,0,0,0,2.1-.18c.31-.2.59-.95.85-2.25l.09-.45c.2-1,.19-1.56,0-1.74s-1.46-.34-3.6-.39H91a59.83,59.83,0,0,0-7.14.11l-.5,0c-.17-.06-.37-.44-.59-1.13a6.65,6.65,0,0,1-.21-.94c0-.12.32-.13.9,0L85,1.66q1.78.27,16,.57l14.31.36.39-.17a12.34,12.34,0,0,0,2.13-1.7,8.45,8.45,0,0,1,.81-.7c.2-.08.52.06,1,.43s.91.82,1.29,1.18c1.18,1.1,1.7,1.75,1.54,2a.55.55,0,0,1-.23.22,40.15,40.15,0,0,1-6.42.08l-1.61,0h-.31c-2.68-.06-4.23,0-4.67.25s-.52.69-.66,1.55l-.11.54a4.44,4.44,0,0,0-.13,2c.16.24.91.38,2.25.41a10.11,10.11,0,0,0,2.08-.09A8.67,8.67,0,0,0,114.64,7a1.94,1.94,0,0,1,.54-.44s.27.22.65.55a19.5,19.5,0,0,1,2.8,2.83.7.7,0,0,1-.13.18,1.18,1.18,0,0,1-.75.43.36.36,0,0,0-.15.08q-.67.43-.72.66l-.17.44a14.62,14.62,0,0,0-.49,2.44c-.36,2.26-.56,3.5-.61,3.74l-.25,1.74-.45.21a1,1,0,0,0-.21.13,7.53,7.53,0,0,1-3.15.78c-.38-.07-.63-.4-.75-1a1.2,1.2,0,0,0-.18-.89l-.21-.28-5.21-.16h-.85q-5.35-.12-5.68.19c-.12.29.28.61,1.19,1a.68.68,0,0,1,.5.41c0,.27-.36.48-1,.65a4,4,0,0,0-1.49.95c-1,.9-1.48,1.59-1.4,2.07v0q.09.5,7.72.66l7.19.11.41-.26a15.32,15.32,0,0,0,1.67-1.43l.66-.62c.49-.49.78-.69.89-.6.55.52,1,1,1.43,1.37,1.5,1.46,2.17,2.31,2,2.54a.94.94,0,0,1-.17.18,22.8,22.8,0,0,1-4.78.16h-.09a23.65,23.65,0,0,0-4.46.13,4.37,4.37,0,0,0-1.31,1.4,36.5,36.5,0,0,1-3.8,4.91,3.1,3.1,0,0,0-.59.93c0,.35.37.68,1.24,1q5.88,2,7.48,4.32a6.3,6.3,0,0,1,.45.9,1.8,1.8,0,0,1-.88,2.39,3,3,0,0,1-3.44-.52c-.54-.43-1.13-.86-1.76-1.29q-5.2-3.59-7-3.68l-.67-.05-1.08.51c-.43.2-.87.4-1.33.59q-7,3.06-19.06,3.92h-.14a16.06,16.06,0,0,1-2,.09l0-.05ZM92.76,16.7a9,9,0,0,0,1-3.15l.08-.4c.4-1.87.51-3,.33-3.25s-.81-.38-1.94-.4H92a4.72,4.72,0,0,0-2.36.4,10.73,10.73,0,0,0-1,3.5l-.09.45a5.4,5.4,0,0,0-.12,2.63c.22.27,1.09.44,2.63.5h.5a2.46,2.46,0,0,0,.87-.11ZM100.84,30c1.63-1.87,2.43-3.11,2.4-3.74,0-.33-.19-.53-.58-.59s-1.67-.13-3.84-.18l-4,0-.41.26a20.61,20.61,0,0,0-2.23,2.23l-.7.79c-1.1,1.19-1.58,1.94-1.43,2.24s1,.47,2.69.69c1.48.21,2.54.36,3.17.47a5.63,5.63,0,0,0,2.5.05A9,9,0,0,0,100.84,30Zm2.69-21.64a4.39,4.39,0,0,0,.79-2.17,4.89,4.89,0,0,0,.14-2c-.15-.3-.88-.46-2.19-.49a4.88,4.88,0,0,0-2.21.26A3.86,3.86,0,0,0,99.24,6a4.93,4.93,0,0,0-.16,1.91c.09.3.61.49,1.55.57h.09a7.21,7.21,0,0,0,2.65,0Zm-1.65,8.5c.26-.24.59-1.36,1-3.38l.14-.71c.31-1.57.37-2.47.18-2.72a4.18,4.18,0,0,0-2-.31h-.36a3.63,3.63,0,0,0-2,.27c-.29.23-.59,1.18-.92,2.84l-.1.49a10.86,10.86,0,0,0-.39,3.29c.1.27.61.43,1.52.48H99a7.21,7.21,0,0,0,2.65,0A1.42,1.42,0,0,0,101.88,16.81Zm9.29.2a11.84,11.84,0,0,0,.93-3.38l.11-.53c.32-1.63.41-2.57.24-2.81s-.74-.37-1.84-.39h-.36a5,5,0,0,0-2.4.35,9.55,9.55,0,0,0-1,3.24,10.82,10.82,0,0,0-.39,3.34c.13.24.65.38,1.57.43h.09a6.67,6.67,0,0,0,2.79-.07Z"/><path id="_複合路徑_3" data-name="&lt;複合路徑&gt;" d="M125.11,19.23q.12-.14,15.51.2l5.4.12,2.9.06c4.34.1,6.92,0,7.72-.28A4.27,4.27,0,0,0,158.21,18c.32-.41.59-.74.82-1a7.88,7.88,0,0,1,1.54-1.44c.1,0,.37.18.83.6,1.64,1.82,2.7,3.07,3.2,3.73s.62,1.18.23,1.35c-.17.05-3.43,0-9.81,0q-29.67-.47-29.79-.73C125,19.78,125,19.37,125.11,19.23Z"/><path id="_複合路徑_4" data-name="&lt;複合路徑&gt;" d="M171.13,21.52A64.51,64.51,0,0,0,183.44,6a8.93,8.93,0,0,1,.76-1.14l.38.14.89.46,1.14.61c.4.22.77.42,1.1.62l.87.52a1.77,1.77,0,0,1,.39.25q.08.09,0,.18a1,1,0,0,1-.94.42c-.36,0-1.16.72-2.39,2.09a63.56,63.56,0,0,1-7,7,19.22,19.22,0,0,0-1.82,1.71,3.76,3.76,0,0,1-.95.73,13.22,13.22,0,0,0-2,1.17,32.67,32.67,0,0,1-3.56,2.11l-.16-.1C170,22.61,170.37,22.19,171.13,21.52Zm18.06,22.09a.2.2,0,0,1,0-.14s0-.12,0-.2a.45.45,0,0,1,0-.2,3.7,3.7,0,0,0-.26-1.88Q188.2,40,184.64,39a.92.92,0,0,1-.2-.14c-.11-.21-.05-.35.18-.44h.73l.45,0a4.07,4.07,0,0,0,.5,0l.58.06a24.84,24.84,0,0,0,4,.18,4,4,0,0,0,3.1-2.08q1.06-1.75,3.12-9.17c.59-2,.91-3.2,1-3.46.25-1.1.12-1.76-.37-2a17.33,17.33,0,0,0-3.93-.3l-1.11,0c-1.91,0-3,.07-3.38.33a5.18,5.18,0,0,0-.9,1.81,32,32,0,0,1-3.86,7.46q-4.8,6.82-14.4,11.12l-.53.21c-1,.42-1.55.58-1.71.45L167.8,43c-.07-.21.29-.53,1.09-1q10.52-6,14.41-16.12c.33-.91.58-1.65.75-2.21.35-1.28.22-2-.39-2.11a1.86,1.86,0,0,0-.48-.06,28.73,28.73,0,0,0-5.46.2,4,4,0,0,1-.63,0,2.33,2.33,0,0,1-.17-.27,4.4,4.4,0,0,1-.58-1.84c0-.09.25-.12.69-.08s.63.13.86.2a100.2,100.2,0,0,0,11.31.6l8.73.23.44-.16A13.4,13.4,0,0,0,200,19.29l.16-.13q.87-.73,1.08-.69a7.23,7.23,0,0,1,1.2,1.19l.07.09,0,0h0l0,.05,0,0,0,.05,0,0a9.19,9.19,0,0,1,1.55,1.91c.09.18-.07.34-.45.48l-.14.05-.4.17a3.32,3.32,0,0,0-1.19,2.16c-.24.91-.48,1.8-.71,2.66Q198.51,37.78,196,40.9a7,7,0,0,1-5.44,2.78,7.33,7.33,0,0,1-.95.07.63.63,0,0,1-.4,0ZM205.5,20.39A28.56,28.56,0,0,1,199.21,7l-.09-.45a1.62,1.62,0,0,0-.87-1.27c-.14,0-.43-.06-.87-.1a44.64,44.64,0,0,0-6.75.12l-.46,0q-.25,0-.63-1.08a3.86,3.86,0,0,1-.27-.9c0-.12.53-.11,1.43,0a28,28,0,0,0,6.65.55,3.88,3.88,0,0,0,2-1.48,3.63,3.63,0,0,1,.77-.7l.11.1a2.15,2.15,0,0,1,.36.25l.44.37.52.41.54.43.52.44a4.17,4.17,0,0,1,.42.39,2.23,2.23,0,0,0,.28.27l.11.14c-.08.23-.57.46-1.48.68a3.83,3.83,0,0,0-1.32.55c-.3.26-.21.89.25,1.88.14.33.3.66.47,1A23.94,23.94,0,0,0,211,18.14a5.6,5.6,0,0,1,1.07.7c.28.24.14.46-.4.66a4.89,4.89,0,0,0-.54.21,7.67,7.67,0,0,0-2.84,2.35,3.46,3.46,0,0,1-.46.52c-.1.06-.4-.15-.91-.64S206,20.94,205.5,20.39Z"/><path id="_複合路徑_5" data-name="&lt;複合路徑&gt;" d="M213.87,43.65c-1-2.67-1.4-4.09-1.3-4.27l.11-.08a2,2,0,0,1,.35-.08l.44-.08.37-.08c3.37-.53,5.23-1,5.59-1.49l.28-.31L221,31l.95-4.81c.21-1.36.09-2.15-.38-2.37a11.79,11.79,0,0,0-2.82,0,13.19,13.19,0,0,1-1.64.1h-.4l-.3-1a5.07,5.07,0,0,1-.24-1c0-.12.27-.13.72,0,1.42.24,2.7.4,3.85.48l1.19.12.41-.26.11-.09a5.61,5.61,0,0,0,.85-2.48,6.91,6.91,0,0,0,.23-2.32c-.11-.33-.63-.52-1.54-.56a3.55,3.55,0,0,1-.57-.06c-.56,0-.82-.15-.79-.33s-.18-.29-.58-.24a9.19,9.19,0,0,0-1.65,1.08c-.28.21-.52.38-.73.52-.87.64-1.4.91-1.59.82s-.07-.42.35-.89,1-1.12,1.57-1.79a61,61,0,0,0,7.69-12.11,5.14,5.14,0,0,1,.74-1.24,6.67,6.67,0,0,1,2.46.72c.91.35,1.55.6,1.91.76s.5.46.14.63c-.52.37-.18.9,1,1.58a7.53,7.53,0,0,1,3.19,3.11,2.3,2.3,0,0,1-.9,3.42c-1.27.68-2.16.25-2.65-1.31-.36-1.08-.69-2-1-2.66-1-2-2-2.41-3-1.09a71.12,71.12,0,0,1-4.84,5.61c-.93.93-1.38,1.53-1.34,1.8s1.18.46,3.26.47a11.25,11.25,0,0,0,2.91-.2,7.62,7.62,0,0,0,1.79-1.57,3.84,3.84,0,0,1,.83-.78q.19,0,1,.87a5.57,5.57,0,0,1,.41.45c1.09,1.25,1.57,2,1.43,2.26S232,17,230.2,17h-.4c-1.31,0-2.08.11-2.31.35a6.34,6.34,0,0,0-.75,2.44l-.16.8q-.56,3.91,2.59.5l.23-.26c.46-.5.77-.75.95-.74s.69.52,1.53,1.55a2.17,2.17,0,0,0,.26.27c.82,1,1.13,1.62.93,1.85s-1.37.3-3.55.28l-1.07,0h-.31a2.84,2.84,0,0,0-2,.45A13.59,13.59,0,0,0,225,28.54l-.39,1.95c-.65,3.26-1,5.15-1,5.65s.08.63.3.72a8.21,8.21,0,0,0,2.2-.22c2.9-.5,4.45-.9,4.63-1.19.07-.09.26-.13.56-.12.09,0,.39,0,.92.1l.86.16c1.75.24,3.43.41,5.05.51a2.59,2.59,0,0,0,1.23-.29l.36-.26L240,34a5.11,5.11,0,0,0,.15-1.92c-.1-.36-.68-.55-1.72-.57-1.37,0-2.14.25-2.32.84s-.88,1-2,1.25-2,.08-2.05-.49a9.06,9.06,0,0,1,.52-2.4,61.63,61.63,0,0,0,2.14-12.59,3.35,3.35,0,0,1,.1-.93c.11-.12.77.1,2,.67s1.81.75,2.12.85A51.55,51.55,0,0,0,245,19l5.62.12.45-.21a7,7,0,0,0,1.3-.91,3.27,3.27,0,0,1,.94-.7c.22,0,.76.39,1.64,1.24l0,.05,0,0c.9.89,1.35,1.42,1.34,1.6s-.26.26-.69.34a1.36,1.36,0,0,0-.54.43l-.34.4-1.14,5.51c-.79,3.64-1.2,5.51-1.25,5.6l-.84.38c-.77.28-1.21.54-1.32.77s.41.86,1.38,1.86a1.2,1.2,0,0,0,.26.28c.76.82,1.05,1.32.87,1.49s-1.85.29-4.8.25l-1.07,0a10.28,10.28,0,0,0-3.5.24q-.42.26-.69,1.68l-.11.53a5.25,5.25,0,0,0-.17,2.23c.16.24.85.38,2.07.4a7.16,7.16,0,0,0,2-.13,7.84,7.84,0,0,0,2-1.75,4.56,4.56,0,0,1,1-1,5.19,5.19,0,0,1,1.14,1.06c1.43,1.52,2.12,2.39,2.07,2.63a.56.56,0,0,1-.26.4c-.35.11-3.88.09-10.61,0q-11.59-.26-13.67,0a3.62,3.62,0,0,1-.5,0c-.2,0-.41-.42-.62-1.13a7.4,7.4,0,0,1-.22-1c.05-.11.37-.12,1,0a59.79,59.79,0,0,0,6.4.67l.62.06a8.87,8.87,0,0,0,3.11-.11c.31-.17.56-.78.77-1.81l.09-.45c.3-1.36.36-2.18.17-2.45s-1-.33-2.48-.37a44,44,0,0,0-4.51.13l-.5,0-.24-.36a1.35,1.35,0,0,0-.46-.59l-.33-.14-2.72,1.24-7.42,3.32c-3.22,1.44-4.89,2.21-5,2.3-.29.23-.5.42-.65.56s-.54.25-.75-.06A.11.11,0,0,0,213.87,43.65ZM216,35.49c-.15-.16-.11-.9.13-2.23a29.85,29.85,0,0,0,.5-5.44A7,7,0,0,1,216.7,26c.12-.3.48,0,1.09.82a12.46,12.46,0,0,1,.85,1.36,6.77,6.77,0,0,1,.47,5.55l-.3.62c-.72,1.35-1.54,1.79-2.46,1.33A.86.86,0,0,1,216,35.49Zm8.83-.48a5.76,5.76,0,0,1,.61-2.18q1.48-4,2.2-6.29a4.06,4.06,0,0,1,.16-.4c.15-.11.85.05,2.1.5a10,10,0,0,1,2,.84c.14.15-.08.36-.66.61a3.26,3.26,0,0,0-.5.26A12,12,0,0,0,228.53,31a45.68,45.68,0,0,1-3,3.95.75.75,0,0,1-.55.07A.3.3,0,0,1,224.82,35Zm9.54-19.35C234,14.61,233.87,14,234,14s.09,0,.25,0l.64.08a16.23,16.23,0,0,0,4.52.46c.54-.14.86-.64,1-1.5a12.42,12.42,0,0,0,0-3.39c-.2-.84-.84-1.23-1.92-1.16l-1.4.06h-.36l-.34-1a5.06,5.06,0,0,1-.21-1c0-.11.37-.12.95,0a9,9,0,0,0,1.17.16,33,33,0,0,0,6.39.54q1.09-.28.93-3.78a3.43,3.43,0,0,1,0-.66l.44,0a9.26,9.26,0,0,1,1.06.09l1.31.18,1.3.21,1,.16.43.1a.16.16,0,0,0,0,.09c0,.23-.3.47-.77.69a2.13,2.13,0,0,0-.86,1c-.34.82-.31,1.4.1,1.74a2.58,2.58,0,0,0,1.43.25,4.78,4.78,0,0,0,1.55-.14,8.5,8.5,0,0,0,2-1.65c.11-.12.23-.25.35-.4.42-.47.69-.65.82-.56a9,9,0,0,1,.64.64C258.21,7,259.06,8,259,8.16s-.76.5-2,.54h-.09c-1.25,0-2,.14-2.14.4a.48.48,0,0,0-.08.18c0,.18.05.27.26.28s.29.14.25.31a1.32,1.32,0,0,1-1,.65l-.34.13a19.1,19.1,0,0,0-3.75,3.09,3.28,3.28,0,0,0-.32.44c-.14.44.21.67,1.08.69.23,0,.46,0,.67,0a6.88,6.88,0,0,0,2.22-1.69,5,5,0,0,1,.94-.88q.22,0,1.08.87a22.56,22.56,0,0,1,1.94,2c.37.39.45.69.23.89a3.43,3.43,0,0,1-1.64.24c-.91,0-4,0-9.28-.12C240.56,16,237,15.93,236.31,16a4.57,4.57,0,0,1-1.75,0A1.69,1.69,0,0,1,234.36,15.66Zm6.72,13.09c.43-1.27.46-2.12.1-2.54a2,2,0,0,0-.85-.24,4.11,4.11,0,0,0-2.59.17,2.9,2.9,0,0,0-.82,1.67c-.29,1.31-.22,2.08.21,2.33a3.14,3.14,0,0,0,.43.1,5.89,5.89,0,0,0,2.61-.08A2.46,2.46,0,0,0,241.08,28.75Zm.91-5a4.51,4.51,0,0,0,.47-2.85c-.1-.36-.55-.59-1.34-.7a3,3,0,0,0-2.52.53,2.63,2.63,0,0,0-.43,1c-.35,1.33-.39,2.2-.12,2.63a1.77,1.77,0,0,0,1,.37,3.45,3.45,0,0,0,2.44-.08A2.45,2.45,0,0,0,242,23.73ZM248.85,12a3.91,3.91,0,0,0,.19-.49,1.43,1.43,0,0,0,.16-.35c.55-1.27.72-2,.5-2.27s-1.16-.34-2.89-.37h-.44a11.56,11.56,0,0,0-3.45.19c-.27.17-.11.62.5,1.35a3.12,3.12,0,0,1,.55,3.54c-.25.47-.24.81,0,1a1.55,1.55,0,0,0,.64.15,6.15,6.15,0,0,0,2.67-.12A8.34,8.34,0,0,0,248.85,12Zm-.57,22.93c.76-.82,1-1.32.71-1.5l-.28-.19q-.17-.09-.18-.45c0-.59-.58-1-1.74-1.15s-2.07,0-2.46.66a3.72,3.72,0,0,0-.54,1.55q-.33,1.92.24,2.19l.33.15A4.79,4.79,0,0,0,246.8,36,5.55,5.55,0,0,0,248.28,34.89ZM250.51,23c.3-1.36.24-2.17-.19-2.42a2.94,2.94,0,0,0-1.48-.25c-1.25,0-2,.21-2.27.62a3.48,3.48,0,0,0-.5,1.37c-.26,1.31-.23,2.08.08,2.33a2.54,2.54,0,0,0,.89.24c1.46.18,2.33.15,2.62-.08A3.33,3.33,0,0,0,250.51,23Zm-1.93,7.23c.34-.2.61-.83.82-1.9a4.1,4.1,0,0,0,.13-1.78c-.12-.27-.73-.42-1.83-.44a5.44,5.44,0,0,0-2,.18c-.31.2-.57.84-.78,1.9a4.36,4.36,0,0,0-.12,1.74c.14.33.78.51,1.91.53a5.2,5.2,0,0,0,1.64-.14Z"/><path id="_複合路徑_6" data-name="&lt;複合路徑&gt;" d="M265.5,40.93a2.86,2.86,0,0,1,.21-3.29,3.68,3.68,0,0,1,3.41-1.85,2.63,2.63,0,0,1,2.29,1.12,3,3,0,0,1-.06,3.26,3.72,3.72,0,0,1-3.36,2A3.15,3.15,0,0,1,266.9,42,3,3,0,0,1,265.5,40.93Zm3.72-9.69a2.54,2.54,0,0,0,0-.29c0-.1,0-.23,0-.36s0-.29,0-.49,0-.38.05-.58,0-.4.06-.62,0-.45.05-.69c0-.45.17-2.3.43-5.57.1-1.73.2-3.2.29-4.42.41-5.49,1-8.86,1.79-10.09a3.09,3.09,0,0,1,2.9-1.28,5.51,5.51,0,0,1,1,.11c1,.2,1.5,1,1.48,2.27q-.09,2.67-3.88,13.84c-.36,1.09-.92,2.82-1.65,5.19a28.28,28.28,0,0,1-1.06,3.06c-.08.11-.33.17-.75.16s-.66-.06-.73-.15Z"/></g><rect class="cls-2" x="307.04" y="2.45" width="50" height="50"/></g></g></svg>