<svg xmlns="http://www.w3.org/2000/svg" viewBox="0 0 359.8 27.46"><defs><style>.cls-1{fill:#fff;}</style></defs><title>資產 5</title><g id="圖層_2" data-name="圖層 2"><g id="圖層_3" data-name="圖層 3"><g id="_群組_" data-name="&lt;群組&gt;"><path class="cls-1" d="M359.71,27.21c.19-.08.08-.28-.44-.24l-.37.33Z"/><path class="cls-1" d="M356.2,26.58c-.61.16-1.32.44-.92.75.6-.32.75-.19,1.41-.56.52,0,.91.11.82.23.18-.08.81.08,1.09-.13a4.33,4.33,0,0,0-2.44-.07C356,26.73,356.16,26.64,356.2,26.58Z"/><path class="cls-1" d="M305.2,25.85l.33,0Z"/><path class="cls-1" d="M273.6,25.53c.24,0,.34,0,.35-.07C273.73,25.48,273.55,25.5,273.6,25.53Z"/><path class="cls-1" d="M268.2,25.15l.32,0A.6.6,0,0,0,268.2,25.15Z"/><path class="cls-1" d="M305.2,25.85l-.84-.11C304.3,25.85,304.79,25.82,305.2,25.85Z"/><path class="cls-1" d="M349.17,27.35a1.91,1.91,0,0,0,.45-.08l-.43,0S349.18,27.33,349.17,27.35Z"/><path class="cls-1" d="M319.13,25.64h.26a1.48,1.48,0,0,0,.21-.13Z"/><path class="cls-1" d="M329.82,25.64c-.24,0-.32.26-.42.39a.92.92,0,0,1,.53-.19C329.94,25.78,329.9,25.72,329.82,25.64Z"/><path class="cls-1" d="M346.77,26.2l.31,0Z"/><path class="cls-1" d="M311.48,25.55a.24.24,0,0,0-.1-.1S311.42,25.52,311.48,25.55Z"/><path class="cls-1" d="M12.44,26.38s0,0,0-.05S12.36,26.38,12.44,26.38Z"/><path class="cls-1" d="M.05,24.94l.17,0a.42.42,0,0,0,0-.15Z"/><path class="cls-1" d="M258.33,24.74h.05C258.64,24.72,258.49,24.72,258.33,24.74Z"/><path class="cls-1" d="M167.68,24.56c1,.26-1.67.32-.13.6C167.41,25.05,169,24.73,167.68,24.56Z"/><path class="cls-1" d="M348.89,27.31h-.44A2.87,2.87,0,0,0,348.89,27.31Z"/><path class="cls-1" d="M167.55,25.16h0l.16,0Z"/><path class="cls-1" d="M235.58,24.82a1.2,1.2,0,0,0,.23.12S235.75,24.87,235.58,24.82Z"/><path class="cls-1" d="M252.53,25.29l-.42,0Z"/><path class="cls-1" d="M226.78,25.17a2,2,0,0,0-.62,0l.09,0A1.25,1.25,0,0,1,226.78,25.17Z"/><path class="cls-1" d="M217.62,25.14l.17.05h.29Z"/><path class="cls-1" d="M40.28,26.37a1.22,1.22,0,0,1-.42-.26C40,26.31,38.65,26.38,40.28,26.37Z"/><path class="cls-1" d="M349.16,27.19c-.05.08-.13.11-.27.12h.3S349.23,27.22,349.16,27.19Z"/><path class="cls-1" d="M226.4,27.39l-1.46-.05C225.35,27.37,225.88,27.39,226.4,27.39Z"/><path class="cls-1" d="M106,26.61l-.33,0A.82.82,0,0,0,106,26.61Z"/><path class="cls-1" d="M220.62,27.37a3.64,3.64,0,0,0-.82-.2.67.67,0,0,0-.17.07Z"/><path class="cls-1" d="M39.85,26.11h0Z"/><path class="cls-1" d="M30.26,26.74c1.39,0,.66-.36.95-.57,1.66-.1.77.27,1.33.46,1-.09,1.83-.43,2.6-.41.06.06.21.09,0,.16,1.09-.29,3.24,0,4.52-.36a.31.31,0,0,1,.16.09.51.51,0,0,1-.19-.51c.62,0,1.15-.23,1.39,0a.87.87,0,0,0-.59.16l.65-.1c.58.35-.89.11-.89.37a24.88,24.88,0,0,1,3.72-.29c.2.34-2.27.11-1,.42L41.46,26c1.15.54-.92,0,.14.54,2,.1,2.21-.17,4.19-.06.45-.19-.14-.28.3-.47,2.81-.32,2.21.87,4.28.42a2.65,2.65,0,0,1,2.21-.42l-.5.39c1.92,0,1.1-.55,3.11-.28-.36.14-1.51.12-1.22.16,1.3.31.92-.21,1.92-.21l.21.34c2,0,4.29-.28,6.55-.33-.12.1-.51.21,0,.31a70,70,0,0,1,8.84.28l1-.29c.25,0,.46.14.19.19,1.07.12.06-.18.57-.29s.81.17.42.25a32.51,32.51,0,0,1,7.39-.19l-.39.09c1.55.13,1.76-.59,3.19-.31l-.27.05c3.37.14,7.09-.11,9.66.34.5-.42,3.34.2,3.56-.39a25.83,25.83,0,0,0,4.08.61c.72,0,1.08-.36,2-.42l0,.31,1.21-.32.65.37.84-.07c-.34,0-.71-.14-.66-.23a7.44,7.44,0,0,1,3.23.39l3.1-.25c-.07.12-.59.16-1,.24,1.66-.31.3.33,1.82,0-.2-.07.11-.18.14-.24a16.35,16.35,0,0,0,3.76.12l-.25.22c2.3.06,4.85-.09,7.43-.07-.92-.1-.71-.47,0-.5l.3.32c.49-.2-.79-.12.22-.36,1,0,.64.37.09.47l1.17-.11c.07.1-.2.15-.28.28.49-.2,2,.33,2.72,0l.07.1c2.58,0,3.75-.09,5.85-.1.05-.28.87-.22,1.5-.44,1.54.1,3.26.32,5.12.31,1.31-.14.38-.24,1-.4.09.25,2,.24,1,.42,2.23,0,2.85,0,5.68-.24-.3-.1-.65-.15-.47-.24.51,0,1.17.12,1.09.24l-.13,0c3.17-.37,7.32.78,9.84.26l-.14,0,2.62-.26c1.21.05-.72.19.17.35,2.83-.42,4.47.08,6.79-.19,1.8.76,6.4,0,8.83.46l-.14-.18c.63-.17.76.11,1.22.15-.06-.14-.68-.16-.29-.26,5.32-.19,11,.31,16.44.49,2,.06,1.14-.91,3.66-.48l-.72.33c4-.38,8.24.05,12.18-.27-.23.08-.24.18-.62.17A6.32,6.32,0,0,0,211.1,27c.62,0,.14.18.52.28.84.15,2.1-.3,2.54-.06.08,0-.23.08-.39.1.55-.12,2.54,0,2-.24,1.48.14,2.83-.11,4,.06.77-.31,2.54.16,2.78-.28-.11.45,2.6.38,3.53.17-.31.13.82.14.45.33,1.07,0,2-.08,1.86-.31,2,.55,4-.42,5.06.28,3.18-.23,6.11-.39,9-.48-.11.45-3.16,0-3,.51a54.43,54.43,0,0,1,7-.44c.69.07-.4.2-.63.27,2.7-.17,5.23.06,7.63-.17,0,0-.26.09-.51.12.48,0,1.11.07,1-.13l-.46.05c-.76-.3,1.89-.61,2-.77-.81.58,2.38.16,1.1.89.31,0,.7-.13.63-.27.46,0,.61.13.14.28a26,26,0,0,1,2.64-.31c0,.1-.32.13-.48.25a8.25,8.25,0,0,1,2.86-.29c-.08.06.08.14-.31.13,2.23,0,3.81-.5,6.26-.3-.73.43.83.15,1,.52l1.32-.11-.53-.18a29.58,29.58,0,0,1,3.17-.13l-.86.15,2.16-.06-1.22-.15c1.17-.18-.12-.47,1.41-.36a14.7,14.7,0,0,1,1.76.23h0a5.94,5.94,0,0,1,2-.14c.22.12-.18.41,0,.49.56-.31,2.7-.07,3.42-.4-.24.08-.25.27-.17.31l.47-.25c.53.08.61.12.52.28,1.61.05-.5-.48,1.4-.26a2.56,2.56,0,0,1-.39.09c1.92.12,3.71-.14,5.47,0,.52.38-1.54.08-.95.4,2.54-.05,5.27-.42,7.72-.33l-.45,0c.34-.53,1.83.27,3.07,0-.3,0-.4.29-.32.23a59.24,59.24,0,0,0,6-.27l-.32.13c1,.13,2.61.08,3.68.15.32-.13.94-.11.56-.31,3.31.79,6.31-.39,9.24.27-.35,0-.84.12-.56.12l2.5-.12c-.2-.23-.33-.14-.85-.32a5,5,0,0,1,1.64-.24c-1.12.15,0,.38.49.51-.08-.07.09-.15.05-.22,1.3.41.22-.47,2-.18l-.1.12a12.93,12.93,0,0,1,2-.18c.3.27-.71.12-.75.34,1,0,2-.5,2.9-.23-.42.07-1,.07-1.47.15a5.58,5.58,0,0,0,1.85.29H327l1.7.15-.43-.09c1.27-.69,2.57-.11,4.28-.56-1.66.42-.28.25-.41.55.44.08,1.1.18.91.26.81-.24,1.34.2,2.48-.15.05.1.86,0,.68.26,1-.07-.25-.17-.16-.29,1.61-.33,3.79.42,6.11,0,2-.18,2.37-.51,4.23-.66.62.15-.52.35-.52.35a9.93,9.93,0,0,0,2.72,0c-.19.08,0,.15.3.26.76,0,.51-.35,1.52-.2a2.7,2.7,0,0,1-.77.39c.91-.09,1.8-.27,2.73-.35.24.17-.57.25-.89.36a10.33,10.33,0,0,0,3-.41l-.67-.09c.39,0,.2.23-.08.28-.9.2-1.3-.1-1.35-.2l.67-.06c-.68-.58-2.67.08-4,0l.56-.41-1.37.34c-.29-.11-.49-.35.17-.41-1-.21-.85.15-1.67-.08-.09,0-.05-.06,0-.08l-.93.12c.18-.08-.16-.29.42-.23-1.68-.25-2.71.3-3.34,0l.14,0c-2.34.13-.23.3-2,.65L339.91,26l-.23.3c-.25,0-.72,0-.63-.16-.9.21.15.13-.37.33-1.16-.28-3.19.12-3.45-.37-.42.23,1.1.18-.13.34-.35-.53-1.43.08-2.49-.16.33-.27,1.33-.12.27-.37-.64.45-2.06-.11-2.95,0,0,.36-1.94.14-3.44.25.1-.12-2.81-.21-4.2-.35l0-.06c-.27.37-1.71.29-2.76.37.05-.22.23-.31.8-.41h-1a3,3,0,0,1-1.18.22l.25-.27a31,31,0,0,1-4.32.12c-.1.25,1.34.72-.44.88-.07-.14-.13-.38.33-.43a2.67,2.67,0,0,1-.85.05l.71-.23c-.76-.1-.4.19-1,.17,0-.2-.46-.14-.37-.3a3.87,3.87,0,0,0,.77,0,6.13,6.13,0,0,1-1.8-.31c.06.11,0,.26-.51.29-1.31,0-.44-.24-1.21-.35-.31.14-1.15,0-1.17.29a.85.85,0,0,1-.6-.22c-.68.12-3.17,0-2.4.34l.17,0h-.11c-2.22.29-4.61-.19-6.81-.07v-.1c-1.32.11-2.93.06-3.87.27-.39,0-.91-.19-.75-.31a9.31,9.31,0,0,1-2.57,0c1-.17-.34-.16,1-.13a8.41,8.41,0,0,0-3,0c.47-.25-1-.33-1.61-.25l.92.18c-.7,0-1.31,0-1.93,0l.34-.33c-2.68-.42-4.83.66-6.86,0-.71.23,1.45.17.82.44a25.71,25.71,0,0,1-2.89-.54c-1.69-.19-1.58.48-3.34.35.23.12.44.43-.88.54-1.23,0-1.51-.5-.73-.6.29,0,.44,0,.42.07.4,0,.92-.09.44-.22l-.16.12c-.61-.12-2.31-.12-1.91-.31-.93.11-.4.19.29.26-1.58-.18-2.46,0-4.09-.14.26.07.5.21.24.2-2.38-.15-1.05.22-2.66.27-.92-.18.33-.43-1.3-.29-1-.12-.21-.31.19-.41a14.11,14.11,0,0,1-3.61-.2l.78-.1a9,9,0,0,1-1.24.05l.44.24c-.45,0-.84,0-.83-.14-.47.15.36.39-.58.6-.61-.12-1.86.12-2.07-.19,1.92.11-.21-.32,1.42-.36a6.48,6.48,0,0,1-1.16,0c-.07,0,.07-.07.19-.09-1.83-.29-.84.36-2.75.34.25-.18-.44-.34-.75-.3.77,0,.37.3-.34.43a8.53,8.53,0,0,0-2,.08l.73.07a4.93,4.93,0,0,1-1.71.2c-.07-.14.77-.09.47-.16-1,.31-2.14-.33-3.45-.12-.61-.13-.06-.34-.6-.42-1.47.22-1.6-.25-3.15-.07.45.24.53.19-.57.41l2.55-.15-1.63.34c.77,0,1.62-.15,2.08-.1-.78.19-.7.13-.33.33-1-.36-2.09.2-3.31-.05l0-.59c-1.83-.27-3.25.29-5.63.13l.77.11c-.32.23-1.47,0-2.24.11.07-.19-.41-.27-.74-.39,0,.15-1.74,0-2,.37l-1.06-.26c-1.92-.12-2.19.55-4,.48.56-.22-.28-.36,1-.51-.62,0-1.17,0-1.18.1-.36-.13-1.71.25-2.28.06a1.65,1.65,0,0,1-1,.28c-.08,0,0-.1,0-.1s-1.08.13-.48.35c-1.89-.63-5.3,0-7-.52-1.35.06-3,.12-4.19.13.08-.06,0-.1.24-.08-1.69-.19-1,.57-3,.35-1-.32,1-.17.41-.29-.26-.65-2.31.08-3.6-.3l.31,0c-1-.23-2.4.23-4,.18,0,0,.08-.06,0-.1a26.39,26.39,0,0,1-4.74.52c.48-.26.7-.14.41-.4-.69,0,.2.42-1.18.49-.45-.14-1.45-.27-1.58-.55h1.3c-.67-.36-1.69,0-2.38-.06l.09-.15c-2,0-2,.43-4.19.4l.23.11c-1.18.39-1-.22-2.17.07l-.35-.4c-.78.09-2.72.37-4.11.44a25.87,25.87,0,0,1,3.43-.6,12.93,12.93,0,0,0-3,.21,3.44,3.44,0,0,1,1-.07,12.4,12.4,0,0,1-3.73.44c.28-.77-4-.21-5.1-.81-2.72.27-5.39-.14-8.55-.11,1.12.6-.92,0-.73.62a3.53,3.53,0,0,1-1.08,0l-2.23-.38c-.53-.18.7-.13.63-.27-1.61-.05-.67-.26-1.74-.43.22.22-.56.31-1.48.23l1.29.28c-2.25.32-1.94-.52-4.22-.2l.72-.19c-1.16.11-4.29,0-5.44.46-.21-.07-.48-.24,0-.28-2.79-.09-6.21.49-8.37.18l.21-.15a3.87,3.87,0,0,1-1.55.13c0-.06.21-.15,0-.16a8.17,8.17,0,0,1-2.07.17l.59-.17c-2.72-.21-4.17.39-6.45.49,0-.44-2.13-.6-3.2-.67l0-.07c-3.16-.06-5.38.35-8.31.51-1.81-.49-6.15-.23-9.08-.51.45.08-.07.34-.59.39-.68-.1-1.9.29-1.79-.11h.25c-.52-.4-1.93-.3-3-.32l-.18.53c-2.88-.78-7.54.25-9.11-.44-.7.13-1.56.12-2.25.25l0-.28c-1.92-.08-2.88-.12-5.26-.07l.48-.2c-1.34,0-1.69.81-2.93.82l-.37-.42c-2.34,0-4.71-.39-7,0,0-.06.11-.19.49-.2-1.1,0-4.26-.31-3.86.28,0-.38-2.42-.05-3.68.11l.19-.28a6.81,6.81,0,0,1-2.59.54c-.35,0-.31-.22.16-.15-1.18-.15-.92.26-2.34.11l.53-.18a3.37,3.37,0,0,0-1.78.28,4.76,4.76,0,0,1-2.48-.34,2.37,2.37,0,0,1-1.54.28c-.09-.09.17-.15.3-.18-2-.2-3,.31-4.41,0,0-.09-.12-.14-.23-.16,1.61,0,2.9,0,2.78.05,0-.26-1.3-.31-.26-.66a17.08,17.08,0,0,1-4.1.48.61.61,0,0,1-.16-.09l.13,0a3,3,0,0,0-.8,0,7.65,7.65,0,0,0-1.05-.08C60.29,23.92,59,24,58.3,24c.05.28-.79.23,0,.47-.1,0,.12,0,.55,0a1.84,1.84,0,0,0,.28,0l0,0H60.7a3.41,3.41,0,0,1-1.77.1c-.33.18-.7.36-.9.45-.89-.4-2.6-.61-2.83-.86-2,.15-4.66.09-5.91.61a1,1,0,0,1-.85-.24,5.19,5.19,0,0,0,.88-.12c-1.12.14-3.33,0-3.6.41-1.42-.17.8-.34-1.15-.28l.26-.11c-3.82-.61-6.23.91-10.47.14.29,0,.44.07.5.13-4.84-.36-10,.27-14.76-.28a5.12,5.12,0,0,0-2.33.3l-.3-.31-1.41.35c-2,.24-3.48-.76-6-.29l.33.21c-.91-.05-2.9.1-2.74-.13a.78.78,0,0,1-.66.1l0-.16-2.24.27C3,24.57,5,24.07,2.42,24c-.94,0-2.69.45-2.33.55s1,.11,1,.26l-.87.08c-.15.47-.82.94,1.3,1.28L3,25.92l.47.23H2.23a2.65,2.65,0,0,0,1.65-.09,1.16,1.16,0,0,0,.62.25L6,25.87c.17.18-.65.36.32.46.68-.2-.65-.41.48-.54.7.22.49.39,1.32.21.12.12-.06.2-.38.25A11.86,11.86,0,0,0,10,26c.74.26,2.49-.06,2.42.38a7.9,7.9,0,0,1,2-.35c-1.24.52,2.54,0,2.21.6.91-.47,3.31-.19,4.93-.45a.86.86,0,0,1-.41.09,10.61,10.61,0,0,1,1.77.28c.11-.39,1.54-.48,2.31-.72,1.11.39-.69.46-.34.83-.05-.32,1.95-.31,1.57-.58.86.24.74.12,1.18.44.15-.48.8-.07,1.51-.37,1.24.24.32.46,1.68.31C31.48,26.57,30.26,26.74,30.26,26.74ZM62.66,26h0l-.67,0Zm2.72,0H64.2c-.1-.1,0-.2.28-.19C64.33,25.89,65,26,65.38,26Zm-5.75-2c.43,0,.57,0,.63.08l-.75,0,0,0A.49.49,0,0,1,59.63,24.06Z"/><path class="cls-1" d="M58.85,24.43l-.17,0,.25.06.16-.09Z"/><path class="cls-1" d="M305.59,25.9h-.06a.34.34,0,0,1,.12,0Z"/><polygon class="cls-1" points="102.96 26.73 102.96 26.66 102.72 26.72 102.96 26.73"/><path class="cls-1" d="M320.57,26.93a.53.53,0,0,0,.2.07A.41.41,0,0,0,320.57,26.93Z"/><path class="cls-1" d="M327.05,27l.91.1A8.52,8.52,0,0,0,327.05,27Z"/><path class="cls-1" d="M332,27.18a.26.26,0,0,0,.09-.12h0Z"/><path class="cls-1" d="M252.86,27.17h-.19C252.22,27.23,252.53,27.21,252.86,27.17Z"/><path class="cls-1" d="M276.42,26.61c-.25.05-.49.1-.75.13C276.08,26.77,276.41,26.77,276.42,26.61Z"/><path class="cls-1" d="M226.55,27.4h0Z"/><path class="cls-1" d="M274.57,26.73a4.07,4.07,0,0,0,1.1,0A6.73,6.73,0,0,0,274.57,26.73Z"/><path class="cls-1" d="M353.6,27.4h.24s0,0,0-.05Z"/><path class="cls-1" d="M353.87,27.36l.27,0A.62.62,0,0,0,353.87,27.36Z"/><path class="cls-1" d="M354.7,27.26l-.56.07A1.23,1.23,0,0,0,354.7,27.26Z"/><path class="cls-1" d="M347,27.24l-.07.1A.11.11,0,0,0,347,27.24Z"/><path class="cls-1" d="M345,27.26a11.05,11.05,0,0,0,1.87.16l.06-.08C346.62,27.49,345.47,27.09,345,27.26Z"/><path class="cls-1" d="M336.66,26l1.67.09c-.29-.11-.67-.25.09-.28C336.31,25.44,338.86,26,336.66,26Z"/><path class="cls-1" d="M331.45,25.78c.9,0,0-.15,0-.21C330.92,25.66,330.78,25.69,331.45,25.78Z"/><path class="cls-1" d="M293.84,25.62l.1-.25C293.24,25.4,293.93,25.47,293.84,25.62Z"/><polygon class="cls-1" points="286.65 26.91 287.33 27.08 287.65 26.84 286.65 26.91"/><polygon class="cls-1" points="282.41 25.07 282.71 25.04 281.56 25.13 282.41 25.07"/><path class="cls-1" d="M219.25,24.9l.21.31C219.93,25.16,220,24.8,219.25,24.9Z"/><path class="cls-1" d="M192,25.1a2.51,2.51,0,0,0-1.54-.11C191.06,25,191.67,25.14,192,25.1Z"/><polygon class="cls-1" points="110.2 24.24 110.75 24.13 109.72 24.22 110.2 24.24"/></g><g id="_群組_2" data-name="&lt;群組&gt;"><path id="_複合路徑_" data-name="&lt;複合路徑&gt;" d="M23.48,21.71a.31.31,0,0,1,0-.1.66.66,0,0,0,0-.15,1.61,1.61,0,0,0-1.3-1.81l-.06,0q-.47-.15-.24-.33a1.82,1.82,0,0,1,.78,0l.93.08a.92.92,0,0,0,.93-.41,15.19,15.19,0,0,0,.68-2.84c.29-1.58.45-2.51.46-2.8s-.1-.3-.27-.31a1.86,1.86,0,0,0-.59.2c-.73.35-1.14.61-1.23.8a1.14,1.14,0,0,1-.15.16c-.18.16-.3.17-.35,0a17.24,17.24,0,0,1-.27-2.48l.05,0,.14-.05.21-.07.26-.08.3-.07.33-.08.46-.11.2,0a2.67,2.67,0,0,0,1.31-.54,4.87,4.87,0,0,0,.5-1.77l.1-.52.14-.76c.11-.75.07-1.19-.14-1.31a4.46,4.46,0,0,0-1.82,0,1.52,1.52,0,0,1-.4,0c-.09,0-.18-.19-.29-.51A1.51,1.51,0,0,1,24,5.27c0-.08.18-.08.49,0a9.44,9.44,0,0,0,2,.23.75.75,0,0,0,.73-.56,1,1,0,0,1,.06-.21A22.33,22.33,0,0,0,27.8.92l0-.07c0-.55,0-.84.09-.85l.22,0,.56.06.71.09.71.1.58.08.25,0s0,0,0,.1a1,1,0,0,1-.47.43c-.29.13-.58.89-.87,2.29s-.31,2.08-.05,2.11.46-.21.89-.7a1.2,1.2,0,0,0,.12-.14c.2-.24.34-.36.43-.35s.36.28.8.8l.05.07c.46.58.65.92.57,1a4.09,4.09,0,0,1-1.65.18H30.4a2.07,2.07,0,0,0-1.16.17,3,3,0,0,0-.44,1.35l-.08.42L28.56,9c-.12.62-.08,1,.11,1a5.41,5.41,0,0,0,1.67-.33c.8-.22,1.22-.33,1.27-.33s0,.26-.35.48a1.82,1.82,0,0,0-.47.3,2.12,2.12,0,0,1-.43.22l-.08,0a11.33,11.33,0,0,0-1.87,1l0,0a1.3,1.3,0,0,0-.38.74c-.09.38-.32,1.52-.68,3.43l-.2,1.06a17.26,17.26,0,0,1-1,4.06,2,2,0,0,1-.9.72,4.63,4.63,0,0,1-.46.16c-.75.22-1.16.28-1.23.17Zm3.4.06c0-.06.11-.26.45-.59a16,16,0,0,0,4.28-7.43,8.28,8.28,0,0,1,.25-.8.21.21,0,0,1,.18-.14l2.51.52c.06,0,.06.07,0,.18s-.21.27-.33.27-.54.36-.86,1.05a3.27,3.27,0,0,0-.49,2.09,3.93,3.93,0,0,0,.51,1c.48.62.88.85,1.18.7a.29.29,0,0,1,.08,0,20.58,20.58,0,0,0,.78-3.42c.34-1.8.52-2.86.53-3.17a.38.38,0,0,0-.19-.37l-.49-.05a24.71,24.71,0,0,0-3.77,0l-.47.08L31,11.49a.81.81,0,0,1-.08-.18c-.19-.51-.26-.78-.19-.81H31l.22,0,.22,0,.7.1a2.59,2.59,0,0,0,.47.07c.21,0,.76,0,1.64.07a55.79,55.79,0,0,0,6.22,0,2.31,2.31,0,0,0,.36-.2,1.68,1.68,0,0,0,.71-.86c0-.14-.15-.22-.48-.24h-.46c-.15,0-.2-.17-.15-.41s0-.45-.07-.53a12.17,12.17,0,0,0-2.68-.17A15.89,15.89,0,0,0,35,8.52a.58.58,0,0,0-.32.48c0,.19-.28.38-.68.57q-1,.48-1.5.21a.23.23,0,0,1-.08-.07c-.1-.1,0-.63.21-1.58a37.43,37.43,0,0,0,1.11-6.89.89.89,0,0,1,.07-.46c0-.06.43.08,1.12.41l1.11.47,2.66.05h.6a11.28,11.28,0,0,0,2.42-.11A3.56,3.56,0,0,0,42.54,1a1.22,1.22,0,0,1,.35-.25c.11,0,.44.21,1,.72l0,0,0,0h0l0,0,0,0,0,0c.49.46.73.74.72.81s-.13.14-.34.23l0,0a1.07,1.07,0,0,0-.5.41,34.3,34.3,0,0,0-.74,4.08l-.25,1.7L42.65,9a.75.75,0,0,0-.24.3q0,.21.75,1a5.43,5.43,0,0,1,.44.47c.36.37.46.6.29.68a15.15,15.15,0,0,1-2.86.11h-2.6l-.14.13a3.39,3.39,0,0,0-.49,1.52,5,5,0,0,0-.16,1.42c0,.15.3.24.76.26a2.36,2.36,0,0,0,.82-.06,4.68,4.68,0,0,0,1.06-.95c.21-.23.4-.42.56-.57l.36.3a12.65,12.65,0,0,1,1.43,1.58.22.22,0,0,1,0,.21,9.24,9.24,0,0,1-2.63.15H37.68l-.14.14a.1.1,0,0,1-.06,0A6.23,6.23,0,0,0,37,17.63l-.1.53,0,.12c-.11.55-.09.88,0,1a5.87,5.87,0,0,0,2.06.2l1,0,2.85.05,0,.14a.63.63,0,0,1-.25.23,2.26,2.26,0,0,0-.27.2,2.4,2.4,0,0,0-.71,1.21.31.31,0,0,1-.11.21,5,5,0,0,1-.69,0,36.82,36.82,0,0,1-4.63-.12,5.44,5.44,0,0,1-1.27-.36,3.82,3.82,0,0,1-2.24-2.69c0-.16-.09-.29-.13-.4s-.21-.39-.32-.39-.42.32-.89.93a11.29,11.29,0,0,1-3.91,3.25l-.1,0a.32.32,0,0,1-.35,0ZM40.52,7.69c.19-.1.34-.46.45-1.05L41,6.39c.09-.42.08-.67,0-.76a6.36,6.36,0,0,0-2.13-.19H35.67l-.14.11a1.66,1.66,0,0,0-.41,1c-.13.71-.08,1.1.14,1.2a6.08,6.08,0,0,0,1.08.06,32.49,32.49,0,0,0,4.13,0Zm.55-2.89c.19-.11.34-.48.46-1.12l0-.23c.09-.46.08-.75,0-.88a6.59,6.59,0,0,0-2.11-.18h-1a7.26,7.26,0,0,0-2.29.15c-.15.09-.27.37-.36.83l0,.2a1.82,1.82,0,0,0,0,1.06,5,5,0,0,0,1.69.18h.07a34,34,0,0,0,3.55,0Z"/><path id="_複合路徑_2" data-name="&lt;複合路徑&gt;" d="M53.88,22.06a8.88,8.88,0,0,1,.38-2.13c.19-.77.33-1.4.43-1.89q.45-2.05.12-2.25c-.06,0-.42,0-1.1,0q-5.88-.12-6.94,0a2.46,2.46,0,0,1-.51,0c-.09,0-.19-.23-.29-.58a1.77,1.77,0,0,1-.08-.44s.26,0,.76,0l.11,0q1.49.2,6.76.35h.34a2.4,2.4,0,0,0,1.25-.15,3.05,3.05,0,0,0,.44-1.38l.07-.34.07-.37V12.9c.14-.73.15-1.16,0-1.28s-.56-.2-1.34-.2H54a8.36,8.36,0,0,0-1.6.08.54.54,0,0,0-.46.59c0,.23-.29.46-.82.7q-1.08.42-1.53.15l-.12-.1a3.35,3.35,0,0,1,.22-1.42c.17-.66.33-1.33.47-2q1.41-6.14,1.25-8.11l0-.07c0-.06.38.07,1.12.38s1.14.48,1.24.53,1.81.09,5,.12l1.29,0c1.93,0,3.07,0,3.41,0a1.54,1.54,0,0,0,.8-.41l.21-.18a.68.68,0,0,1,.12-.11c.25-.22.42-.31.51-.3a5.54,5.54,0,0,1,.94.8,9.53,9.53,0,0,1,.77.81c.07.11,0,.21-.17.3a1.64,1.64,0,0,0-.62.47.59.59,0,0,0-.07.26c-.38,1.48-.76,3.62-1.17,6.42a10.3,10.3,0,0,1-.34,1.82,1.2,1.2,0,0,1-.47.29l-.45.18q-1.68.64-1.5-.36a.8.8,0,0,0,0-.53c-.1-.13-.7-.19-1.81-.21h-.39a3.2,3.2,0,0,0-1.48.17,2.68,2.68,0,0,0-.43,1.28l-.07.39-.09.48,0,.12q-.2.91,0,1.08a4,4,0,0,0,1.85.2h3.25l.21-.14a6.38,6.38,0,0,0,1-.88,3.28,3.28,0,0,1,.26-.25c.29-.31.48-.45.59-.44a6.71,6.71,0,0,1,.65.59c.69.66,1.1,1.08,1.24,1.23s.14.31,0,.42l-.14.11-4.44,0H58.15a1,1,0,0,0-.69.22s0,0,0,.05a18.61,18.61,0,0,0-.71,3.74,13.88,13.88,0,0,1-.31,1.77,1,1,0,0,1-.47.31l-.15.07a3,3,0,0,1-1.63.21A.49.49,0,0,1,53.88,22.06ZM63.06,6.39a4.73,4.73,0,0,0,.51-1.77l.1-.5,0-.26c.09-.4,0-.65-.21-.76a14,14,0,0,0-3.21-.2H58.76l-1.59,0h-.92a6.47,6.47,0,0,0-2.46.22,1.57,1.57,0,0,0-.36,1c0,.25-.06.44-.09.58-.14.66-.22,1.06-.23,1.21s.35.45,1,.52c.39.05,2.64.12,6.76.19l2,0L63,6.45A.17.17,0,0,0,63.06,6.39Zm-.78,4.24a4.94,4.94,0,0,0,.49-1.74l.11-.57c0-.1,0-.16.06-.21.08-.43,0-.7-.17-.81a12.24,12.24,0,0,0-3-.19L58,7.09l-1.78,0h-.8a5.88,5.88,0,0,0-2.41.2c-.18.12-.31.46-.4,1q0,.36-.09.6c0,.15-.08.36-.14.62l0,.25c-.1.43,0,.7.17.81a12.55,12.55,0,0,0,3.08.19l1.67,0,4.7.06.18-.12Z"/><path id="_複合路徑_3" data-name="&lt;複合路徑&gt;" d="M83.9,22.27c.13-.86-.33-1.44-1.4-1.74a.05.05,0,0,1,0,0c-.25-.06-.36-.15-.34-.25s.31-.11.84-.09l.52.06a3.31,3.31,0,0,0,2.23-.35,6,6,0,0,0,1.35-2.4c.12-.29.22-.55.29-.78.47-1.26.59-2,.35-2.11-.07,0-1.27-.09-3.59-.13-6.31-.1-9.6-.1-9.85,0-.08.05-.4.27-1,.68s-1.18.9-1.9,1.38Q69.21,18,69,17.89L69,17.84c0-.06.17-.28.67-.66A35.35,35.35,0,0,0,77.5,8.65a12.24,12.24,0,0,0,.93-1.51q.25-.51-.12-.6l-.45,0c-2.39,0-3.87,0-4.44,0a1.28,1.28,0,0,1-.42,0c-.08,0-.19-.24-.32-.63a1.05,1.05,0,0,1-.1-.41s.25,0,.73,0A27.68,27.68,0,0,0,77,5.81c1,0,1.61,0,1.83,0a.88.88,0,0,0,.56-.27s0,0,0,0a25.39,25.39,0,0,0,1.93-3.8,3.66,3.66,0,0,1,.56-1c.09-.05.37,0,.85.17l0,0h0a7.07,7.07,0,0,1,1.74.67c0,.13-.2.24-.49.31a1.47,1.47,0,0,0-.74.59s-.22.43-.6,1.15c-.1.16-.35.63-.77,1.39-.21.37-.29.61-.23.73s.69.2,1.78.21c.8,0,1.29,0,1.46,0a2.07,2.07,0,0,0,.75-.46A4.24,4.24,0,0,1,86.25,5a1,1,0,0,1,.13.14,9.16,9.16,0,0,1,1.33,1.37c0,.07-.12.13-.28.18s-.52.44-.88,1.12c-.47.92-.63,1.5-.49,1.74a.25.25,0,0,0,.12.1c.25.11.6-.06,1-.5a1.14,1.14,0,0,1,.27-.2c.09,0,.37.21.84.68l0,0v0c.43.44.63.69.62.77s-.1.1-.28.16a.47.47,0,0,0-.15.06c-.23.12-.49.63-.8,1.51a6.91,6.91,0,0,0-.3,1.13c-.09.67.35.6,1.33-.22a1.54,1.54,0,0,1,.57-.34l.12.12a2.6,2.6,0,0,0,.24.27l.33.34.33.34.29.31.17.18a.17.17,0,0,1,0,.14s-.12.11-.34.2a2,2,0,0,0-.33.18,2.71,2.71,0,0,0-.57,1.19c-.08.23-.15.47-.23.71q-1.48,4.57-3.49,5.44l-.59.2c-.84.2-1.3.24-1.4.1S83.9,22.39,83.9,22.27ZM69.71,20.89c0-.53.4-1,1.12-1.44a4.14,4.14,0,0,0,.35-.23,4.93,4.93,0,0,0,2.07-2.71,1.7,1.7,0,0,0,.08-.3c.07-.17.14-.25.23-.25s.22.26.23.74a6.39,6.39,0,0,1-.51,2.73,4.7,4.7,0,0,1-.93,1.39,2.11,2.11,0,0,1-2.08.79A.69.69,0,0,1,69.71,20.89Zm7.16-16c-.14-.08-.24-.36-.28-.85a5.08,5.08,0,0,0-.15-.79,5.76,5.76,0,0,0-.87-2.15.4.4,0,0,1-.1-.2q0-.12.27-.09a4.21,4.21,0,0,1,1.93.8,2.56,2.56,0,0,1,.76.84,2,2,0,0,1,.14,1.95A1.08,1.08,0,0,1,77.12,5Zm9,7.51c.42-1,.54-1.64.36-1.81l-.11-.14-3.8,0-1.08,0a19.25,19.25,0,0,0-2.9.08,1.5,1.5,0,0,0-.67.53l-.2.22c-.58.64-.93,1-1,1.12-.31.32-.53.57-.68.75s-.19.44,0,.55c.06,0,.59,0,1.58,0q7.47.13,7.72,0C85.26,13.6,85.52,13.17,85.83,12.42ZM75.3,20.58l-.13-.16.16-.5,0-.1a13.67,13.67,0,0,0,.58-3.19,2.45,2.45,0,0,1,0-.34q.16-.9,1.08.72a3.63,3.63,0,0,1,.28.63,3.29,3.29,0,0,1-.16,2.55c-.34.69-.8.93-1.36.74A1.3,1.3,0,0,1,75.3,20.58Zm9-12c.45-1,.61-1.62.48-1.81l-.09-.14-1.65,0h-.76A2.76,2.76,0,0,0,81,6.75,8.21,8.21,0,0,0,80,8l-.59.82c-.3.45-.36.71-.18.81a9.58,9.58,0,0,0,2.22.12h.36a8.64,8.64,0,0,0,1.86-.07A2.92,2.92,0,0,0,84.34,8.56ZM79.5,19.32a3,3,0,0,0,0-.58A7.21,7.21,0,0,0,79,16.07a.35.35,0,0,1,0-.19q0-.18.42-.06a3.43,3.43,0,0,1,1.59,1.12,3.51,3.51,0,0,1,.27.4,2.07,2.07,0,0,1,0,1.95.92.92,0,0,1-1.22.56C79.67,19.71,79.49,19.53,79.5,19.32Zm4.16-.9c-.06,0-.12-.21-.2-.55a5.23,5.23,0,0,0-1-2,1.22,1.22,0,0,1-.26-.46c0-.05.22,0,.6,0a8.23,8.23,0,0,1,.86.19c1.2.4,1.72,1,1.55,1.93a1.29,1.29,0,0,1-.36.68.9.9,0,0,1-1.17.2A.06.06,0,0,0,83.66,18.42Z"/><path id="_複合路徑_4" data-name="&lt;複合路徑&gt;" d="M94.45,22.44a6.56,6.56,0,0,1,.36-1.89c.17-.7.41-1.76.71-3.19a49.32,49.32,0,0,0,1.17-6.68l-.1-.09c-.12,0-.5.25-1.15.84l-.28.25A8.3,8.3,0,0,1,93.59,13c-.14,0,0-.3.29-.8A48,48,0,0,0,100,1.91c.29-.61.44-.93.46-1l.22.07c.13,0,.3.09.5.16l.65.22.65.23c.2.07.37.13.5.19a1.61,1.61,0,0,1,.23.1s0,0,0,.07-.17.21-.45.3l-.1,0a2.5,2.5,0,0,0-.89,1c-.65,1.09-1.23,2-1.73,2.71a6.79,6.79,0,0,0-.58,1c-.06.21.08.39.41.53a.23.23,0,0,0,.1,0c.24.13.19.26-.14.41a.81.81,0,0,0-.3.21c-.11.21-.48,1.93-1.08,5.16s-1,5.32-1.16,6.64L97,21.84l-.16.14a2.68,2.68,0,0,1-.67.36,2.25,2.25,0,0,1-1.56.21A.48.48,0,0,1,94.45,22.44Zm4.75-4.76A35.07,35.07,0,0,0,103,10.92a3.61,3.61,0,0,1,.38-.8l.11,0,.24.07.35.11.4.14.4.16c.14,0,.27.1.4.15l.33.14.24.1q.09,0,.09.06a1.37,1.37,0,0,1-.5.34c-.26.05-.56.36-.91.9a23.5,23.5,0,0,1-5.05,5.9l-.33.28c-.32.25-.53.32-.61.2S98.74,18.31,99.2,17.68Zm4.39,4.84a1.7,1.7,0,0,0,0-.55A1.94,1.94,0,0,0,102,20.43l-.2-.05c-.3-.1-.37-.2-.21-.32,0,0,.11,0,.32,0l1,0h.09a12.81,12.81,0,0,0,1.34.09c.33,0,.58-.34.75-.89q.15-.48,1-5c.52-2.84.83-4.57.92-5.17a17.26,17.26,0,0,0,.16-2,3,3,0,0,1,0-.59c0-.13-.16-.21-.55-.26a2.33,2.33,0,0,0-1.54.14,8.18,8.18,0,0,0-.9,1c-.44.5-1,1.07-1.64,1.71a9.87,9.87,0,0,1-2.31,2c-.11,0,0-.28.24-.76a39.82,39.82,0,0,0,4.81-8.18,5.46,5.46,0,0,1,.45-.89c.06-.07.19-.07.41,0l1.07.43c.81.31,1.21.51,1.2.58s0,0,0,.07a.66.66,0,0,1-.45.23.51.51,0,0,0-.2,0,11,11,0,0,0-1.5,2.12.19.19,0,0,0,0,.1c-.23.39-.23.64,0,.73h.24l.24,0H107l.39,0,.44,0h1.63l3.12,0,.28-.11a4.4,4.4,0,0,0,.82-.57l.08-.06c.28-.25.46-.36.55-.34a4.2,4.2,0,0,1,.86.93l.8,1-.13.1a.56.56,0,0,1-.32.11,1.86,1.86,0,0,0-.87.56l-.54.57a12,12,0,0,1-2.23,2l-.18.07c-.1,0,0-.39.31-1.12.14-.35.23-.58.29-.69.35-.9.46-1.43.34-1.58s-.5-.19-1.25-.2a4.49,4.49,0,0,0-2.17.23c-.06.1.21.21.82.33l0,0c.39.1.33.27-.19.53a.59.59,0,0,0-.3.2q-.18.38-1.39,6.7-1,5-1.17,5.92a4,4,0,0,1-.48,1.36,3.33,3.33,0,0,1-1.35.92c-.85.38-1.37.46-1.54.24A.29.29,0,0,1,103.59,22.52Zm8-4.79a21.92,21.92,0,0,0-1.12-5.9,6.38,6.38,0,0,1-.34-1.36c0-.08.06-.11.18-.11s.28.16.56.44a12.42,12.42,0,0,1,1.92,2.3,6.77,6.77,0,0,1,.94,2.59,2.62,2.62,0,0,1-.75,2.63l-.08.05-.09.06-.07,0a.53.53,0,0,1-.12,0l-.14,0-.29-.05A.77.77,0,0,1,111.63,17.73Z"/><path id="_複合路徑_5" data-name="&lt;複合路徑&gt;" d="M130.07,22.55a2.12,2.12,0,0,0,0-.63c-.13-.52-.67-.93-1.63-1.23l-.52-.17q-.16-.09-.15-.21a3.93,3.93,0,0,1,1.53,0,6,6,0,0,0,2.5-.09,3.07,3.07,0,0,0,1.14-1.39c.1-.2.21-.45.35-.76a70.63,70.63,0,0,0,3-10.5l0-.2c.12-.46.11-.75,0-.88a7.32,7.32,0,0,0-2.22-.18H133a7.21,7.21,0,0,0-2.2.16,3.46,3.46,0,0,0-.77.77,23.32,23.32,0,0,1-1.82,2c-1.13,1.09-1.76,1.57-1.91,1.45s-.08,0-.14.13a30,30,0,0,0-1.34,6.38c-.21,1.35-.32,2.06-.33,2.14l-.13.89-.13.12-.21.11a4.07,4.07,0,0,1-1.57.51,1.12,1.12,0,0,1-.29,0c-.15-.06-.16-.3-.05-.73a1.53,1.53,0,0,0,0-.81c-.1-.14-.59-.21-1.48-.22a4.21,4.21,0,0,0-1.45.12c-.16.09-.29.39-.38.89l-.1.67-.17.16a3.26,3.26,0,0,1-.58.36c-.65.27-1.11.32-1.38.14l-.11-.07q-.13-.14.21-1.44c.42-1.65,1-4.38,1.7-8.17.22-1.18.38-2.08.48-2.69a28.54,28.54,0,0,0,.49-3.95,1.39,1.39,0,0,1,.07-.51c.06-.06.38.06,1,.36l.81.38a.7.7,0,0,0,.9-.24,25,25,0,0,0,1.18-3.23l.16-.49c.05-.1.11-.16.19-.15a2.21,2.21,0,0,1,.38.07,11.48,11.48,0,0,1,2.4.72c0,.13-.21.27-.56.4l-.18.07a6.55,6.55,0,0,0-1.2,1.14l-.94,1.05a1.5,1.5,0,0,0-.3.5c-.06.27.08.43.45.46A2.27,2.27,0,0,0,125.35,5l.08-.07c.26-.24.44-.36.53-.34a4.18,4.18,0,0,1,.9.75,3.86,3.86,0,0,1,.73.85c0,.08-.08.17-.28.28a2.25,2.25,0,0,0-.45.31l-.15.19-.27,1.3c-.24,1.21-.27,1.82-.09,1.82s.83-.86,1.85-2.58A35.51,35.51,0,0,0,130.91,2a7.05,7.05,0,0,1,.31-.69l.2,0,.45.13.6.19.62.2.5.18.28.11s0,0,0,.09-.16.24-.42.32a1.36,1.36,0,0,0-.28.11,9.68,9.68,0,0,0-1.09,1.53l-.24.39c-.25.42-.32.71-.23.85l.09.13,2.14,0a16.72,16.72,0,0,0,2.45-.06,3.94,3.94,0,0,0,.81-.59,9.38,9.38,0,0,1,.76-.61l.13.14.33.35.41.45.4.45.29.35.13.16a.93.93,0,0,1-.49.27,1.36,1.36,0,0,0-.51.41,23.39,23.39,0,0,0-.8,3c-.36,1.48-.71,2.82-1,4q-1.84,6.62-3.69,8a4.89,4.89,0,0,1-1.17.58c-1,.36-1.58.45-1.8.28C130.07,22.86,130.06,22.75,130.07,22.55ZM123.4,11.91a.71.71,0,0,0,.35-.48c.07-.24.23-1,.48-2.2l.13-.71,0-.21a4.11,4.11,0,0,0,.14-1.84c-.08-.14-.43-.2-1-.19h-.88c-.56,0-.91,0-1.05.19A5.87,5.87,0,0,0,121,8.39l-.12.66-.08.44a7.12,7.12,0,0,0-.25,2.18c.06.14.31.22.74.24h.32a8.51,8.51,0,0,0,1.75,0Zm-1,6.36a13.9,13.9,0,0,0,.67-2.84l.31-1.63c.1-.69,0-1.09-.14-1.2a5.63,5.63,0,0,0-1.3-.09h-.53c-.53,0-.87.05-1,.22a6.46,6.46,0,0,0-.57,2l-.14.73c-.24,1.3-.38,2.1-.4,2.39s0,.41.16.49a2.23,2.23,0,0,0,.7.1,5.77,5.77,0,0,0,2.07-.1A.67.67,0,0,0,122.39,18.27Zm7.79-3.91v-.23A9.45,9.45,0,0,0,129,10.27a.48.48,0,0,1-.11-.27c0-.19.2-.2.6,0a5.45,5.45,0,0,1,2.06,1.47,5.87,5.87,0,0,1,.5.76,2.67,2.67,0,0,1,.09,2.33,1,1,0,0,1-1.38.6A.79.79,0,0,1,130.18,14.36Z"/><path id="_複合路徑_6" data-name="&lt;複合路徑&gt;" d="M143.2,9.72a5.2,5.2,0,0,0-1.08-2.19,1.34,1.34,0,0,1-.3-.54c.05-.09.36-.08.92,0a5.17,5.17,0,0,1,.92.26c1.17.46,1.69,1.12,1.56,2a1.78,1.78,0,0,1-.29.71,1.08,1.08,0,0,1-1.34.38A.9.9,0,0,1,143.2,9.72ZM141.06,23c-.31-.23-.32-.83-.05-1.79.68-2.25.76-3.61.24-4.1a1.53,1.53,0,0,0-.69-.28.28.28,0,0,1-.16-.23l0-.14c0-.09.22-.14.57-.13h.26a1.18,1.18,0,0,0,.88-.52q.65-.72,4.46-6.8l0-.05V9l0,0v0l0,0v0l0,0v0l0,0v0l0,0v0l0,0v0l0,0V8.61l0,0v0l0,0v0l0,0v0l0,0v0c.7-1.08,1.11-1.69,1.23-1.85s.2-.16.29-.09a9.52,9.52,0,0,1-.85,1.83c-.68,1.35-1.26,2.47-1.72,3.39a29.69,29.69,0,0,0-2.37,5.49,7.3,7.3,0,0,0,0,1.8,5.36,5.36,0,0,1-.56,3.46c-.48.78-1.06,1-1.74.7ZM159.3,11.29a3.67,3.67,0,0,0-.63-1.48c-.25-.22-.77-.25-1.57-.09-1,.21-3.26.62-6.85,1.26a5.21,5.21,0,0,0-1.64.51,1.5,1.5,0,0,1-.35.15s-.07-.13-.12-.36a8.06,8.06,0,0,1-.34-2.1l0-.12h1.56a3.91,3.91,0,0,0,1.78-.23A5,5,0,0,0,152,7.59c.3-.55.52-1,.65-1.23.24-.49.3-.8.18-.94l-.09-.14-.9,0a24.49,24.49,0,0,0-2.87.11l-.12,0a.29.29,0,0,1-.33-.21c-.12-.34-.37-.36-.75-.08a1.87,1.87,0,0,1-.57.34q-.83.27-1.08-.63a1.58,1.58,0,0,1-.08-.28,7.23,7.23,0,0,0-1.37-2.29.58.58,0,0,1-.17-.3c0-.13.34-.14.9,0,1.53.28,2.45.89,2.75,1.83a2.06,2.06,0,0,0,.1.32c.08.14.33.24.75.31l1.3.15c2.16.21,3.35.22,3.57,0l.09-.09a4.93,4.93,0,0,0,.29-2.53.49.49,0,0,1,0-.32l.25,0,.57,0,.73.07.73.09.56.09.25,0a.22.22,0,0,1,0,.09c0,.15-.21.3-.55.45s-.42.49-.55,1.1-.09.79,0,.9a4.41,4.41,0,0,0,1.72.18,7,7,0,0,0,1.77-.1,3.57,3.57,0,0,0,.88-.77l.12-.13c.31-.34.51-.5.6-.5s.3.18.66.56.71.77.88,1,.23.43.1.53l-.14.14-3.41,0h-3.4l-.23.11-.05,0a34.32,34.32,0,0,0-2.55,2.62c-.32.35-.48.58-.45.71s.58.16,1.62.17q1.13,0,1.62,0c1.12,0,1.72-.13,1.79-.35s-.18-.64-.73-1.36c-.3-.39-.44-.64-.42-.74s.35,0,.93.19a8.06,8.06,0,0,1,1.85,1c1.36.95,1.93,2,1.72,3.1a1.63,1.63,0,0,1-.19.52,1.07,1.07,0,0,1-1.32.52A.78.78,0,0,1,159.3,11.29ZM144,22.61a10.44,10.44,0,0,0,2.62-2.91,12.92,12.92,0,0,0,2-7.15,3.46,3.46,0,0,0,0-.44V12s0,0,.14,0l.32,0,.45,0,.53,0,.54.07.49.08.38.07a.14.14,0,0,1,.08.1c0,.15-.14.27-.37.36l-.13.07c-.17.1-.36.64-.56,1.6a18.56,18.56,0,0,1-1.18,3.72,9.74,9.74,0,0,1-4.07,4.34h0l-1.57.77-.09-.05C143.39,23.15,143.54,23,144,22.61Zm6.82-.47c-.09-.11,0-.61.21-1.52.09-.39.19-.77.28-1.12a36.64,36.64,0,0,0,1.09-6.66.4.4,0,0,0,0-.16c0-.41,0-.64.13-.69a6.14,6.14,0,0,1,1.2.13,11.81,11.81,0,0,1,1.47.27q.24.09-.15.3a1.29,1.29,0,0,0-.53.5,1.94,1.94,0,0,0-.11.43q-.6,2.76-.93,5.08c0,.18-.08.51-.15,1s-.12.81-.15,1l-.14,1-.19.14a2.45,2.45,0,0,1-.33.18,2.43,2.43,0,0,1-1.42.3A.6.6,0,0,1,150.78,22.14Zm4.35,0c0-.1.19-1.39.63-3.85q.17-.83.24-1.38a36.74,36.74,0,0,0,.55-4.41,2.5,2.5,0,0,1,.07-.74,4.84,4.84,0,0,1,.68.07l1.37.19.81.12s0,.09,0,.19-.26.29-.38.29l0,0s0,0-.05,0l-.06.08-.06.09-.13.2-.7,3.68-.2,1.08a14.57,14.57,0,0,0-.4,2.84c0,.16.21.23.52.22h.16a1.38,1.38,0,0,0,.72-.15,5.87,5.87,0,0,0,1-2c.26-.66.42-1.07.48-1.24s.15-.23.21-.23.11.07.1.21-.09.61-.22,1.42q-.15.86-.18,1.2a1.11,1.11,0,0,0,.14.85.93.93,0,0,1,.09.94,1.94,1.94,0,0,1-1.47,1,3.19,3.19,0,0,1-.61.06,11.91,11.91,0,0,1-2.6,0A.94.94,0,0,1,155.13,22.14Z"/><path id="_複合路徑_7" data-name="&lt;複合路徑&gt;" d="M166.81,10.41a5.27,5.27,0,0,0-1.1-2.34,1.65,1.65,0,0,1-.35-.6c0-.09.29-.09.76,0,1.59.28,2.48.87,2.66,1.78a1.31,1.31,0,0,1-.31,1.14,1.07,1.07,0,0,1-1.29.4A.54.54,0,0,1,166.81,10.41Zm-2.09,12.86a1.14,1.14,0,0,1-.18-1.27.36.36,0,0,1,0-.09,10.84,10.84,0,0,0,.68-3.74v-.1a1.08,1.08,0,0,0-.92-.88h-.05c-.13-.05-.21-.12-.23-.21a.57.57,0,0,1,0-.12c0-.1.22-.16.59-.17l.37,0c.28,0,.6-.26,1-.73s2.14-3.19,5.09-7.92q1-1.57,1.17-1.83c.11-.15.2-.2.28-.16h0c.1,0-.18.69-.82,1.9-.44.87-.78,1.54-1,2a63.5,63.5,0,0,0-3.33,7,5.25,5.25,0,0,0-.14,2.21,5.61,5.61,0,0,1-.6,3.65c-.49.76-1.08,1-1.76.55ZM170.1,5.82a.61.61,0,0,1-.31-.44,6.55,6.55,0,0,0-1.33-2.5,1.33,1.33,0,0,1-.32-.51s.18-.06.52,0a4.4,4.4,0,0,1,2.54.95,1.43,1.43,0,0,1,.44,2,1.78,1.78,0,0,1-.3.34,1.12,1.12,0,0,1-1.07.31ZM168.84,23a10.49,10.49,0,0,1-.57-2.22l0,0,.1,0,.12,0,.14,0a9.69,9.69,0,0,0,1.77-.35.57.57,0,0,0,.3-.22q.15-.35,1.34-6.64l.81-4.29a35.73,35.73,0,0,0,.58-4.34,5.53,5.53,0,0,1,0-.69q0-.18.06-.18h0l.11,0,.15.06.19.09.21.09.24.09c.41.19.69.32.85.38a4,4,0,0,0,1.48.34l.68.06L177.7,5c.29-.23.44-1.08.46-2.57a4.07,4.07,0,0,1,0-.6c0-.08.09-.11.23-.09l2.85.38a.1.1,0,0,1,0,.14.61.61,0,0,1-.44.36c-.26.1-.47.48-.62,1.12s-.12,1.14.13,1.27a1.79,1.79,0,0,0,.77.17A2.68,2.68,0,0,0,183,4.43a1.41,1.41,0,0,1,.56-.38,4.17,4.17,0,0,1,.92.76,7,7,0,0,1,.78.87c0,.09-.07.18-.28.27l-.1,0a.76.76,0,0,0-.44.37,31.45,31.45,0,0,0-.85,3.92l-.72,3.79c0,.12.29.5.9,1.13.4.45.62.69.64.73s-.21.15-.54.17h-.16a17.28,17.28,0,0,0-1.88.81l-.75.33-.75.32a2.81,2.81,0,0,0-.94.54c-.1.17,0,.44.47.83a11,11,0,0,0,3.9,2.21l.06,0c.45.16.43.32,0,.46A3.46,3.46,0,0,0,182.15,23a1.74,1.74,0,0,1-.21.3c-.08.06-.28,0-.61-.19A9.78,9.78,0,0,1,178.18,20a1.34,1.34,0,0,0-.43-.51l-.17-.12-.53.25c-.9.45-2.53,1.19-4.89,2.24l0,0h0a19.69,19.69,0,0,0-2.64,1.31l-.16.11c-.18.14-.3.17-.35.11S168.9,23.2,168.84,23ZM182.1,7.59c.24-1,.25-1.53,0-1.7L182,5.78l-3,0h-1.17a5.38,5.38,0,0,0-2.11.16c-.16.1-.27.41-.35.91l-.08.42-.07.36v.07c-.12.54-.11.87,0,1a5.82,5.82,0,0,0,2.08.23H178l2.94.08a1.73,1.73,0,0,0,.54-.06C181.7,8.78,181.91,8.34,182.1,7.59Zm-.74,3.93q.39-1.59.09-1.86l-.11-.12-3,0-1.08,0h-.16a5.39,5.39,0,0,0-2.06.16,1.59,1.59,0,0,0-.36.94l-.08.46-.08.41v.07c-.12.55-.11.89,0,1a5.08,5.08,0,0,0,2,.23h.74l1.56,0c.86,0,1.32,0,1.4,0a1.33,1.33,0,0,0,.57-.08A2.71,2.71,0,0,0,181.36,11.52Zm-6.59,8.07h0c1.7-.35,2.55-.54,2.57-.57s.11-.47-.07-1.08a13.94,13.94,0,0,1-.58-3.53,2.29,2.29,0,0,0-.14-.85c-.1-.14-.47-.21-1.11-.22h-.37c-.42,0-.7.06-.82.22a9.94,9.94,0,0,0-.63,2.48l-.12.64L173,19.52l.15.14a.27.27,0,0,1,.08.07,3.66,3.66,0,0,0,1.5-.14Zm4.91-2.82a14.7,14.7,0,0,0,2-1.91,1.66,1.66,0,0,0,.14-.25q0-.21-.6-.24h-.42l0-.28a.93.93,0,0,0-.06-.53,4.41,4.41,0,0,0-1.72-.18h-.57c-.77,0-1.21.1-1.3.29s0,.69.28,1.56a.9.9,0,0,0,.08.21c.48,1.45,1,2.06,1.47,1.84A6.34,6.34,0,0,0,179.68,16.77Z"/><path id="_複合路徑_8" data-name="&lt;複合路徑&gt;" d="M186.21,21.88q0-.22.24-.18a48.68,48.68,0,0,0,6.44.42l2.23.05.21-.12a.55.55,0,0,0,.14-.13,24.5,24.5,0,0,0,.76-3.42c.3-1.71.46-2.72.47-3a.38.38,0,0,0-.21-.35,7.45,7.45,0,0,0-1-.08,29.67,29.67,0,0,0-4.56.09h0c-.18,0-.29,0-.34,0a1.21,1.21,0,0,1-.21-.46,1.65,1.65,0,0,1-.13-.53c0-.08.05-.11.15-.09a15.69,15.69,0,0,0,2,.25,20.42,20.42,0,0,0,4.31.14l0,0a.74.74,0,0,0,.35-.48c.07-.24.24-1,.5-2.29l.38-2.05c.09-.56.08-.91,0-1l-.14-.12-1.91,0h-.51a6.19,6.19,0,0,0-1.58.1,2.67,2.67,0,0,0-.87.8l-.29.34c-.57.65-1.29,1.39-2.15,2.2q-2.17,2.06-2.55,2c-.12,0,0-.28.31-.75l.2-.25a38,38,0,0,0,5.47-9.07l.12-.28c.15-.38.29-.58.41-.61a5,5,0,0,1,1.34.38,10.14,10.14,0,0,1,1.11.45c.45.22.4.37-.15.46-.28.07-.57.38-.89.93l-.43.66q-.29.42-.39.6l-.06.11c-.39.58-.54.93-.45,1.06a4.33,4.33,0,0,0,1.77.25l1.19,0a.81.81,0,0,0,.8-.45,22.29,22.29,0,0,0,.61-2.73,18.6,18.6,0,0,1,.54-2.5h.09l.23,0,.31,0,.39,0,.43,0,.43,0,.38.05.32,0a.9.9,0,0,0,.22,0l.09,0a.2.2,0,0,1,0,.11c0,.17-.2.32-.47.44a.93.93,0,0,0-.26.15A9.41,9.41,0,0,0,201,5.42l-.27,1.45c-.08.5,0,.8.22.89a10.66,10.66,0,0,0,1.81.09h.32a4.76,4.76,0,0,0,1.74-.17,5.92,5.92,0,0,0,1-.9,3.61,3.61,0,0,1,.63-.55c.12,0,.34.12.68.45q1,.94,1.17,1.14c.31.32.3.53,0,.62s-1.55.08-3.82.07l-1.43,0h-.82a2.71,2.71,0,0,0-1.73.33A3.59,3.59,0,0,0,200,10.4c-.06.43-.12.78-.17,1.06l-.16.82,0,.21c-.2,1-.25,1.6-.12,1.77s.46.2,1.09.2h.48a5.76,5.76,0,0,0,1.68-.12,6.5,6.5,0,0,0,1.06-.95l.2-.21c.23-.22.41-.31.55-.27A9.12,9.12,0,0,1,206,14.17l.1.1c.35.35.51.58.5.67a1.13,1.13,0,0,1-.1.13,23.07,23.07,0,0,1-3.56.08h-.55a17.82,17.82,0,0,0-2.59,0A1.12,1.12,0,0,0,199,16l-.5,2.62c-.3,1.62-.47,2.58-.49,2.87a.6.6,0,0,0,.55.61l2.07,0h.67a8.17,8.17,0,0,0,1.89-.1,2.89,2.89,0,0,0,.92-.72l.26-.28a7.52,7.52,0,0,1,.67-.65,2.57,2.57,0,0,1,.66.55c1,1,1.49,1.51,1.47,1.63a.19.19,0,0,1-.13.18c-.26.06-3.51.06-9.77,0h-1.71q-8-.08-8.86.06a.24.24,0,0,1-.2,0A1.38,1.38,0,0,1,186.21,21.88Z"/><path id="_複合路徑_9" data-name="&lt;複合路徑&gt;" d="M214.47,11.23a.71.71,0,0,1-.41-.55,5.93,5.93,0,0,0-1.24-2.34,1.22,1.22,0,0,1-.3-.49c0-.09.33-.09.88,0a5,5,0,0,1,1.35.41c1,.47,1.45,1.11,1.3,1.92a1.59,1.59,0,0,1-.25.6,1,1,0,0,1-1.2.49Zm-2.93,11q1.28-4.1-.27-4.46a.05.05,0,0,1,0,0c-.21,0-.3-.14-.27-.27s.24-.17.62-.23h.27a1.15,1.15,0,0,0,.85-.43q.59-.66,4.27-6.28l.8-1.23c.76-1.14,1.21-1.82,1.36-2s.27-.3.35-.29-.07.43-.39,1.08a1,1,0,0,1-.11.18c-.32.6-.45,1-.36,1.1a3.24,3.24,0,0,0,1.38.34,6.85,6.85,0,0,0,.89.08,20.07,20.07,0,0,0,3.3.09,1.13,1.13,0,0,0,.21-.12,8.34,8.34,0,0,0,.47-1.9l.08-.41,0-.1c.15-.81.18-1.27.08-1.4s-.54-.13-1.26-.08l-.4,0-2.47.18c-.95,0-1.41,0-1.38-.16l0-.09a.3.3,0,0,1,.13-.06l.31-.09.61-.11.72-.13a61.61,61.61,0,0,0,9.38-2.56h0a1.84,1.84,0,0,1,.73-.2c.05,0,.2.21.44.49a7.18,7.18,0,0,1,1.23,1.67c-.09.12-.33.14-.73.06a5.11,5.11,0,0,0-1.58.05l-.09,0-.16,0-.14,0-.18,0-.18,0-.19,0-.19,0-.2,0-.19,0-.19,0a1.68,1.68,0,0,1-.31,0,2.4,2.4,0,0,0-1.15.34,4.59,4.59,0,0,0-.49,1.62l-.07.42-.1.48a3.63,3.63,0,0,0-.12,1.54c.1.12.45.19,1.07.2h.34a4.44,4.44,0,0,0,1.45-.12,6.32,6.32,0,0,0,1-1,3.37,3.37,0,0,1,.48-.48q.12,0,.57.42c.56.59.89.94,1,1,.34.41.39.65.14.74a18.73,18.73,0,0,1-3.08.1c-1.58,0-2.45,0-2.59,0a.88.88,0,0,0-.81.5c0,.06-.14.64-.35,1.74l-.08.44a5.49,5.49,0,0,0-.18,1.68c.07.13.36.21.89.21H227a6.19,6.19,0,0,0,.92,0,2.51,2.51,0,0,0,.93-.61,1.69,1.69,0,0,1,.6-.41,5.3,5.3,0,0,1,.94.77,6.12,6.12,0,0,1,.79.84c.06.09,0,.19-.17.3a2,2,0,0,0-.67.47,22.06,22.06,0,0,0-.74,3.84c0,.18-.09.5-.15,1s-.12.79-.15,1l-.14,1-.18.12a3.69,3.69,0,0,1-.82.4c-.75.25-1.21.29-1.38.1a1.48,1.48,0,0,1,0-.73l.05-.3c.07-.34,0-.55-.17-.65a9.45,9.45,0,0,0-1.38-.06,44.48,44.48,0,0,0-5.43,0c-.24.09-.38.35-.45.78l-.08.41-.18.14a2.7,2.7,0,0,1-.59.29c-.71.27-1.2.32-1.46.17l-.08-.07c-.09-.08-.05-.45.12-1.1.05-.2.1-.41.14-.62q1.42-5.85,1.26-7.93v-.06c0-.08.42.06,1.21.42l.74.33a5.47,5.47,0,0,0,1.7.3h.18c.52,0,.84,0,1-.13a4.43,4.43,0,0,0,.53-1.71l.06-.33.26-1.35c.09-.58.08-.93,0-1l-.14-.11-1.95,0c-1.32,0-2.37,0-3.15.08h-.09a.22.22,0,0,1-.26-.12c-.09-.24-.2-.35-.33-.32a10.66,10.66,0,0,0-1.7,2.76c-1.24,2.4-2,3.92-2.22,4.58a5,5,0,0,0-.16,2.2.52.52,0,0,1,0,.14c.18,1.74,0,3-.69,3.68a3.2,3.2,0,0,1-.27.22,1.49,1.49,0,0,1-1.24.33Q211.1,23.85,211.54,22.26Zm5.84-15.87a.77.77,0,0,1-.39-.21,2.12,2.12,0,0,1-.24-.6,6.23,6.23,0,0,0-1.2-2.2,2,2,0,0,1-.38-.65c0-.11.29-.11.81,0a5.53,5.53,0,0,1,1.39.43q1.59.72,1.5,1.95a1.54,1.54,0,0,1-.31.8,1,1,0,0,1-1.15.49Zm9.73,14.93a15.19,15.19,0,0,0,.63-2.71l0-.09c.23-1.24.34-1.92.33-2,0-.34-.23-.54-.65-.61-.12,0-1.11,0-3-.06h-.28c-1.69,0-2.62,0-2.81,0a1,1,0,0,0-.77.66c0,.06-.17.77-.42,2.11l-.09.46a8,8,0,0,0-.28,1.75c0,.34.39.55,1,.63q.3,0,4.59.12l1.36,0,.18-.14A.89.89,0,0,0,227.11,21.32Z"/><path id="_複合路徑_10" data-name="&lt;複合路徑&gt;" d="M234.91,24.1a6.37,6.37,0,0,1,.34-1.82q.19-.78.57-2.52a70.33,70.33,0,0,0,1.31-7,.4.4,0,0,0-.07-.21c-.11-.07-.49.23-1.14.91a6,6,0,0,1-1.19,1.07c-.2,0,0-.32.45-1.08s.86-1.41,1.34-2.31a53.32,53.32,0,0,0,3.75-8.3.68.68,0,0,1,.11-.21c.07-.07.51,0,1.32.32.53.19.89.33,1.07.42s.27.15.24.21-.17.15-.44.25a1.22,1.22,0,0,0-.3.16A9.89,9.89,0,0,0,241.09,6c-.55,1.08-.92,1.76-1.09,2a.93.93,0,0,0-.11.19c-.31.51-.25.87.19,1.06a.51.51,0,0,1,.15.07c.22.14.17.28-.14.41a.92.92,0,0,0-.29.27c0,.09-.17.65-.38,1.66q-1.3,6.33-1.84,10.14l-.24,1.77-.16.14a2.21,2.21,0,0,1-.62.33,2,2,0,0,1-1.46.19A.86.86,0,0,1,234.91,24.1Zm9.5-.38c.18-.12.36-.26.57-.43a19.86,19.86,0,0,0,4.29-4.57c.13-.2.23-.35.29-.46a2.2,2.2,0,0,0,.16-1.17,32.85,32.85,0,0,1,0-4.55,2.53,2.53,0,0,0-.05-1c-.08-.2-.38,0-.88.54a6.22,6.22,0,0,1-1.11,1.09l-.12.05q0,.18.33.69a2.33,2.33,0,0,1,.16.26c0,.1-.06.21-.29.31a1.11,1.11,0,0,0-.3.28,13.34,13.34,0,0,0-.87,3.85c0,.19-.09.51-.16,1s-.12.8-.14,1l-.15,1-.28.16a3.76,3.76,0,0,1-1.14.44q-.86.14-.72-.6a1.07,1.07,0,0,0,0-.63c-.08-.13-.49-.21-1.25-.22a4.35,4.35,0,0,0-1.24.1q-.25.14-.39.87l-.13.67-.18.14a2.2,2.2,0,0,1-.46.24c-.64.29-1.09.34-1.35.17,0,0-.05,0-.08-.07a2.93,2.93,0,0,1,.15-1.28q1.64-6.61,1.47-8.8v0c0-.1.32,0,.92.26l.51.23.53.22a.51.51,0,0,0,.43,0,9.63,9.63,0,0,0,.56-2.27l.23-1.22c.1-.67,0-1.07-.23-1.2a6.11,6.11,0,0,0-2,.05l-.49.06-.07-.14a.51.51,0,0,1-.08-.18c-.2-.51-.26-.78-.2-.81H241l.2,0,.21,0c.81.11,1.38.18,1.73.2.55,0,.89-.09,1-.33a1.76,1.76,0,0,0,.14-.49,19.38,19.38,0,0,0,.47-3.95,1.37,1.37,0,0,1,.06-.59l.23,0c.15,0,.34,0,.56,0l.69.09.7.09.55.08q.22,0,.24.06s0,0,0,.06a.54.54,0,0,1-.34.37.73.73,0,0,0-.38.41c-.06.18-.2.79-.41,1.81a12.5,12.5,0,0,0-.3,2.09c0,.19.14.28.39.28a.5.5,0,0,0,.16,0A2.87,2.87,0,0,0,248,7.13a2.59,2.59,0,0,1,.4-.41q.15-.06.51.33c.41.47.7.69.89.68s.47-.53.77-1.42.62-1.84.86-2.73a2.46,2.46,0,0,0,.09-.34c.1-.35.19-.53.26-.53l2.61.61c.06,0,.07.06,0,.14a.65.65,0,0,1-.45.34c-.24.09-.49.41-.77,1s-.39.89-.63,1.39a3,3,0,0,0-.43,1.31c.05.15.37.23,1,.24a3.51,3.51,0,0,0,1-.08,3.37,3.37,0,0,0,1-.86,6.9,6.9,0,0,1,.69-.68l.07.07.16.17.21.25a2.61,2.61,0,0,0,.27.31,2.61,2.61,0,0,1,.27.31l.25.31c.07.11.14.2.2.28l.14.2a.3.3,0,0,1,.06.09c-.09.22-.4.33-.94.34a1.07,1.07,0,0,0-.58.11,3.31,3.31,0,0,0-.66,1.44,30.65,30.65,0,0,1-3.16,7.23l-.23.39a1.11,1.11,0,0,0-.2.89,5.58,5.58,0,0,0,.38.81,9.14,9.14,0,0,0,2.4,2.81l.1.07c.2.17.21.3,0,.37,0,0-.21.09-.55.23A3,3,0,0,0,252.56,24a1.52,1.52,0,0,1-.24.3c-.06,0-.22-.12-.47-.44a12.43,12.43,0,0,1-1.41-2.9l0-.09c-.15-.41-.3-.62-.44-.62a4.45,4.45,0,0,0-1.21.92,19,19,0,0,1-2.5,1.91c-1.42,1-2.2,1.35-2.34,1.19S244,24,244.41,23.72Zm-.36-3.61a.69.69,0,0,0,.36-.47c.06-.24.23-1,.48-2.4l.16-.82a5,5,0,0,0,.2-1.93c-.07-.14-.35-.22-.86-.22h-.73c-.54,0-.87,0-1,.2a6.56,6.56,0,0,0-.58,2.08l-.12.67c-.27,1.42-.41,2.26-.43,2.52a.4.4,0,0,0,.18.37,1.48,1.48,0,0,0,.47.08,4.77,4.77,0,0,0,1.86-.07Zm2.35-7.06a3.22,3.22,0,0,0,.25-.23.23.23,0,0,1,.34,0,.48.48,0,0,0,.31.16l.18.05.34-.59.2-.34a15.49,15.49,0,0,0,1.34-2.82.66.66,0,0,0,0-.28c-.07-.15-.61-.23-1.61-.24-.6,0-1,0-1.15,0a.57.57,0,0,0-.51.27,4.84,4.84,0,0,0-.25,1,17.46,17.46,0,0,0-.55,3.28c.06.22.24.27.52.17A1.86,1.86,0,0,0,246.4,13.05Zm6-.71c.75-2.22,1.06-3.46.93-3.74-.07-.13-.29-.21-.67-.24a1.71,1.71,0,0,0-1.3.28,4.74,4.74,0,0,0-.68.94,7.32,7.32,0,0,0-.32,3.4c0,.55.08,1,.14,1.38.14,1,.37,1.3.69.86A13.2,13.2,0,0,0,252.41,12.34Z"/><path id="_複合路徑_11" data-name="&lt;複合路徑&gt;" d="M269.16,24.26a3.85,3.85,0,0,0-.06-.69c-.14-.6-.73-1-1.74-1.26l-.07,0q-.17-.06-.15-.18a7.19,7.19,0,0,1,1.81-.05l.41,0h.19a.92.92,0,0,0,.85-.24,13.23,13.23,0,0,0,.69-2.8l.2-1.08q.54-2.85.57-3.15.11-.78-.3-.87a12.21,12.21,0,0,0-1.28,0c-.95,0-1.81,0-2.58.08l-.28,0-.1-.18c-.1-.22-.2-.33-.3-.35s-.41.41-.75,1.14a22.82,22.82,0,0,1-1.11,2.22,5.05,5.05,0,0,0-.45.94c0,.15.13.41.43.79a5.19,5.19,0,0,1,.73,1.11,2.39,2.39,0,0,1,0,2.8,1.2,1.2,0,0,1-.81.39c-.43,0-.67-.16-.71-.49,0,0,0,0,0-.07a7.16,7.16,0,0,0-.61-1.83,1.33,1.33,0,0,0-.38-.51q-.26-.13-1,.57A17.7,17.7,0,0,1,257.2,24a1.75,1.75,0,0,1-.64.23c-.07-.1.08-.28.45-.55a17.32,17.32,0,0,0,4.48-4.09,5,5,0,0,0,.64-.94.92.92,0,0,0-.27-.87,2.56,2.56,0,0,0-.82-.82c-.23-.09-.47.1-.73.59l-.07.14c-.33.52-.95.66-1.86.44a1,1,0,0,1-.22-.07c-.05-.05,0-.28.22-.69s.6-1.19,1-2.06a51.24,51.24,0,0,0,2.38-5.55q.13-.68-1.53-.45a1.28,1.28,0,0,1-.42,0c-.08,0-.18-.18-.27-.48a1.37,1.37,0,0,1-.11-.53c0-.06.17-.07.49,0,.77.15,1.25.23,1.45.25a1.29,1.29,0,0,0,1.13-.64A34.2,34.2,0,0,0,264,4.1c.19-.55.32-.9.37-1s.11-.16.17-.16l2.36.55c.05,0,0,.09,0,.16a.65.65,0,0,1-.48.32.47.47,0,0,0-.22.09,8,8,0,0,0-1,2.1,8.08,8.08,0,0,0-.71,2.23q0,.21.72.21a4,4,0,0,0,.51,0,2.74,2.74,0,0,0,1-.61c.28-.26.47-.39.58-.39a3.78,3.78,0,0,1,.84.77,11.14,11.14,0,0,1,.74.86c0,.12,0,.23-.24.32a1.59,1.59,0,0,0-.42.22,4.33,4.33,0,0,0-.65,1.52c-.11.35-.19.58-.23.71-.12.49-.05.8.22.93a13.8,13.8,0,0,0,3.07.35l.34,0c.58,0,.93,0,1.06-.12a4.21,4.21,0,0,0,.49-1.63l.09-.44A9.12,9.12,0,0,1,273,9.22c0-.07.2-.08.47-.05a1.72,1.72,0,0,0,.91-.05,7.39,7.39,0,0,0,1.5-1.5c.43-.49.74-.86.92-1.1s.38-.64.24-.78l-.14-.09-3.34,0q-3.27,0-3.81,0a1.66,1.66,0,0,1-.42,0q-.11,0-.3-.63a1.58,1.58,0,0,1-.08-.41s.27,0,.75,0l.61.07c.3,0,.49.06.56.08.49,0,1.63.09,3.44.11H275a22.5,22.5,0,0,0,2.46,0,1.82,1.82,0,0,0,.9-.45l.19-.16.16-.13c.27-.23.46-.33.56-.3a7.28,7.28,0,0,1,.81.84c.39.48.62.78.71.91s0,.18-.16.23L280.2,6a4.43,4.43,0,0,0-1.19.69c-.48.37-1.34,1-2.56,1.75,0,0,0,0-.06,0-.8.54-1.05.86-.72.94a.2.2,0,0,1,.08.14c0,.15-.16.27-.39.36a1.37,1.37,0,0,0-.35.27l-.15.21-.24,1.24a3.18,3.18,0,0,0-.09,1.49c.07.11.41.17,1,.17a3.19,3.19,0,0,0,1-.08,3.75,3.75,0,0,0,1-.88,3.34,3.34,0,0,1,.59-.55c.1,0,.24,0,.43.26l.9,1c.39.45.47.73.25.83a15.64,15.64,0,0,1-2.67.11h-.36a12.07,12.07,0,0,0-1.9,0,1.2,1.2,0,0,0-.77.93c0,.15-.29,1.38-.74,3.67s-.75,3.77-.85,4.13a2,2,0,0,1-.47.9l-.06.09a3.43,3.43,0,0,1-2.15.89,1.66,1.66,0,0,1-.4,0,.18.18,0,0,1-.16,0S269.18,24.48,269.16,24.26Zm-5.68-7.91a25,25,0,0,0,2.06-5.22,3.89,3.89,0,0,0,.31-1.65c-.05-.19-.37-.27-.94-.27a2.07,2.07,0,0,0-.88.15,5.61,5.61,0,0,0-.82,1.56c-.06.15-.18.43-.37.85-.4,1-.69,1.68-.88,2.1,0,.08-.08.2-.16.37a4.83,4.83,0,0,0-.58,1.72c0,.14.26.29.68.47l.14.07a1.81,1.81,0,0,0,1.16.22A1.34,1.34,0,0,0,263.48,16.35Z"/><path id="_複合路徑_12" data-name="&lt;複合路徑&gt;" d="M289.53,24.79c-.11-.07-.08-.43.08-1.05.31-1.23.52-2.1.63-2.62.17-.82.16-1.28,0-1.38s-.43,0-1.12,0c-4-.1-6.37-.1-7,0l-.45.07-.07-.14a.74.74,0,0,1-.08-.19c-.21-.5-.28-.77-.21-.8h.33l.21,0,.23,0,.11,0q1.49.19,6.75.35a4,4,0,0,0,1.57-.12q.24-.13.39-1a3.22,3.22,0,0,0,.08-.8c0-.17-.28-.24-.72-.22l-.14,0c-.2,0-.32,0-.34-.14a26.85,26.85,0,0,1,.56-3.47c.31-1.76.5-2.81.55-3.17s0-.51-.08-.57-.46.12-1,.52l-.71.47c-.53.33-.82.41-.88.24s.09-.21.37-.5a26.59,26.59,0,0,0,5-7.23s.06,0,.16,0a3.09,3.09,0,0,1,.37.12l.48.19.54.22.49.23a3.48,3.48,0,0,1,.35.19l.16.1v0a.72.72,0,0,1-.46.25,1.68,1.68,0,0,0-.93.77c-.35.51-.41.83-.2.94a.81.81,0,0,0,.31.07,4.1,4.1,0,0,0,1.54,0l.1,0c.34-.18.79-1,1.34-2.56a1.78,1.78,0,0,1,.19-.41l.64.17c.44.11.87.23,1.31.36a6.58,6.58,0,0,1,.7.21.24.24,0,0,1,0,.12.66.66,0,0,1-.49.29,4.28,4.28,0,0,0-1.13.72q-.93.75-1,1c0,.15.43.23,1.33.24a6.6,6.6,0,0,0,1.21,0,2.34,2.34,0,0,0,.81-.61L302,5c.11-.11.19-.13.24-.09l.73.7.52.54c.42.43.55.7.38.8a11.72,11.72,0,0,1-2.68.13h-.48a8,8,0,0,0-2.08.14c-.17.07-.28.3-.34.68l0,.23a2.4,2.4,0,0,0-.06.83c.05.2.31.3.77.31a3.48,3.48,0,0,0,.63,0,3.23,3.23,0,0,0,1-.79,4.25,4.25,0,0,1,.58-.53c.08,0,.27.14.56.45s.42.42.53.53c.46.48.61.78.46.89a7.54,7.54,0,0,1-2.37.17h-.71a3.75,3.75,0,0,0-1.66.21,2,2,0,0,0-.27.87,2.62,2.62,0,0,0-.07.85c.06.22.36.32.88.31a5.05,5.05,0,0,0,.54,0,1.82,1.82,0,0,0,.86-.61l.56-.57c.14-.13.23-.18.29-.15a1.83,1.83,0,0,1,.31.3,6.32,6.32,0,0,1,1.25,1.42.28.28,0,0,1-.07.13,6.32,6.32,0,0,1-2.53.21h-.39a6.4,6.4,0,0,0-1.82.12c-.14.09-.25.36-.33.8l0,.21a1.77,1.77,0,0,0,0,1c.09.14.49.22,1.21.23a3.8,3.8,0,0,0,1.17-.11,6,6,0,0,0,1.07-.93,2.84,2.84,0,0,1,.51-.5,3.6,3.6,0,0,1,.46.4c.89.9,1.33,1.39,1.31,1.49a.27.27,0,0,1-.16.2,38.67,38.67,0,0,1-5.43.1c-3.15,0-4.85,0-5.1,0a.51.51,0,0,0-.25.21.76.76,0,0,0-.12.3c0,.24.37.41,1.22.49l.4,0c.23,0,.34.07.32.14a.13.13,0,0,1,0,.07c-.16.17-.28.25-.37.25s-.12.12-.2.3a1.78,1.78,0,0,0-.18,1.1v0a.45.45,0,0,0,.43.25c.23,0,1,0,2.3.06l2.4,0,.29-.11a6.29,6.29,0,0,0,1-.82,6.23,6.23,0,0,1,.75-.7,2.6,2.6,0,0,1,.56.46,7.49,7.49,0,0,1,1.44,1.54.26.26,0,0,1-.13.18,29,29,0,0,1-4.67.11h-.62a24.66,24.66,0,0,0-3.38.05,1,1,0,0,0-.81.75q0,.12-.3,2.07v.05a4.64,4.64,0,0,1-.37,1.69l-.08.05a2.91,2.91,0,0,1-1.31.47h0a1.81,1.81,0,0,1-.63,0A.53.53,0,0,1,289.53,24.79ZM284.74,8.73A5.31,5.31,0,0,0,283.87,7c-.21-.27-.31-.44-.29-.53s.24-.09.63,0a5.92,5.92,0,0,1,1.19.29c1,.39,1.37,1,1.23,1.67a1.18,1.18,0,0,1-.38.66,1,1,0,0,1-1.21.22C284.92,9.17,284.82,9,284.74,8.73Zm-1,8.38c-.21-.18-.22-.66,0-1.42a7.13,7.13,0,0,0,.3-1.82,1,1,0,0,0-.82-1l0,0c-.18-.05-.27-.12-.29-.19v-.14c0-.11.24-.17.66-.18h.23a1.6,1.6,0,0,0,.95-.41q.72-.59,5.2-5.55l0,0,0,0v0l0,0,0,0v0l0,0,0,0,0,0v0l0,0,0,0V6l0,0,0,0,0,0v0l0,0,0,0,0,0v0l0,0a.49.49,0,0,1,.36-.21c.05,0,.07,0,.07,0a27.72,27.72,0,0,1-2.08,3,34.53,34.53,0,0,0-2.62,3.85,2.55,2.55,0,0,0-.15,1.66,3.55,3.55,0,0,1-.45,2.64,1.09,1.09,0,0,1-1.56.44ZM287.2,6a.76.76,0,0,0,0-.3,6.09,6.09,0,0,0-1-2,.55.55,0,0,1-.1-.23c0-.2.26-.24.79-.13a3.42,3.42,0,0,1,1.87,1,1.57,1.57,0,0,1,.2.3A1.29,1.29,0,0,1,288.74,6a1,1,0,0,1-1.28.28C287.29,6.16,287.21,6.06,287.2,6Zm9,2.38q.19-1.08-.06-1.26a1.36,1.36,0,0,0-.47-.08,4.91,4.91,0,0,0-1.83,0,1.3,1.3,0,0,0-.47.89c-.14.66-.09,1.06.14,1.2a2.74,2.74,0,0,0,.81.12c.9,0,1.44,0,1.61-.21A1.58,1.58,0,0,0,296.2,8.33ZM295.26,12c.17-.09.31-.43.42-1a1.89,1.89,0,0,0,0-.94q-.15-.16-1.26-.18a3.25,3.25,0,0,0-1.27.13q-.21.13-.36,1a1.78,1.78,0,0,0,0,.94c.09.14.51.21,1.25.22a4,4,0,0,0,1.12-.08Zm-.57,3c.17-.09.32-.45.43-1.06a1.84,1.84,0,0,0,0-1c-.09-.13-.51-.19-1.25-.2a3.33,3.33,0,0,0-1.27.12c-.14.09-.26.43-.37,1a1.89,1.89,0,0,0,0,1c.1.13.51.19,1.23.2a3.91,3.91,0,0,0,1.12-.08Z"/><path id="_複合路徑_13" data-name="&lt;複合路徑&gt;" d="M306,25a.33.33,0,0,1-.2-.35,14.12,14.12,0,0,1,.36-1.58c.1-.37.24-1,.43-1.9q1.49-6.84,1.47-7.46a.85.85,0,0,0,0-.23c-.06-.23-.39,0-1,.56l-.2.2a5.94,5.94,0,0,1-1.33,1.21c-.06,0-.11,0-.13,0s0-.07,0-.14a1.23,1.23,0,0,1,.13-.26l.29-.46A57.33,57.33,0,0,0,311.1,4.36a6.82,6.82,0,0,1,.37-.84c0-.11.1-.16.16-.14l.17.07.5.15.61.21.86.31c.32.12.46.22.43.3s-.16.14-.44.25a1.52,1.52,0,0,0-.79.79c-.41.8-1,1.85-1.8,3.16q-.27.48-.39.75a.48.48,0,0,0,.26.7l.17.07q.18.12,0,.27l-.23.14c-.05,0-.12.09-.21.23l-.15.22-.8,4.09c-.64,3.41-1.1,6.14-1.4,8.17l-.13,1.11-.17.13a2.75,2.75,0,0,1-.57.34,2,2,0,0,1-1.46.19Zm2.6-.43c.27-.49.53-1,.78-1.46a35.41,35.41,0,0,0,2.6-8.78,27.7,27.7,0,0,0,.62-5.15.36.36,0,0,1,0-.18c0-.06.43.06,1.16.36l1.09.47,4.55.05L324,10l.23-.11c.3-.26.57-.5.8-.73l.48-.47c.14-.14.24-.18.32-.12a12.31,12.31,0,0,1,1.49,1.54l.11.14a.21.21,0,0,1,0,.34l-.14.12-6.17-.05h-1.24c-3.27,0-4.95,0-5,.05l0,0a.71.71,0,0,0-.31.47c-.07.25-.25,1.08-.53,2.51a43.65,43.65,0,0,1-1.44,5.45,14.49,14.49,0,0,1-3.48,5.65.36.36,0,0,0-.09.09c-.18.16-.32.19-.41.08S308.55,24.77,308.63,24.6Zm7.93-15.55c-.08-.06-.06-.36.07-.9s.1-.9-.1-1.06a6.79,6.79,0,0,0-2.69,0h-.31l-.18-.5L313.18,6a6,6,0,0,1,1.16.08c.31,0,.58.09.81.11,1,.1,1.61,0,1.85-.28a4.12,4.12,0,0,0,.24-2.23c0-.18,0-.3,0-.34s.07,0,.22,0,.32,0,.53,0l.69.09.68.08.53.08c.14,0,.22,0,.23.06a.08.08,0,0,1,0,.07.69.69,0,0,1-.37.39,1.47,1.47,0,0,0-.62,1c-.17.63-.11,1,.17,1.15a1.79,1.79,0,0,0,.36,0,7.17,7.17,0,0,0,1.88,0c.45-.18.64-1,.56-2.6a1.22,1.22,0,0,1,0-.37,4.42,4.42,0,0,1,1.43.11,6.38,6.38,0,0,1,1.41.27c.14.08,0,.22-.33.41a1.54,1.54,0,0,0-.6,1c-.16.63-.11,1,.16,1.13q.7.38,1.74-.69a.58.58,0,0,0,.12-.14c.26-.27.44-.41.51-.41s.25.17.57.52c.19.18.33.33.43.44.44.49.6.79.47.9a7.09,7.09,0,0,1-2.21.14l-1.73,0L324,7.2a1.54,1.54,0,0,0-.39,1,1.53,1.53,0,0,1-.12.49c-.09.16-.37.3-.85.4a2.67,2.67,0,0,1-.9.08c-.26-.06-.31-.37-.15-.92s.14-.86,0-1L321.45,7h-2.21l-.18.14c-.2.13-.33.47-.4,1,0,.2,0,.36-.06.46a.63.63,0,0,1-.39.32l-.32.11a2,2,0,0,1-1.27.06S316.58,9.08,316.56,9.05Zm-3.85,15a66,66,0,0,0,2.2-12.3.52.52,0,0,1,0-.16c0-.08.32,0,.85.26.15.06.37.16.66.31l.36.16.33.12,3.08,0h.66a12.88,12.88,0,0,0,2.68-.1,3,3,0,0,0,.64-.5l.08-.07c.25-.23.4-.33.46-.32a5.49,5.49,0,0,1,.87.77,6,6,0,0,1,.81.84c0,.09-.06.2-.27.32a.34.34,0,0,1-.1,0,.7.7,0,0,0-.38.32c-.11.23-.45,1.85-1,4.87s-.91,4.56-1.05,5a1.92,1.92,0,0,1-.53.82,2.78,2.78,0,0,1-1.16.56c-.63.16-.93.14-.89-.08a2.13,2.13,0,0,0,0-.66,1.24,1.24,0,0,0-1-1.23l-.07,0c-.14-.06-.18-.15-.11-.28a2,2,0,0,1,.75,0,2.2,2.2,0,0,0,1-.11c.16-.1.3-.5.43-1.19a2.62,2.62,0,0,0,.07-1.1q-.12-.24-1.08-.24h-.3c-.45,0-.73.08-.86.25a8.49,8.49,0,0,0-.54,2.5c0,.17,0,.29,0,.37-.11.67-.19,1.05-.22,1.14a1.31,1.31,0,0,1-.52.34,1.84,1.84,0,0,1-1.33.22l-.13-.07c-.09-.1,0-.63.23-1.61.14-.54.23-.9.28-1.08.25-1.12.31-1.76.18-1.93s-.46-.18-1.08-.17h-.32a1,1,0,0,0-.86.43,14.49,14.49,0,0,0-.66,3.49v.44l-.24.15a1.93,1.93,0,0,1-.57.32c-.65.27-1.09.31-1.31.12S312.63,24.59,312.71,24.07Zm5.68-5.78c.24-.88.27-1.42.07-1.6a1.1,1.1,0,0,0-.46-.13,3.37,3.37,0,0,0-1.55.06c-.2.12-.37.5-.52,1.14-.19.87-.19,1.38,0,1.52a2.22,2.22,0,0,0,.45.1,3.06,3.06,0,0,0,1.54-.1A2,2,0,0,0,318.39,18.29Zm.74-3.92a2.46,2.46,0,0,0,0-1c-.1-.14-.47-.21-1.11-.22a2.11,2.11,0,0,0-1.07.15,2.3,2.3,0,0,0-.44,1.21,2.38,2.38,0,0,0,0,1.22c.1.14.51.22,1.24.24h.72l.19-.18A3,3,0,0,0,319.13,14.37Zm3.54,4c.24-.88.26-1.42.07-1.61a1.36,1.36,0,0,0-.46-.12,3.41,3.41,0,0,0-1.56.06q-.29.18-.51,1.14c-.2.87-.19,1.38,0,1.52a1.83,1.83,0,0,0,.45.09,2.93,2.93,0,0,0,1.53-.09A1.92,1.92,0,0,0,322.67,18.34Zm.74-3.94a2.05,2.05,0,0,0,0-1c-.08-.15-.44-.24-1.08-.24a2.11,2.11,0,0,0-1.07.15c-.16.1-.3.51-.43,1.21a2.44,2.44,0,0,0-.07,1.2c.1.15.51.24,1.24.26h.72l.19-.18A3.11,3.11,0,0,0,323.41,14.4Z"/><path id="_複合路徑_14" data-name="&lt;複合路徑&gt;" d="M331.48,23.07a1.48,1.48,0,0,1,.09-1.7,1.89,1.89,0,0,1,1.75-1,1.35,1.35,0,0,1,1.19.56,1.57,1.57,0,0,1,0,1.68,1.9,1.9,0,0,1-1.72,1,1.33,1.33,0,0,1-1.29-.61Zm1.87-5a.66.66,0,0,0,0-.15s0-.11,0-.18,0-.15,0-.25,0-.2,0-.3l0-.32c0-.12,0-.24,0-.36s.08-1.19.19-2.87c.05-.89.09-1.65.13-2.28q.27-4.24.87-5.21a1.57,1.57,0,0,1,1.48-.67,1.93,1.93,0,0,1,.5,0c.52.1.78.48.77,1.16a37.59,37.59,0,0,1-1.92,7.15c-.18.57-.46,1.46-.83,2.68a13.73,13.73,0,0,1-.52,1.58c-.05.07-.17.09-.39.09s-.34,0-.38-.07Z"/></g></g></g></svg>